<svg width="1651" height="992" viewBox="0 0 1651 992" fill="none" xmlns="http://www.w3.org/2000/svg">
<g id="Frame 2131333628">
<rect id="Rectangle 34625235" width="1651" height="992" fill="#0F172B"/>
<g id="Frame 2131333424">
<rect id="Rectangle 34625222" x="459" y="536" width="380" height="107" rx="13" fill="#141E31"/>
<rect id="Rectangle 34625224" x="459" y="536" width="380" height="107" rx="13" fill="#141E31"/>
<g id="Group 1948755515">
<path id="Vector" fill-rule="evenodd" clip-rule="evenodd" d="M477 555.84C477 557.85 477.23 559.46 478.05 561.1C478.4 561.79 478.62 562.19 479.06 562.83C479.99 564.18 481.22 565.26 482.62 566.1C484.28 567.09 486.2 567.62 488.41 567.62C489.2 567.62 489.35 566.23 488.45 566.12L487.21 566.03C485.42 565.79 483.9 565.23 482.48 564.17C482.35 564.07 482.23 563.99 482.11 563.88C480.45 562.48 479.35 560.79 478.81 558.65C478.07 555.68 478.83 552.25 480.81 550.03C481.52 549.23 481.83 548.93 482.72 548.27C484.22 547.19 486.42 546.51 488.31 546.51C490.46 546.51 492.48 547.26 494.2 548.49C494.78 548.91 495.74 549.86 496.15 550.45C496.72 551.27 497.2 552.05 497.53 553.03C498.04 554.59 497.99 554.89 498.11 556.41C498.19 557.35 499.62 557.21 499.62 556.41C499.62 552.19 497.53 548.64 494 546.53C492.62 545.7 490.55 545 488.69 545H487.84C486.06 545 483.95 545.73 482.62 546.53C480.49 547.81 479.18 549.3 478.07 551.49C477.57 552.49 477 554.37 477 555.84Z" fill="#586872" fill-opacity="0.501961"/>
<path id="Vector_2" fill-rule="evenodd" clip-rule="evenodd" d="M485.301 556.22C485.301 556.59 485.441 556.94 485.831 557.05C486.021 557.1 489.051 557.07 489.391 557.07L488.471 559.25C488.251 559.79 487.561 561.19 487.561 561.68C487.561 562.27 488.591 562.73 489.021 561.87C489.141 561.64 489.251 561.34 489.361 561.08C489.591 560.55 489.791 560.06 490.021 559.53C490.181 559.18 491.331 556.56 491.331 556.41C491.331 555.34 490.391 555.56 489.631 555.56C488.831 555.56 488.031 555.56 487.231 555.56L488.401 552.78C488.601 552.32 488.801 551.86 488.991 551.39C489.421 550.32 488.081 549.82 487.651 550.66C487.381 551.18 485.301 556.1 485.301 556.22Z" fill="#586872" fill-opacity="0.501961"/>
<path id="Vector_3" d="M493.269 564.63V563.29H496.489C496.949 563.29 497.319 563.13 497.599 562.81C497.879 562.49 498.019 562.08 498.019 561.56C498.019 561.04 497.879 560.62 497.599 560.3C497.319 559.98 496.949 559.82 496.489 559.82H493.269V558.48H496.439C497.049 558.48 497.579 558.61 498.029 558.87C498.489 559.12 498.839 559.48 499.089 559.94C499.339 560.4 499.469 560.94 499.469 561.56C499.469 562.18 499.339 562.71 499.089 563.17C498.839 563.64 498.489 563.99 498.029 564.25C497.579 564.5 497.049 564.63 496.439 564.63H493.269ZM492.539 568.52V558.48H493.949V568.52H492.539Z" fill="#F4AC4F" fill-opacity="0.501961"/>
</g>
<rect id="Rectangle 34625223" x="467" y="545" width="4" height="89" rx="2" fill="#10182C"/>
<text id="&#208;&#160;&#208;&#181;&#208;&#176;&#208;&#186;&#209;&#130;&#208;&#184;&#208;&#178;&#208;&#189;&#208;&#176;&#209;&#143; &#208;&#188;&#208;&#190;&#209;&#137;&#208;&#189;&#208;&#190;&#209;&#129;&#209;&#130;&#209;&#140;" fill="#586872" style="white-space: pre" xml:space="preserve" font-family="Bahnschrift" font-size="18" letter-spacing="0em"><tspan x="507" y="561.291">&#x420;&#x435;&#x430;&#x43a;&#x442;&#x438;&#x432;&#x43d;&#x430;&#x44f; &#x43c;&#x43e;&#x449;&#x43d;&#x43e;&#x441;&#x442;&#x44c;</tspan></text>
<text id="22" fill="#818B98" style="white-space: pre" xml:space="preserve" font-family="Bahnschrift" font-size="50" letter-spacing="0em"><tspan x="775.34" y="627.697">22</tspan></text>
<text id="&#208;&#186;&#208;&#146;&#208;&#144;&#209;&#128;&#226;&#128;&#162;&#209;&#135;" fill="#2F3C4B" style="white-space: pre" xml:space="preserve" font-family="Bahnschrift" font-size="24" letter-spacing="0em"><tspan x="751.758" y="560.555">&#x43a;&#x412;&#x410;&#x440;&#x2022;&#x447;</tspan></text>
</g>
<g id="Frame 2131333425">
<rect id="Rectangle 34625222_2" x="459" y="179" width="380" height="107" rx="13" fill="#141E31"/>
<rect id="Rectangle 34625224_2" x="459" y="179" width="380" height="107" rx="13" fill="#141E31"/>
<g id="Group 1948755515_2">
<path id="Vector_4" fill-rule="evenodd" clip-rule="evenodd" d="M477 198.84C477 200.85 477.23 202.46 478.05 204.1C478.4 204.79 478.62 205.19 479.06 205.83C479.99 207.18 481.22 208.26 482.62 209.1C484.28 210.09 486.2 210.62 488.41 210.62C489.2 210.62 489.35 209.23 488.45 209.12L487.21 209.03C485.42 208.79 483.9 208.23 482.48 207.17C482.35 207.07 482.23 206.99 482.11 206.88C480.45 205.48 479.35 203.79 478.81 201.65C478.07 198.68 478.83 195.25 480.81 193.03C481.52 192.23 481.83 191.93 482.72 191.27C484.22 190.19 486.42 189.51 488.31 189.51C490.46 189.51 492.48 190.26 494.2 191.49C494.78 191.91 495.74 192.86 496.15 193.45C496.72 194.27 497.2 195.05 497.53 196.03C498.04 197.59 497.99 197.89 498.11 199.41C498.19 200.35 499.62 200.21 499.62 199.41C499.62 195.19 497.53 191.64 494 189.53C492.62 188.7 490.55 188 488.69 188H487.84C486.06 188 483.95 188.73 482.62 189.53C480.49 190.81 479.18 192.3 478.07 194.49C477.57 195.49 477 197.37 477 198.84Z" fill="#586872" fill-opacity="0.501961"/>
<path id="Vector_5" fill-rule="evenodd" clip-rule="evenodd" d="M485.301 199.22C485.301 199.59 485.441 199.94 485.831 200.05C486.021 200.1 489.051 200.07 489.391 200.07L488.471 202.25C488.251 202.79 487.561 204.19 487.561 204.68C487.561 205.27 488.591 205.73 489.021 204.87C489.141 204.64 489.251 204.34 489.361 204.08C489.591 203.55 489.791 203.06 490.021 202.53C490.181 202.18 491.331 199.56 491.331 199.41C491.331 198.34 490.391 198.56 489.631 198.56C488.831 198.56 488.031 198.56 487.231 198.56L488.401 195.78C488.601 195.32 488.801 194.86 488.991 194.39C489.421 193.32 488.081 192.82 487.651 193.66C487.381 194.18 485.301 199.1 485.301 199.22Z" fill="#586872" fill-opacity="0.501961"/>
<path id="Vector_6" d="M493.269 207.63V206.29H496.489C496.949 206.29 497.319 206.13 497.599 205.81C497.879 205.49 498.019 205.08 498.019 204.56C498.019 204.04 497.879 203.62 497.599 203.3C497.319 202.98 496.949 202.82 496.489 202.82H493.269V201.48H496.439C497.049 201.48 497.579 201.61 498.029 201.87C498.489 202.12 498.839 202.48 499.089 202.94C499.339 203.4 499.469 203.94 499.469 204.56C499.469 205.18 499.339 205.71 499.089 206.17C498.839 206.64 498.489 206.99 498.029 207.25C497.579 207.5 497.049 207.63 496.439 207.63H493.269ZM492.539 211.52V201.48H493.949V211.52H492.539Z" fill="#F4AC4F" fill-opacity="0.501961"/>
</g>
<rect id="Rectangle 34625223_2" x="467" y="188" width="4" height="89" rx="2" fill="#10182C"/>
<text id="&#208;&#160;&#208;&#181;&#208;&#176;&#208;&#186;&#209;&#130;&#208;&#184;&#208;&#178;&#208;&#189;&#208;&#176;&#209;&#143; &#208;&#188;&#208;&#190;&#209;&#137;&#208;&#189;&#208;&#190;&#209;&#129;&#209;&#130;&#209;&#140;_2" fill="#586872" style="white-space: pre" xml:space="preserve" font-family="Bahnschrift" font-size="18" letter-spacing="0em"><tspan x="507" y="204.291">&#x420;&#x435;&#x430;&#x43a;&#x442;&#x438;&#x432;&#x43d;&#x430;&#x44f; &#x43c;&#x43e;&#x449;&#x43d;&#x43e;&#x441;&#x442;&#x44c;</tspan></text>
<text id="12" fill="#818B98" style="white-space: pre" xml:space="preserve" font-family="Bahnschrift" font-size="50" letter-spacing="0em"><tspan x="784.52" y="270.697">12</tspan></text>
<text id="&#208;&#186;&#208;&#146;&#208;&#144;&#209;&#128;&#226;&#128;&#162;&#209;&#135;_2" fill="#2F3C4B" style="white-space: pre" xml:space="preserve" font-family="Bahnschrift" font-size="24" letter-spacing="0em"><tspan x="751.758" y="203.555">&#x43a;&#x412;&#x410;&#x440;&#x2022;&#x447;</tspan></text>
</g>
<g id="Frame 2131333426">
<rect id="Rectangle 34625222_3" x="26" y="297" width="380" height="107" rx="13" fill="#141E31"/>
<rect id="Rectangle 34625224_3" x="26" y="297" width="380" height="107" rx="13" fill="#141E31"/>
<g id="Group 1948755515_3">
<path id="Vector_7" fill-rule="evenodd" clip-rule="evenodd" d="M44 316.84C44 318.85 44.23 320.46 45.05 322.1C45.4 322.79 45.62 323.19 46.06 323.83C46.99 325.18 48.22 326.26 49.62 327.1C51.28 328.09 53.2 328.62 55.41 328.62C56.2 328.62 56.35 327.23 55.45 327.12L54.21 327.03C52.42 326.79 50.9 326.23 49.48 325.17C49.35 325.07 49.23 324.99 49.11 324.88C47.45 323.48 46.35 321.79 45.81 319.65C45.07 316.68 45.83 313.25 47.81 311.03C48.52 310.23 48.83 309.93 49.72 309.27C51.22 308.19 53.42 307.51 55.31 307.51C57.46 307.51 59.48 308.26 61.2 309.49C61.78 309.91 62.74 310.86 63.15 311.45C63.72 312.27 64.2 313.05 64.53 314.03C65.04 315.59 64.99 315.89 65.11 317.41C65.19 318.35 66.62 318.21 66.62 317.41C66.62 313.19 64.53 309.64 61 307.53C59.62 306.7 57.55 306 55.69 306H54.84C53.06 306 50.95 306.73 49.62 307.53C47.49 308.81 46.18 310.3 45.07 312.49C44.57 313.49 44 315.37 44 316.84Z" fill="#586872" fill-opacity="0.501961"/>
<path id="Vector_8" fill-rule="evenodd" clip-rule="evenodd" d="M52.3008 317.22C52.3008 317.59 52.4407 317.94 52.8307 318.05C53.0207 318.1 56.0507 318.07 56.3907 318.07L55.4708 320.25C55.2508 320.79 54.5607 322.19 54.5607 322.68C54.5607 323.27 55.5908 323.73 56.0208 322.87C56.1408 322.64 56.2508 322.34 56.3608 322.08C56.5908 321.55 56.7908 321.06 57.0208 320.53C57.1808 320.18 58.3307 317.56 58.3307 317.41C58.3307 316.34 57.3907 316.56 56.6307 316.56C55.8307 316.56 55.0308 316.56 54.2308 316.56L55.4008 313.78C55.6008 313.32 55.8008 312.86 55.9908 312.39C56.4208 311.32 55.0808 310.82 54.6508 311.66C54.3808 312.18 52.3008 317.1 52.3008 317.22Z" fill="#586872" fill-opacity="0.501961"/>
<path id="Vector_9" d="M60.269 325.63V324.29H63.4891C63.9491 324.29 64.3191 324.13 64.5991 323.81C64.8791 323.49 65.019 323.08 65.019 322.56C65.019 322.04 64.8791 321.62 64.5991 321.3C64.3191 320.98 63.9491 320.82 63.4891 320.82H60.269V319.48H63.439C64.049 319.48 64.5791 319.61 65.0291 319.87C65.4891 320.12 65.8391 320.48 66.0891 320.94C66.3391 321.4 66.4691 321.94 66.4691 322.56C66.4691 323.18 66.3391 323.71 66.0891 324.17C65.8391 324.64 65.4891 324.99 65.0291 325.25C64.5791 325.5 64.049 325.63 63.439 325.63H60.269ZM59.5391 329.52V319.48H60.949V329.52H59.5391Z" fill="#F4AC4F" fill-opacity="0.501961"/>
</g>
<rect id="Rectangle 34625223_3" x="34" y="306" width="4" height="89" rx="2" fill="#10182C"/>
<text id="&#208;&#160;&#208;&#181;&#208;&#176;&#208;&#186;&#209;&#130;&#208;&#184;&#208;&#178;&#208;&#189;&#208;&#176;&#209;&#143; &#208;&#188;&#208;&#190;&#209;&#137;&#208;&#189;&#208;&#190;&#209;&#129;&#209;&#130;&#209;&#140;_3" fill="#586872" style="white-space: pre" xml:space="preserve" font-family="Bahnschrift" font-size="18" letter-spacing="0em"><tspan x="74" y="322.291">&#x420;&#x435;&#x430;&#x43a;&#x442;&#x438;&#x432;&#x43d;&#x430;&#x44f; &#x43c;&#x43e;&#x449;&#x43d;&#x43e;&#x441;&#x442;&#x44c;</tspan></text>
<text id="53" fill="#818B98" style="white-space: pre" xml:space="preserve" font-family="Bahnschrift" font-size="50" letter-spacing="0em"><tspan x="340.289" y="388.697">53</tspan></text>
<text id="&#208;&#186;&#208;&#146;&#208;&#144;&#209;&#128;&#226;&#128;&#162;&#209;&#135;_3" fill="#2F3C4B" style="white-space: pre" xml:space="preserve" font-family="Bahnschrift" font-size="24" letter-spacing="0em"><tspan x="318.758" y="321.555">&#x43a;&#x412;&#x410;&#x440;&#x2022;&#x447;</tspan></text>
</g>
<g id="Frame 2131333427">
<rect id="Rectangle 34625222_4" x="26" y="418" width="380" height="107" rx="13" fill="#141E31"/>
<rect id="Rectangle 34625224_4" x="26" y="418" width="380" height="107" rx="13" fill="#141E31"/>
<rect id="Rectangle 34625223_4" x="34" y="427" width="4" height="89" rx="2" fill="#10182C"/>
<text id="&#208;&#163;&#209;&#128;&#208;&#190;&#208;&#178;&#208;&#181;&#208;&#189;&#209;&#140; &#208;&#178;&#208;&#181;&#209;&#128;&#209;&#133;&#208;&#189;&#208;&#181;&#208;&#179;&#208;&#190; &#208;&#177;&#209;&#138;&#208;&#181;&#209;&#132;&#208;&#176;" fill="#586872" style="white-space: pre" xml:space="preserve" font-family="Bahnschrift" font-size="18" letter-spacing="0em"><tspan x="74" y="443.291">&#x423;&#x440;&#x43e;&#x432;&#x435;&#x43d;&#x44c; &#x432;&#x435;&#x440;&#x445;&#x43d;&#x435;&#x433;&#x43e; &#x431;&#x44a;&#x435;&#x444;&#x430;</tspan></text>
<text id="54" fill="#818B98" style="white-space: pre" xml:space="preserve" font-family="Bahnschrift" font-size="50" letter-spacing="0em"><tspan x="338.287" y="509.697">54</tspan></text>
<text id="&#208;&#188;" fill="#2F3C4B" style="white-space: pre" xml:space="preserve" font-family="Bahnschrift" font-size="24" letter-spacing="0em"><tspan x="379.812" y="442.555">&#x43c;</tspan></text>
<g id="_2772566396896">
<path id="Vector_10" d="M59.5491 439.66H59.1191C59.1191 440.71 58.6891 441.66 57.9991 442.36C57.3091 443.05 56.3591 443.47 55.2991 443.47C54.2491 443.47 53.2991 443.05 52.6091 442.36C51.9191 441.66 51.4891 440.71 51.4891 439.66C51.4891 439.02 51.7291 438.27 52.1091 437.51C52.6791 436.37 53.5491 435.23 54.2891 434.38C54.6491 433.95 54.9791 433.6 55.2191 433.35C55.3391 433.23 55.4391 433.13 55.4991 433.07C55.5291 433.04 55.5591 433.01 55.5791 432.99L55.5991 432.98V432.97L55.2991 432.66L55.0091 432.97L55.0191 432.98C55.1291 433.09 56.1791 434.11 57.1791 435.44C57.6791 436.11 58.1791 436.85 58.5391 437.59C58.8991 438.32 59.1191 439.04 59.1191 439.66H59.5491H59.9891C59.9791 438.82 59.6891 437.96 59.2791 437.13C58.6491 435.88 57.7391 434.7 56.9791 433.81C56.2191 432.93 55.6091 432.35 55.5991 432.35C55.4391 432.19 55.1691 432.19 55.0091 432.35C54.9991 432.36 53.9191 433.38 52.8391 434.79C52.2991 435.49 51.7491 436.29 51.3291 437.12C50.9191 437.96 50.6291 438.81 50.6191 439.66C50.6191 442.24 52.7191 444.34 55.2991 444.34C57.8891 444.34 59.9891 442.24 59.9891 439.66H59.5491Z" fill="#586872" fill-opacity="0.501961"/>
<path id="Vector_11" d="M60.1992 445.15L63.1192 442.26M63.1192 442.26V449.57M63.1192 442.26L66.0392 445.15" stroke="#05C095" stroke-opacity="0.501961" stroke-width="1.32" stroke-miterlimit="22.9256" stroke-linecap="round" stroke-linejoin="round"/>
<path id="Vector_12" fill-rule="evenodd" clip-rule="evenodd" d="M44 437.83C44 439.84 44.23 441.46 45.05 443.09C45.39 443.78 45.61 444.19 46.05 444.82C46.98 446.17 48.22 447.25 49.62 448.09C51.28 449.08 53.19 449.61 55.4 449.61C56.19 449.61 56.34 448.22 55.44 448.11L54.21 448.02C52.41 447.78 50.89 447.22 49.48 446.16C49.34 446.06 49.22 445.98 49.1 445.87C47.45 444.47 46.34 442.78 45.81 440.64C45.06 437.67 45.82 434.24 47.8 432.02C48.51 431.22 48.82 430.92 49.72 430.27C51.21 429.18 53.41 428.5 55.3 428.5C57.45 428.5 59.48 429.25 61.19 430.48C61.78 430.9 62.74 431.85 63.15 432.44C63.71 433.26 64.2 434.04 64.52 435.02C65.04 436.59 64.98 436.88 65.1 438.4C65.18 439.34 66.61 439.2 66.61 438.4C66.61 434.18 64.52 430.64 60.99 428.52C59.62 427.69 57.55 427 55.68 427H54.83C53.05 427 50.94 427.73 49.62 428.52C47.48 429.8 46.17 431.29 45.06 433.48C44.56 434.48 44 436.36 44 437.83Z" fill="#586872" fill-opacity="0.501961"/>
<path id="Vector_13" fill-rule="evenodd" clip-rule="evenodd" d="M52.2793 439.66C52.2793 440.71 52.6593 441.66 53.2793 442.35C53.8993 443.05 54.7493 443.47 55.6993 443.47C56.6393 443.47 57.4993 443.05 58.1193 442.35C58.7393 441.66 59.1193 440.71 59.1193 439.66C59.1193 439.04 58.9193 438.32 58.5993 437.58C58.2693 436.85 57.8293 436.11 57.3793 435.44C56.7293 434.48 56.0593 433.68 55.6993 433.27C55.6793 433.3 55.6493 433.32 55.6293 433.35C55.4093 433.6 55.1093 433.95 54.7893 434.38C54.1293 435.23 53.3393 436.37 52.8293 437.51C52.4893 438.27 52.2793 439.02 52.2793 439.66Z" fill="#586872" fill-opacity="0.501961"/>
</g>
</g>
<g id="Frame 2131333428">
<rect id="Rectangle 34625222_5" x="26" y="536" width="380" height="107" rx="13" fill="#141E31"/>
<rect id="Rectangle 34625223_5" x="34" y="545" width="4" height="89" rx="2" fill="#10182C"/>
<text id="&#208;&#163;&#209;&#128;&#208;&#190;&#208;&#178;&#208;&#181;&#208;&#189;&#209;&#140; &#208;&#189;&#208;&#184;&#208;&#182;&#208;&#189;&#208;&#181;&#208;&#179;&#208;&#190; &#208;&#177;&#209;&#138;&#208;&#181;&#209;&#132;&#208;&#176;" fill="#586872" style="white-space: pre" xml:space="preserve" font-family="Bahnschrift" font-size="18" letter-spacing="0em"><tspan x="74" y="561.291">&#x423;&#x440;&#x43e;&#x432;&#x435;&#x43d;&#x44c; &#x43d;&#x438;&#x436;&#x43d;&#x435;&#x433;&#x43e; &#x431;&#x44a;&#x435;&#x444;&#x430;</tspan></text>
<text id="55" fill="#818B98" style="white-space: pre" xml:space="preserve" font-family="Bahnschrift" font-size="50" letter-spacing="0em"><tspan x="339.508" y="627.697">55</tspan></text>
<text id="&#208;&#188;_2" fill="#2F3C4B" style="white-space: pre" xml:space="preserve" font-family="Bahnschrift" font-size="24" letter-spacing="0em"><tspan x="379.812" y="560.555">&#x43c;</tspan></text>
<g id="_2774778994208">
<path id="Vector_14" d="M59.5491 557.66H59.1191C59.1191 558.71 58.6891 559.66 57.9991 560.36C57.3091 561.05 56.3591 561.47 55.2991 561.47C54.2491 561.47 53.2991 561.05 52.6091 560.36C51.9191 559.66 51.4891 558.71 51.4891 557.66C51.4891 557.02 51.7291 556.27 52.1091 555.51C52.6791 554.37 53.5491 553.23 54.2891 552.38C54.6491 551.95 54.9791 551.6 55.2191 551.35C55.3391 551.23 55.4391 551.13 55.4991 551.07C55.5291 551.04 55.5591 551.01 55.5791 550.99L55.5991 550.98V550.97L55.2991 550.66L55.0091 550.97L55.0191 550.98C55.1291 551.09 56.1791 552.11 57.1791 553.44C57.6791 554.11 58.1791 554.85 58.5391 555.59C58.8991 556.32 59.1191 557.04 59.1191 557.66H59.5491H59.9891C59.9791 556.82 59.6891 555.96 59.2791 555.13C58.6491 553.88 57.7391 552.7 56.9791 551.81C56.2191 550.93 55.6091 550.35 55.5991 550.35C55.4391 550.19 55.1691 550.19 55.0091 550.35C54.9991 550.36 53.9191 551.38 52.8391 552.79C52.2991 553.49 51.7491 554.29 51.3291 555.12C50.9191 555.96 50.6291 556.82 50.6191 557.66C50.6191 560.24 52.7191 562.34 55.2991 562.34C57.8891 562.34 59.9891 560.24 59.9891 557.66H59.5491Z" fill="#586872" fill-opacity="0.501961"/>
<path id="Vector_15" d="M60.1992 564.69L63.1192 567.57M63.1192 567.57V560.26M63.1192 567.57L66.0392 564.69" stroke="#05C095" stroke-opacity="0.501961" stroke-width="1.32" stroke-miterlimit="22.9256" stroke-linecap="round" stroke-linejoin="round"/>
<path id="Vector_16" fill-rule="evenodd" clip-rule="evenodd" d="M44 555.83C44 557.84 44.23 559.46 45.05 561.09C45.39 561.78 45.61 562.19 46.05 562.82C46.98 564.17 48.22 565.25 49.62 566.09C51.28 567.08 53.19 567.61 55.4 567.61C56.19 567.61 56.34 566.22 55.44 566.11L54.21 566.02C52.41 565.78 50.89 565.22 49.48 564.16C49.34 564.06 49.22 563.98 49.1 563.87C47.45 562.47 46.34 560.78 45.81 558.64C45.06 555.67 45.82 552.24 47.8 550.02C48.51 549.22 48.82 548.92 49.72 548.27C51.21 547.18 53.41 546.5 55.3 546.5C57.45 546.5 59.48 547.25 61.19 548.48C61.78 548.9 62.74 549.85 63.15 550.44C63.71 551.26 64.2 552.04 64.52 553.02C65.04 554.59 64.98 554.88 65.1 556.4C65.18 557.34 66.61 557.2 66.61 556.4C66.61 552.18 64.52 548.64 60.99 546.52C59.62 545.69 57.55 545 55.68 545H54.83C53.05 545 50.94 545.73 49.62 546.52C47.48 547.8 46.17 549.29 45.06 551.48C44.56 552.48 44 554.36 44 555.83Z" fill="#586872" fill-opacity="0.501961"/>
<path id="Vector_17" fill-rule="evenodd" clip-rule="evenodd" d="M52.2793 557.66C52.2793 558.71 52.6593 559.66 53.2793 560.36C53.8993 561.05 54.7493 561.47 55.6993 561.47C56.6393 561.47 57.4993 561.05 58.1193 560.36C58.7393 559.66 59.1193 558.71 59.1193 557.66C59.1193 557.05 58.9193 556.32 58.5993 555.59C58.2693 554.85 57.8293 554.11 57.3793 553.44C56.7293 552.48 56.0593 551.68 55.6993 551.27C55.6793 551.3 55.6493 551.32 55.6293 551.35C55.4093 551.6 55.1093 551.95 54.7893 552.38C54.1293 553.23 53.3393 554.37 52.8293 555.51C52.4893 556.27 52.2793 557.02 52.2793 557.66Z" fill="#586872" fill-opacity="0.501961"/>
</g>
</g>
<g id="Frame 2131333429">
<rect id="Rectangle 34625222_6" x="26" y="654" width="380" height="204" rx="13" fill="#141E31"/>
<rect id="Rectangle 34625223_6" x="34" y="671" width="4" height="178" rx="2" fill="#10182C"/>
<text id="&#208;&#161;&#208;&#190;&#209;&#129;&#209;&#130;&#208;&#190;&#209;&#143;&#208;&#189;&#208;&#184;&#208;&#181; &#209;&#128;&#208;&#176;&#208;&#177;&#208;&#190;&#209;&#130;&#209;&#139; &#208;&#179;&#208;&#181;&#208;&#189;&#208;&#181;&#209;&#128;&#208;&#176;&#209;&#130;&#208;&#190;&#209;&#128;&#208;&#176;" fill="#586872" style="white-space: pre" xml:space="preserve" font-family="Bahnschrift" font-size="18" letter-spacing="0em"><tspan x="74" y="679.291">&#x421;&#x43e;&#x441;&#x442;&#x43e;&#x44f;&#x43d;&#x438;&#x435; &#x440;&#x430;&#x431;&#x43e;&#x442;&#x44b; &#x433;&#x435;&#x43d;&#x435;&#x440;&#x430;&#x442;&#x43e;&#x440;&#x430;</tspan></text>
<g id="Group 1948755516">
<text id="!" fill="#586872" style="white-space: pre" xml:space="preserve" font-family="Urbanist" font-size="18" letter-spacing="0em"><tspan x="54.3828" y="680.3">!</tspan></text>
<circle id="Ellipse 447" cx="56" cy="674" r="10.5" stroke="#364351"/>
</g>
<g id="Group 1948755517">
<rect id="Rectangle 34625226" x="54" y="708" width="124" height="34" rx="17" fill="#4D6165"/>
<rect id="Rectangle 34625227" x="115" y="714" width="55" height="22" rx="11" fill="#75908A"/>
<g id="Rectangle 34625228" filter="url(#filter0_f_532_9632)">
<rect x="118" y="716" width="49" height="18" rx="9" fill="#23E864"/>
</g>
<path id="Arrow 1" d="M144.854 725.354C145.049 725.158 145.049 724.842 144.854 724.646L141.672 721.464C141.476 721.269 141.16 721.269 140.964 721.464C140.769 721.66 140.769 721.976 140.964 722.172L143.793 725L140.964 727.828C140.769 728.024 140.769 728.34 140.964 728.536C141.16 728.731 141.476 728.731 141.672 728.536L144.854 725.354ZM144 725V725.5H144.5V725V724.5H144V725Z" fill="#355D46"/>
</g>
<g id="Group 1948755519">
<rect id="Rectangle 34625226_2" x="242" y="708" width="124" height="34" rx="17" fill="#4D6165"/>
<rect id="Rectangle 34625227_2" x="303" y="714" width="55" height="22" rx="11" fill="#75908A"/>
<g id="Rectangle 34625228_2" filter="url(#filter1_f_532_9632)">
<rect x="306" y="716" width="49" height="18" rx="9" fill="#23E864"/>
</g>
<path id="Arrow 1_2" d="M332.854 725.354C333.049 725.158 333.049 724.842 332.854 724.646L329.672 721.464C329.476 721.269 329.16 721.269 328.964 721.464C328.769 721.66 328.769 721.976 328.964 722.172L331.793 725L328.964 727.828C328.769 728.024 328.769 728.34 328.964 728.536C329.16 728.731 329.476 728.731 329.672 728.536L332.854 725.354ZM332 725V725.5H332.5V725V724.5H332V725Z" fill="#355D46"/>
</g>
<text id="G-1" fill="#1B2536" style="white-space: pre" xml:space="preserve" font-family="Bahnschrift" font-size="28" letter-spacing="0em"><tspan x="68.5586" y="733.23">G-1</tspan></text>
<text id="G-2" fill="#1B2536" style="white-space: pre" xml:space="preserve" font-family="Bahnschrift" font-size="28" letter-spacing="0em"><tspan x="251.008" y="733.23">G-2</tspan></text>
</g>
<g id="Frame 2131333430">
<rect id="Rectangle 34625222_7" x="26" y="869" width="380" height="107" rx="13" fill="#141E31"/>
<rect id="Rectangle 34625224_5" x="26" y="869" width="380" height="107" rx="13" fill="#141E31"/>
<rect id="Rectangle 34625223_7" x="34" y="878" width="4" height="89" rx="2" fill="#10182C"/>
<text id="+" fill="#232E3F" style="white-space: pre" xml:space="preserve" font-family="Urbanist" font-size="50" letter-spacing="0em"><tspan x="201.498" y="940.5">+</tspan></text>
</g>
<g id="Frame 2131333431">
<rect id="Rectangle 34625222_8" x="459" y="418" width="380" height="107" rx="13" fill="#141E31"/>
<rect id="Rectangle 34625224_6" x="459" y="418" width="380" height="107" rx="13" fill="#141E31"/>
<rect id="Rectangle 34625223_8" x="467" y="427" width="4" height="89" rx="2" fill="#10182C"/>
<text id="&#208;&#144;&#208;&#186;&#209;&#130;&#208;&#184;&#208;&#178;&#208;&#189;&#208;&#176;&#209;&#143; &#208;&#188;&#208;&#190;&#209;&#137;&#208;&#189;&#208;&#190;&#209;&#129;&#209;&#130;&#209;&#140;" fill="#586872" style="white-space: pre" xml:space="preserve" font-family="Bahnschrift" font-size="18" letter-spacing="0em"><tspan x="507" y="443.291">&#x410;&#x43a;&#x442;&#x438;&#x432;&#x43d;&#x430;&#x44f; &#x43c;&#x43e;&#x449;&#x43d;&#x43e;&#x441;&#x442;&#x44c;</tspan></text>
<text id="21" fill="#818B98" style="white-space: pre" xml:space="preserve" font-family="Bahnschrift" font-size="50" letter-spacing="0em"><tspan x="784.52" y="509.697">21</tspan></text>
<text id="&#208;&#186;&#208;&#146;&#209;&#130;&#226;&#128;&#162;&#209;&#135;" fill="#2F3C4B" style="white-space: pre" xml:space="preserve" font-family="Bahnschrift" font-size="24" letter-spacing="0em"><tspan x="767.977" y="442.555">&#x43a;&#x412;&#x442;&#x2022;&#x447;</tspan></text>
<g id="_2772615867184">
<path id="Vector_18" d="M491.391 450.51L495.101 440.48H496.311L500.021 450.51H498.501L495.701 442.41L492.921 450.51H491.391ZM493.101 448.31V446.97H498.401V448.31H493.101Z" fill="#314CFF" fill-opacity="0.4"/>
<path id="Vector_19" fill-rule="evenodd" clip-rule="evenodd" d="M477 437.83C477 439.84 477.23 441.46 478.05 443.1C478.4 443.79 478.61 444.19 479.05 444.83C479.99 446.17 481.22 447.25 482.62 448.09C484.28 449.09 486.2 449.61 488.4 449.61C489.19 449.61 489.34 448.23 488.44 448.11L487.21 448.03C485.42 447.78 483.89 447.22 482.48 446.16C482.35 446.06 482.23 445.98 482.1 445.88C480.45 444.47 479.35 442.78 478.81 440.64C478.07 437.68 478.83 434.24 480.8 432.03C481.52 431.23 481.82 430.92 482.72 430.27C484.21 429.18 486.41 428.5 488.31 428.5C490.46 428.5 492.48 429.25 494.2 430.48C494.78 430.9 495.74 431.85 496.15 432.44C496.71 433.26 497.2 434.05 497.52 435.03C498.04 436.59 497.99 436.88 498.11 438.4C498.18 439.35 499.62 439.2 499.62 438.4C499.62 434.18 497.52 430.64 493.99 428.52C492.62 427.7 490.55 427 488.68 427H487.84C486.06 427 483.94 427.73 482.62 428.52C480.48 429.8 479.17 431.29 478.07 433.48C477.57 434.48 477 436.36 477 437.83Z" fill="#586872" fill-opacity="0.501961"/>
<path id="Vector_20" fill-rule="evenodd" clip-rule="evenodd" d="M485.289 438.21C485.289 438.58 485.429 438.94 485.829 439.04C486.019 439.09 489.049 439.06 489.389 439.06L488.469 441.25C488.239 441.79 487.549 443.18 487.549 443.68C487.549 444.26 488.579 444.73 489.019 443.87C489.129 443.63 489.249 443.34 489.359 443.08C489.589 442.54 489.779 442.06 490.019 441.53C490.169 441.18 491.319 438.55 491.319 438.4C491.319 437.34 490.379 437.55 489.629 437.55C488.829 437.55 488.019 437.55 487.219 437.55L488.399 434.77C488.599 434.31 488.799 433.86 488.989 433.38C489.409 432.31 488.069 431.81 487.649 432.65C487.379 433.17 485.289 438.09 485.289 438.21Z" fill="#586872" fill-opacity="0.501961"/>
</g>
</g>
<g id="Frame 2131333432">
<rect id="Rectangle 34625222_9" x="459" y="61" width="380" height="107" rx="13" fill="#141E31"/>
<rect id="Rectangle 34625224_7" x="459" y="61" width="380" height="107" rx="13" fill="#141E31"/>
<rect id="Rectangle 34625223_9" x="467" y="70" width="4" height="89" rx="2" fill="#10182C"/>
<text id="&#208;&#144;&#208;&#186;&#209;&#130;&#208;&#184;&#208;&#178;&#208;&#189;&#208;&#176;&#209;&#143; &#208;&#188;&#208;&#190;&#209;&#137;&#208;&#189;&#208;&#190;&#209;&#129;&#209;&#130;&#209;&#140;_2" fill="#586872" style="white-space: pre" xml:space="preserve" font-family="Bahnschrift" font-size="18" letter-spacing="0em"><tspan x="507" y="86.291">&#x410;&#x43a;&#x442;&#x438;&#x432;&#x43d;&#x430;&#x44f; &#x43c;&#x43e;&#x449;&#x43d;&#x43e;&#x441;&#x442;&#x44c;</tspan></text>
<text id="11" fill="#818B98" style="white-space: pre" xml:space="preserve" font-family="Bahnschrift" font-size="50" letter-spacing="0em"><tspan x="793.699" y="152.697">11</tspan></text>
<text id="&#208;&#186;&#208;&#146;&#209;&#130;&#226;&#128;&#162;&#209;&#135;_2" fill="#2F3C4B" style="white-space: pre" xml:space="preserve" font-family="Bahnschrift" font-size="24" letter-spacing="0em"><tspan x="767.977" y="85.5547">&#x43a;&#x412;&#x442;&#x2022;&#x447;</tspan></text>
<g id="_2772615867184_2">
<path id="Vector_21" d="M491.391 93.51L495.101 83.48H496.311L500.021 93.51H498.501L495.701 85.41L492.921 93.51H491.391ZM493.101 91.31V89.97H498.401V91.31H493.101Z" fill="#314CFF" fill-opacity="0.4"/>
<path id="Vector_22" fill-rule="evenodd" clip-rule="evenodd" d="M477 80.83C477 82.84 477.23 84.46 478.05 86.1C478.4 86.79 478.61 87.19 479.05 87.83C479.99 89.17 481.22 90.25 482.62 91.09C484.28 92.09 486.2 92.61 488.4 92.61C489.19 92.61 489.34 91.23 488.44 91.11L487.21 91.03C485.42 90.78 483.89 90.22 482.48 89.16C482.35 89.06 482.23 88.98 482.1 88.88C480.45 87.47 479.35 85.78 478.81 83.64C478.07 80.68 478.83 77.24 480.8 75.03C481.52 74.23 481.82 73.92 482.72 73.27C484.21 72.18 486.41 71.5 488.31 71.5C490.46 71.5 492.48 72.25 494.2 73.48C494.78 73.9 495.74 74.85 496.15 75.44C496.71 76.26 497.2 77.05 497.52 78.03C498.04 79.59 497.99 79.88 498.11 81.4C498.18 82.35 499.62 82.2 499.62 81.4C499.62 77.18 497.52 73.64 493.99 71.52C492.62 70.7 490.55 70 488.68 70H487.84C486.06 70 483.94 70.73 482.62 71.52C480.48 72.8 479.17 74.29 478.07 76.48C477.57 77.48 477 79.36 477 80.83Z" fill="#586872" fill-opacity="0.501961"/>
<path id="Vector_23" fill-rule="evenodd" clip-rule="evenodd" d="M485.289 81.2099C485.289 81.5799 485.429 81.9399 485.829 82.0399C486.019 82.0899 489.049 82.0599 489.389 82.0599L488.469 84.2499C488.239 84.7899 487.549 86.1799 487.549 86.6799C487.549 87.2599 488.579 87.7299 489.019 86.8699C489.129 86.6299 489.249 86.3399 489.359 86.0799C489.589 85.5399 489.779 85.0599 490.019 84.5299C490.169 84.1799 491.319 81.5499 491.319 81.3999C491.319 80.3399 490.379 80.5499 489.629 80.5499C488.829 80.5499 488.019 80.5499 487.219 80.5499L488.399 77.7699C488.599 77.3099 488.799 76.8599 488.989 76.3799C489.409 75.3099 488.069 74.8099 487.649 75.6499C487.379 76.1699 485.289 81.0899 485.289 81.2099Z" fill="#586872" fill-opacity="0.501961"/>
</g>
</g>
<g id="Frame 2131333433">
<rect id="Rectangle 34625222_10" x="26" y="179" width="380" height="107" rx="13" fill="#141E31"/>
<rect id="Rectangle 34625224_8" x="26" y="179" width="380" height="107" rx="13" fill="#141E31"/>
<rect id="Rectangle 34625223_10" x="34" y="188" width="4" height="89" rx="2" fill="#10182C"/>
<text id="&#208;&#144;&#208;&#186;&#209;&#130;&#208;&#184;&#208;&#178;&#208;&#189;&#208;&#176;&#209;&#143; &#208;&#188;&#208;&#190;&#209;&#137;&#208;&#189;&#208;&#190;&#209;&#129;&#209;&#130;&#209;&#140;_3" fill="#586872" style="white-space: pre" xml:space="preserve" font-family="Bahnschrift" font-size="18" letter-spacing="0em"><tspan x="74" y="204.291">&#x410;&#x43a;&#x442;&#x438;&#x432;&#x43d;&#x430;&#x44f; &#x43c;&#x43e;&#x449;&#x43d;&#x43e;&#x441;&#x442;&#x44c;</tspan></text>
<text id="52" fill="#818B98" style="white-space: pre" xml:space="preserve" font-family="Bahnschrift" font-size="50" letter-spacing="0em"><tspan x="340.924" y="270.697">52</tspan></text>
<text id="&#208;&#186;&#208;&#146;&#209;&#130;&#226;&#128;&#162;&#209;&#135;_3" fill="#2F3C4B" style="white-space: pre" xml:space="preserve" font-family="Bahnschrift" font-size="24" letter-spacing="0em"><tspan x="334.977" y="203.555">&#x43a;&#x412;&#x442;&#x2022;&#x447;</tspan></text>
<g id="_2772615867184_3">
<path id="Vector_24" d="M58.3906 211.51L62.1006 201.48H63.3107L67.0206 211.51H65.5007L62.7006 203.41L59.9207 211.51H58.3906ZM60.1006 209.31V207.97H65.4006V209.31H60.1006Z" fill="#314CFF" fill-opacity="0.4"/>
<path id="Vector_25" fill-rule="evenodd" clip-rule="evenodd" d="M44 198.83C44 200.84 44.23 202.46 45.05 204.1C45.4 204.79 45.61 205.19 46.05 205.83C46.99 207.17 48.22 208.25 49.62 209.09C51.28 210.09 53.2 210.61 55.4 210.61C56.19 210.61 56.34 209.23 55.44 209.11L54.21 209.03C52.42 208.78 50.89 208.22 49.48 207.16C49.35 207.06 49.23 206.98 49.1 206.88C47.45 205.47 46.35 203.78 45.81 201.64C45.07 198.68 45.83 195.24 47.8 193.03C48.52 192.23 48.82 191.92 49.72 191.27C51.21 190.18 53.41 189.5 55.31 189.5C57.46 189.5 59.48 190.25 61.2 191.48C61.78 191.9 62.74 192.85 63.15 193.44C63.71 194.26 64.2 195.05 64.52 196.03C65.04 197.59 64.99 197.88 65.11 199.4C65.18 200.35 66.62 200.2 66.62 199.4C66.62 195.18 64.52 191.64 60.99 189.52C59.62 188.7 57.55 188 55.68 188H54.84C53.06 188 50.94 188.73 49.62 189.52C47.48 190.8 46.1699 192.29 45.0699 194.48C44.5699 195.48 44 197.36 44 198.83Z" fill="#586872" fill-opacity="0.501961"/>
<path id="Vector_26" fill-rule="evenodd" clip-rule="evenodd" d="M52.2891 199.21C52.2891 199.58 52.429 199.94 52.829 200.04C53.019 200.09 56.049 200.06 56.389 200.06L55.4691 202.25C55.2391 202.79 54.5491 204.18 54.5491 204.68C54.5491 205.26 55.579 205.73 56.019 204.87C56.129 204.63 56.2491 204.34 56.3591 204.08C56.5891 203.54 56.779 203.06 57.019 202.53C57.169 202.18 58.319 199.55 58.319 199.4C58.319 198.34 57.3791 198.55 56.6291 198.55C55.8291 198.55 55.0191 198.55 54.2191 198.55L55.399 195.77C55.599 195.31 55.7991 194.86 55.9891 194.38C56.4091 193.31 55.069 192.81 54.649 193.65C54.379 194.17 52.2891 199.09 52.2891 199.21Z" fill="#586872" fill-opacity="0.501961"/>
</g>
</g>
<g id="Frame 2131333434">
<rect id="Rectangle 34625222_11" x="1245" y="536" width="380" height="107" rx="13" fill="#141E31"/>
<g id="_2772615844528">
<path id="Vector_27" d="M1273.46 545.805C1273.46 545.805 1272.72 546.505 1271.7 547.635C1273.77 549.805 1278.68 555.395 1278.68 559.725C1278.68 562.665 1277.07 565.225 1274.68 566.585C1278.46 565.995 1281.35 562.735 1281.35 558.795C1281.35 553.315 1273.46 545.805 1273.46 545.805Z" fill="#333F4E"/>
<path id="Vector_28" d="M1281.35 558.795H1280.55C1280.55 560.755 1279.76 562.525 1278.48 563.805C1277.19 565.095 1275.42 565.885 1273.46 565.885C1271.51 565.885 1269.74 565.095 1268.45 563.805C1267.17 562.525 1266.38 560.755 1266.38 558.795C1266.37 557.615 1266.82 556.215 1267.52 554.815C1268.58 552.695 1270.22 550.565 1271.57 548.985C1272.25 548.195 1272.87 547.545 1273.31 547.085C1273.53 546.855 1273.71 546.685 1273.83 546.565C1273.89 546.495 1273.94 546.455 1273.97 546.425L1274.01 546.395L1274.02 546.385L1273.46 545.805L1272.91 546.385L1272.93 546.405C1273.14 546.605 1275.09 548.505 1276.95 550.975C1277.88 552.205 1278.8 553.585 1279.46 554.945C1280.14 556.315 1280.55 557.655 1280.55 558.805H1281.35H1282.16C1282.15 557.235 1281.61 555.645 1280.84 554.095C1279.68 551.785 1277.98 549.585 1276.57 547.945C1275.16 546.305 1274.03 545.235 1274.02 545.225C1273.71 544.925 1273.22 544.925 1272.91 545.225C1272.89 545.235 1270.89 547.135 1268.88 549.755C1267.88 551.065 1266.87 552.555 1266.09 554.095C1265.32 555.635 1264.77 557.235 1264.77 558.795C1264.77 563.595 1268.66 567.495 1273.46 567.495C1278.27 567.495 1282.16 563.595 1282.16 558.795H1281.35Z" fill="#333F4E"/>
<path id="Vector_29" d="M1273.46 563.225C1272.21 563.225 1271.08 562.715 1270.26 561.895C1269.44 561.075 1268.94 559.945 1268.94 558.695C1268.94 558.255 1268.57 557.885 1268.13 557.885C1267.69 557.885 1267.33 558.255 1267.33 558.695C1267.33 562.085 1270.07 564.825 1273.46 564.825C1273.91 564.825 1274.27 564.465 1274.27 564.025C1274.27 563.585 1273.91 563.225 1273.46 563.225Z" fill="#333F4E"/>
</g>
<rect id="Rectangle 34625223_11" x="1253" y="545" width="4" height="89" rx="2" fill="#10182C"/>
<text id="&#208;&#160;&#208;&#176;&#209;&#129;&#209;&#133;&#208;&#190;&#208;&#180; &#208;&#178;&#208;&#190;&#208;&#180;&#209;&#139;" fill="#586872" style="white-space: pre" xml:space="preserve" font-family="Bahnschrift" font-size="18" letter-spacing="0em"><tspan x="1293" y="561.291">&#x420;&#x430;&#x441;&#x445;&#x43e;&#x434; &#x432;&#x43e;&#x434;&#x44b;</tspan></text>
<text id="26" fill="#818B98" style="white-space: pre" xml:space="preserve" font-family="Bahnschrift" font-size="50" letter-spacing="0em"><tspan x="1562.95" y="627.697">26</tspan></text>
<g id="&#208;&#188;3/&#209;&#135;">
<text fill="#2F3C4B" style="white-space: pre" xml:space="preserve" font-family="Bahnschrift" font-size="24" letter-spacing="0em"><tspan x="1583.34" y="560.555">&#xb3;</tspan></text>
<text fill="#2F3C4B" style="white-space: pre" xml:space="preserve" font-family="Bahnschrift" font-size="24" letter-spacing="0em"><tspan x="1568.16" y="560.555">&#x43c;</tspan><tspan x="1591.41" y="560.555">/&#x447;</tspan></text>
</g>
</g>
<g id="Frame 2131333435">
<rect id="Rectangle 34625222_12" x="1245" y="179" width="380" height="107" rx="13" fill="#141E31"/>
<g id="_2772615844528_2">
<path id="Vector_30" d="M1273.46 188.805C1273.46 188.805 1272.72 189.505 1271.7 190.635C1273.77 192.805 1278.68 198.395 1278.68 202.725C1278.68 205.665 1277.07 208.225 1274.68 209.585C1278.46 208.995 1281.35 205.735 1281.35 201.795C1281.35 196.315 1273.46 188.805 1273.46 188.805Z" fill="#333F4E"/>
<path id="Vector_31" d="M1281.35 201.795H1280.55C1280.55 203.755 1279.76 205.525 1278.48 206.805C1277.19 208.095 1275.42 208.885 1273.46 208.885C1271.51 208.885 1269.74 208.095 1268.45 206.805C1267.17 205.525 1266.38 203.755 1266.38 201.795C1266.37 200.615 1266.82 199.215 1267.52 197.815C1268.58 195.695 1270.22 193.565 1271.57 191.985C1272.25 191.195 1272.87 190.545 1273.31 190.085C1273.53 189.855 1273.71 189.685 1273.83 189.565C1273.89 189.495 1273.94 189.455 1273.97 189.425L1274.01 189.395L1274.02 189.385L1273.46 188.805L1272.91 189.385L1272.93 189.405C1273.14 189.605 1275.09 191.505 1276.95 193.975C1277.88 195.205 1278.8 196.585 1279.46 197.945C1280.14 199.315 1280.55 200.655 1280.55 201.805H1281.35H1282.16C1282.15 200.235 1281.61 198.645 1280.84 197.095C1279.68 194.785 1277.98 192.585 1276.57 190.945C1275.16 189.305 1274.03 188.235 1274.02 188.225C1273.71 187.925 1273.22 187.925 1272.91 188.225C1272.89 188.235 1270.89 190.135 1268.88 192.755C1267.88 194.065 1266.87 195.555 1266.09 197.095C1265.32 198.635 1264.77 200.235 1264.77 201.795C1264.77 206.595 1268.66 210.495 1273.46 210.495C1278.27 210.495 1282.16 206.595 1282.16 201.795H1281.35Z" fill="#333F4E"/>
<path id="Vector_32" d="M1273.46 206.225C1272.21 206.225 1271.08 205.715 1270.26 204.895C1269.44 204.075 1268.94 202.945 1268.94 201.695C1268.94 201.255 1268.57 200.885 1268.13 200.885C1267.69 200.885 1267.33 201.255 1267.33 201.695C1267.33 205.085 1270.07 207.825 1273.46 207.825C1273.91 207.825 1274.27 207.465 1274.27 207.025C1274.27 206.585 1273.91 206.225 1273.46 206.225Z" fill="#333F4E"/>
</g>
<rect id="Rectangle 34625223_12" x="1253" y="188" width="4" height="89" rx="2" fill="#10182C"/>
<text id="&#208;&#160;&#208;&#176;&#209;&#129;&#209;&#133;&#208;&#190;&#208;&#180; &#208;&#178;&#208;&#190;&#208;&#180;&#209;&#139;_2" fill="#586872" style="white-space: pre" xml:space="preserve" font-family="Bahnschrift" font-size="18" letter-spacing="0em"><tspan x="1293" y="204.291">&#x420;&#x430;&#x441;&#x445;&#x43e;&#x434; &#x432;&#x43e;&#x434;&#x44b;</tspan></text>
<text id="16" fill="#818B98" style="white-space: pre" xml:space="preserve" font-family="Bahnschrift" font-size="50" letter-spacing="0em"><tspan x="1570.67" y="270.697">16</tspan></text>
<g id="&#208;&#188;3/&#209;&#135;_2">
<text fill="#2F3C4B" style="white-space: pre" xml:space="preserve" font-family="Bahnschrift" font-size="24" letter-spacing="0em"><tspan x="1583.34" y="203.555">&#xb3;</tspan></text>
<text fill="#2F3C4B" style="white-space: pre" xml:space="preserve" font-family="Bahnschrift" font-size="24" letter-spacing="0em"><tspan x="1568.16" y="203.555">&#x43c;</tspan><tspan x="1591.41" y="203.555">/&#x447;</tspan></text>
</g>
</g>
<g id="Frame 2131333436">
<rect id="Rectangle 34625222_13" x="1245" y="418" width="380" height="107" rx="13" fill="#141E31"/>
<rect id="Rectangle 34625223_13" x="1253" y="427" width="4" height="89" rx="2" fill="#10182C"/>
<text id="&#208;&#154;&#208;&#190;&#209;&#141;&#209;&#132;&#209;&#132;&#208;&#184;&#209;&#134;&#208;&#184;&#208;&#181;&#208;&#189;&#209;&#130; &#208;&#188;&#208;&#190;&#209;&#137;&#208;&#189;&#208;&#190;&#209;&#129;&#209;&#130;&#208;&#184;" fill="#586872" style="white-space: pre" xml:space="preserve" font-family="Bahnschrift" font-size="18" letter-spacing="0em"><tspan x="1293" y="443.291">&#x41a;&#x43e;&#x44d;&#x444;&#x444;&#x438;&#x446;&#x438;&#x435;&#x43d;&#x442; &#x43c;&#x43e;&#x449;&#x43d;&#x43e;&#x441;&#x442;&#x438;</tspan></text>
<text id="25" fill="#818B98" style="white-space: pre" xml:space="preserve" font-family="Bahnschrift" font-size="50" letter-spacing="0em"><tspan x="1559.92" y="509.697">25</tspan></text>
<text id="cos &#209;&#132;" fill="#2F3C4B" style="white-space: pre" xml:space="preserve" font-family="Bahnschrift" font-size="24" letter-spacing="0em"><tspan x="1552.88" y="442.555">cos &#x444;</tspan></text>
<path id="Vector_33" fill-rule="evenodd" clip-rule="evenodd" d="M1289.41 443.96C1289.41 437.23 1286.73 430.76 1281.97 426L1264 443.96H1289.41Z" fill="#293345" stroke="#394554" stroke-width="0.33" stroke-miterlimit="22.9256"/>
</g>
<g id="Frame 2131333437">
<rect id="Rectangle 34625222_14" x="1245" y="61" width="380" height="107" rx="13" fill="#141E31"/>
<rect id="Rectangle 34625223_14" x="1253" y="70" width="4" height="89" rx="2" fill="#10182C"/>
<text id="&#208;&#154;&#208;&#190;&#209;&#141;&#209;&#132;&#209;&#132;&#208;&#184;&#209;&#134;&#208;&#184;&#208;&#181;&#208;&#189;&#209;&#130; &#208;&#188;&#208;&#190;&#209;&#137;&#208;&#189;&#208;&#190;&#209;&#129;&#209;&#130;&#208;&#184;_2" fill="#586872" style="white-space: pre" xml:space="preserve" font-family="Bahnschrift" font-size="18" letter-spacing="0em"><tspan x="1293" y="86.291">&#x41a;&#x43e;&#x44d;&#x444;&#x444;&#x438;&#x446;&#x438;&#x435;&#x43d;&#x442; &#x43c;&#x43e;&#x449;&#x43d;&#x43e;&#x441;&#x442;&#x438;</tspan></text>
<text id="15" fill="#818B98" style="white-space: pre" xml:space="preserve" font-family="Bahnschrift" font-size="50" letter-spacing="0em"><tspan x="1569.1" y="152.697">15</tspan></text>
<text id="cos &#209;&#132;_2" fill="#2F3C4B" style="white-space: pre" xml:space="preserve" font-family="Bahnschrift" font-size="24" letter-spacing="0em"><tspan x="1552.88" y="85.5547">cos &#x444;</tspan></text>
<path id="Vector_34" fill-rule="evenodd" clip-rule="evenodd" d="M1289.41 86.96C1289.41 80.23 1286.73 73.76 1281.97 69L1264 86.96H1289.41Z" fill="#293345" stroke="#394554" stroke-width="0.33" stroke-miterlimit="22.9256"/>
</g>
<g id="Frame 2131333438">
<rect id="Rectangle 34625222_15" x="852" y="418" width="380" height="107" rx="13" fill="#141E31"/>
<rect id="Rectangle 34625223_15" x="860" y="427" width="4" height="89" rx="2" fill="#10182C"/>
<text id="&#208;&#157;&#208;&#176;&#208;&#191;&#209;&#128;&#209;&#143;&#208;&#182;&#208;&#181;&#208;&#189;&#208;&#184;&#208;&#181;" fill="#586872" style="white-space: pre" xml:space="preserve" font-family="Bahnschrift" font-size="18" letter-spacing="0em"><tspan x="900" y="443.291">&#x41d;&#x430;&#x43f;&#x440;&#x44f;&#x436;&#x435;&#x43d;&#x438;&#x435;</tspan></text>
<text id="23" fill="#818B98" style="white-space: pre" xml:space="preserve" font-family="Bahnschrift" font-size="50" letter-spacing="0em"><tspan x="1167.71" y="509.697">23</tspan></text>
<text id="&#208;&#186;&#208;&#146;" fill="#2F3C4B" style="white-space: pre" xml:space="preserve" font-family="Bahnschrift" font-size="24" letter-spacing="0em"><tspan x="1192.16" y="443.555">&#x43a;&#x412;</tspan></text>
<g id="_2772615846784">
<path id="Vector_35" d="M890.979 444.73L892.759 439.55H894.249L891.509 446.8H890.429L887.699 439.55H889.199L890.979 444.73Z" fill="#586872" fill-opacity="0.501961"/>
<path id="Vector_36" fill-rule="evenodd" clip-rule="evenodd" d="M872 433.97C872 436 872.23 437.64 873.07 439.3C873.41 439.99 873.63 440.4 874.08 441.05C875.02 442.41 876.27 443.5 877.69 444.35C879.37 445.36 881.31 445.89 883.54 445.89C884.35 445.89 884.5 444.49 883.59 444.37L882.34 444.29C880.52 444.04 878.98 443.47 877.55 442.4C877.41 442.3 877.29 442.22 877.17 442.11C875.49 440.69 874.37 438.98 873.83 436.81C873.08 433.81 873.85 430.33 875.85 428.09C876.57 427.28 876.89 426.97 877.79 426.31C879.3 425.21 881.53 424.52 883.45 424.52C885.63 424.52 887.68 425.28 889.41 426.53C890 426.95 890.97 427.91 891.39 428.51C891.96 429.34 892.45 430.13 892.78 431.12C893.3 432.71 893.25 433 893.37 434.54C893.45 435.5 894.9 435.36 894.9 434.54C894.9 430.27 892.78 426.68 889.21 424.54C887.81 423.7 885.72 423 883.83 423H882.97C881.17 423 879.03 423.74 877.69 424.54C875.53 425.84 874.2 427.34 873.08 429.56C872.57 430.57 872 432.48 872 433.97Z" fill="#586872" fill-opacity="0.501961"/>
<path id="Vector_37" fill-rule="evenodd" clip-rule="evenodd" d="M880.4 434.35C880.4 434.73 880.54 435.08 880.94 435.19C881.13 435.24 884.2 435.21 884.55 435.21L883.61 437.42C883.38 437.97 882.69 439.38 882.69 439.88C882.69 440.48 883.73 440.95 884.17 440.08C884.29 439.84 884.4 439.54 884.51 439.28C884.74 438.74 884.94 438.24 885.18 437.71C885.34 437.35 886.5 434.69 886.5 434.54C886.5 433.47 885.55 433.68 884.78 433.68C883.97 433.68 883.16 433.68 882.35 433.68L883.54 430.87C883.75 430.4 883.95 429.94 884.14 429.46C884.57 428.38 883.21 427.87 882.78 428.72C882.51 429.25 880.4 434.23 880.4 434.35Z" fill="#586872" fill-opacity="0.501961"/>
</g>
</g>
<g id="Frame 2131333439">
<rect id="Rectangle 34625222_16" x="852" y="61" width="380" height="107" rx="13" fill="#141E31"/>
<rect id="Rectangle 34625223_16" x="860" y="70" width="4" height="89" rx="2" fill="#10182C"/>
<text id="&#208;&#157;&#208;&#176;&#208;&#191;&#209;&#128;&#209;&#143;&#208;&#182;&#208;&#181;&#208;&#189;&#208;&#184;&#208;&#181;_2" fill="#586872" style="white-space: pre" xml:space="preserve" font-family="Bahnschrift" font-size="18" letter-spacing="0em"><tspan x="900" y="86.291">&#x41d;&#x430;&#x43f;&#x440;&#x44f;&#x436;&#x435;&#x43d;&#x438;&#x435;</tspan></text>
<text id="13" fill="#818B98" style="white-space: pre" xml:space="preserve" font-family="Bahnschrift" font-size="50" letter-spacing="0em"><tspan x="1176.88" y="152.697">13</tspan></text>
<text id="&#208;&#186;&#208;&#146;_2" fill="#2F3C4B" style="white-space: pre" xml:space="preserve" font-family="Bahnschrift" font-size="24" letter-spacing="0em"><tspan x="1192.16" y="86.5547">&#x43a;&#x412;</tspan></text>
<g id="_2772615846784_2">
<path id="Vector_38" d="M890.979 87.73L892.759 82.55H894.249L891.509 89.8H890.429L887.699 82.55H889.199L890.979 87.73Z" fill="#586872" fill-opacity="0.501961"/>
<path id="Vector_39" fill-rule="evenodd" clip-rule="evenodd" d="M872 76.97C872 79 872.23 80.64 873.07 82.3C873.41 82.99 873.63 83.4 874.08 84.05C875.02 85.41 876.27 86.5 877.69 87.35C879.37 88.36 881.31 88.89 883.54 88.89C884.35 88.89 884.5 87.49 883.59 87.37L882.34 87.29C880.52 87.04 878.98 86.47 877.55 85.4C877.41 85.3 877.29 85.22 877.17 85.11C875.49 83.69 874.37 81.98 873.83 79.81C873.08 76.81 873.85 73.33 875.85 71.09C876.57 70.28 876.89 69.97 877.79 69.31C879.3 68.21 881.53 67.52 883.45 67.52C885.63 67.52 887.68 68.28 889.41 69.53C890 69.95 890.97 70.91 891.39 71.51C891.96 72.34 892.45 73.13 892.78 74.12C893.3 75.71 893.25 76 893.37 77.54C893.45 78.5 894.9 78.36 894.9 77.54C894.9 73.27 892.78 69.68 889.21 67.54C887.81 66.7 885.72 66 883.83 66H882.97C881.17 66 879.03 66.74 877.69 67.54C875.53 68.84 874.2 70.34 873.08 72.56C872.57 73.57 872 75.48 872 76.97Z" fill="#586872" fill-opacity="0.501961"/>
<path id="Vector_40" fill-rule="evenodd" clip-rule="evenodd" d="M880.4 77.3501C880.4 77.7301 880.54 78.0801 880.94 78.1901C881.13 78.2401 884.2 78.21 884.55 78.21L883.61 80.4201C883.38 80.9701 882.69 82.3801 882.69 82.8801C882.69 83.4801 883.73 83.95 884.17 83.08C884.29 82.84 884.4 82.54 884.51 82.28C884.74 81.74 884.94 81.24 885.18 80.71C885.34 80.35 886.5 77.6901 886.5 77.5401C886.5 76.4701 885.55 76.6801 884.78 76.6801C883.97 76.6801 883.16 76.6801 882.35 76.6801L883.54 73.8701C883.75 73.4001 883.95 72.94 884.14 72.46C884.57 71.38 883.21 70.87 882.78 71.72C882.51 72.25 880.4 77.2301 880.4 77.3501Z" fill="#586872" fill-opacity="0.501961"/>
</g>
</g>
<g id="Frame 2131333440">
<rect id="Rectangle 34625222_17" x="852" y="536" width="380" height="107" rx="13" fill="#141E31"/>
<g id="Group 1948755514">
<path id="Vector_41" d="M892.29 555.44C890.6 558.16 888.91 560.88 887.22 560.88C885.52 560.88 883.83 558.16 882.14 555.44C880.45 552.72 878.76 550 877.07 550C875.38 550 873.69 552.72 872 555.44" stroke="#586872" stroke-opacity="0.501961" stroke-width="0.33" stroke-miterlimit="22.9256" stroke-linejoin="round"/>
<path id="Vector_42" d="M895.021 555.44C893.331 558.16 891.64 560.88 889.95 560.88C888.26 560.88 886.56 558.16 884.87 555.44C883.18 552.72 881.49 550 879.8 550C878.11 550 876.42 552.72 874.73 555.44" stroke="#586872" stroke-opacity="0.501961" stroke-width="1.32" stroke-miterlimit="22.9256" stroke-linejoin="round"/>
</g>
<rect id="Rectangle 34625223_17" x="860" y="545" width="4" height="89" rx="2" fill="#10182C"/>
<text id="&#208;&#167;&#208;&#176;&#209;&#129;&#209;&#130;&#208;&#190;&#209;&#130;&#208;&#176;" fill="#586872" style="white-space: pre" xml:space="preserve" font-family="Bahnschrift" font-size="18" letter-spacing="0em"><tspan x="900" y="561.291">&#x427;&#x430;&#x441;&#x442;&#x43e;&#x442;&#x430;</tspan></text>
<text id="24" fill="#818B98" style="white-space: pre" xml:space="preserve" font-family="Bahnschrift" font-size="50" letter-spacing="0em"><tspan x="1167.17" y="627.697">24</tspan></text>
<text id="&#208;&#147;&#209;&#134;" fill="#2F3C4B" style="white-space: pre" xml:space="preserve" font-family="Bahnschrift" font-size="24" letter-spacing="0em"><tspan x="1195.31" y="560.555">&#x413;&#x446;</tspan></text>
</g>
<g id="Frame 2131333441">
<rect id="Rectangle 34625222_18" x="852" y="179" width="380" height="107" rx="13" fill="#141E31"/>
<g id="Group 1948755514_2">
<path id="Vector_43" d="M892.29 198.44C890.6 201.16 888.91 203.88 887.22 203.88C885.52 203.88 883.83 201.16 882.14 198.44C880.45 195.72 878.76 193 877.07 193C875.38 193 873.69 195.72 872 198.44" stroke="#586872" stroke-opacity="0.501961" stroke-width="0.33" stroke-miterlimit="22.9256" stroke-linejoin="round"/>
<path id="Vector_44" d="M895.021 198.44C893.331 201.16 891.64 203.88 889.95 203.88C888.26 203.88 886.56 201.16 884.87 198.44C883.18 195.72 881.49 193 879.8 193C878.11 193 876.42 195.72 874.73 198.44" stroke="#586872" stroke-opacity="0.501961" stroke-width="1.32" stroke-miterlimit="22.9256" stroke-linejoin="round"/>
</g>
<rect id="Rectangle 34625223_18" x="860" y="188" width="4" height="89" rx="2" fill="#10182C"/>
<text id="&#208;&#167;&#208;&#176;&#209;&#129;&#209;&#130;&#208;&#190;&#209;&#130;&#208;&#176;_2" fill="#586872" style="white-space: pre" xml:space="preserve" font-family="Bahnschrift" font-size="18" letter-spacing="0em"><tspan x="900" y="204.291">&#x427;&#x430;&#x441;&#x442;&#x43e;&#x442;&#x430;</tspan></text>
<text id="14" fill="#818B98" style="white-space: pre" xml:space="preserve" font-family="Bahnschrift" font-size="50" letter-spacing="0em"><tspan x="1174.88" y="270.697">14</tspan></text>
<text id="&#208;&#147;&#209;&#134;_2" fill="#2F3C4B" style="white-space: pre" xml:space="preserve" font-family="Bahnschrift" font-size="24" letter-spacing="0em"><tspan x="1195.31" y="203.555">&#x413;&#x446;</tspan></text>
</g>
<g id="Frame 2131333442">
<rect id="Rectangle 34625222_19" x="26" y="61" width="380" height="107" rx="13" fill="#141E31"/>
<rect id="Rectangle 34625224_9" x="26" y="61" width="380" height="107" rx="13" fill="#141E31"/>
<rect id="Rectangle 34625223_19" x="34" y="70" width="4" height="89" rx="2" fill="#10182C"/>
<text id="&#208;&#146;&#209;&#139;&#209;&#128;&#208;&#176;&#208;&#177;&#208;&#190;&#209;&#130;&#208;&#186;&#208;&#176;" fill="#586872" style="white-space: pre" xml:space="preserve" font-family="Bahnschrift" font-size="18" letter-spacing="0em"><tspan x="74" y="86.291">&#x412;&#x44b;&#x440;&#x430;&#x431;&#x43e;&#x442;&#x43a;&#x430;</tspan></text>
<text id="51" fill="#818B98" style="white-space: pre" xml:space="preserve" font-family="Bahnschrift" font-size="50" letter-spacing="0em"><tspan x="351.104" y="137.697">51</tspan></text>
<text id="&#208;&#186;&#208;&#146;&#209;&#130;" fill="#2F3C4B" style="white-space: pre" xml:space="preserve" font-family="Bahnschrift" font-size="24" letter-spacing="0em"><tspan x="355.133" y="85.5547">&#x43a;&#x412;&#x442;</tspan></text>
<g id="_2772566376688">
<path id="Vector_45" d="M66.3598 92.6701L62.6098 89.7301L63.3398 88.8001L67.0898 91.7401L66.3598 92.6701ZM62.6299 92.6101C61.9199 92.6101 61.2899 92.4601 60.7599 92.1501C60.2299 91.8501 59.8198 91.4201 59.5298 90.8601C59.2298 90.3001 59.0898 89.6501 59.0898 88.9101V86.0701C59.0898 85.3201 59.2298 84.6701 59.5298 84.1201C59.8198 83.5701 60.2299 83.1401 60.7599 82.8301C61.2899 82.5201 61.9199 82.3701 62.6299 82.3701C63.3399 82.3701 63.9598 82.5201 64.4898 82.8301C65.0198 83.1401 65.4298 83.5701 65.7298 84.1201C66.0198 84.6701 66.1599 85.3201 66.1599 86.0701V88.9101C66.1599 89.6501 66.0198 90.3001 65.7298 90.8601C65.4298 91.4201 65.0198 91.8501 64.4898 92.1501C63.9598 92.4601 63.3399 92.6101 62.6299 92.6101ZM62.6299 91.2201C63.2599 91.2201 63.7598 91.0201 64.1498 90.6001C64.5298 90.1901 64.7198 89.6401 64.7198 88.9601V86.0201C64.7198 85.3401 64.5298 84.7901 64.1498 84.3801C63.7598 83.9701 63.2599 83.7601 62.6299 83.7601C61.9999 83.7601 61.4898 83.9701 61.1098 84.3801C60.7298 84.7901 60.5298 85.3401 60.5298 86.0201V88.9601C60.5298 89.6401 60.7298 90.1901 61.1098 90.6001C61.4898 91.0201 61.9999 91.2201 62.6299 91.2201Z" fill="#586872" fill-opacity="0.501961"/>
<path id="Vector_46" fill-rule="evenodd" clip-rule="evenodd" d="M44 79.83C44 81.84 44.23 83.46 45.05 85.1C45.4 85.79 45.61 86.19 46.06 86.83C46.99 88.17 48.22 89.25 49.62 90.09C51.28 91.08 53.2 91.61 55.4 91.61C56.2 91.61 56.34 90.23 55.45 90.11L54.21 90.02C52.42 89.78 50.89 89.22 49.48 88.16C49.35 88.06 49.23 87.98 49.1 87.88C47.45 86.47 46.35 84.78 45.81 82.64C45.07 79.67 45.83 76.24 47.81 74.03C48.52 73.22 48.83 72.92 49.72 72.27C51.21 71.18 53.41 70.5 55.31 70.5C57.46 70.5 59.48 71.25 61.2 72.48C61.78 72.9 62.74 73.85 63.15 74.44C63.72 75.26 64.2 76.04 64.53 77.02C65.04 78.59 64.99 78.88 65.11 80.4C65.18 81.34 66.62 81.2 66.62 80.4C66.62 76.18 64.53 72.64 61 70.52C59.62 69.69 57.55 69 55.69 69H54.84C53.06 69 50.94 69.73 49.62 70.52C47.49 71.8 46.18 73.29 45.07 75.48C44.57 76.48 44 78.36 44 79.83Z" fill="#586872" fill-opacity="0.501961"/>
<path id="Vector_47" fill-rule="evenodd" clip-rule="evenodd" d="M52.2891 80.2101C52.2891 80.5801 52.439 80.9401 52.829 81.0401C53.019 81.0901 56.049 81.0601 56.389 81.0601L55.4691 83.2501C55.2391 83.7901 54.5591 85.1801 54.5591 85.6801C54.5591 86.2601 55.589 86.7301 56.019 85.8701C56.139 85.6301 56.249 85.3401 56.359 85.0801C56.589 84.5401 56.779 84.0601 57.019 83.5201C57.179 83.1801 58.3191 80.5501 58.3191 80.4001C58.3191 79.3401 57.3791 79.5501 56.6291 79.5501C55.8291 79.5501 55.029 79.5501 54.229 79.5501L55.399 76.7701C55.599 76.3101 55.799 75.8601 55.989 75.3801C56.419 74.3101 55.069 73.8101 54.649 74.6501C54.379 75.1701 52.2891 80.0901 52.2891 80.2101Z" fill="#586872" fill-opacity="0.501961"/>
</g>
<path id="Vector_48" fill-rule="evenodd" clip-rule="evenodd" d="M394.92 154.6V150H44V154.6H394.92Z" fill="url(#paint0_linear_532_9632)"/>
</g>
<text id="&#208;&#145;&#208;&#190;&#208;&#183;&#209;&#129;&#209;&#131;" fill="#333F4E" style="white-space: pre" xml:space="preserve" font-family="Bahnschrift" font-size="32" font-weight="300" letter-spacing="0em"><tspan x="310" y="39.4062">&#x411;&#x43e;&#x437;&#x441;&#x443;</tspan></text>
<text id="&#208;&#147;&#208;&#173;&#208;&#161;-1" fill="#586872" style="white-space: pre" xml:space="preserve" font-family="Bahnschrift" font-size="32" font-weight="300" letter-spacing="0em"><tspan x="36" y="39.4062">&#x413;&#x42d;&#x421;-1</tspan></text>
<text id="&#208;&#159;&#208;&#161; &#226;&#128;&#156;&#208;&#145;&#208;&#190;&#209;&#130;&#208;&#176;&#208;&#189;&#208;&#184;&#209;&#135;&#208;&#181;&#209;&#129;&#208;&#186;&#208;&#176;&#209;&#143;-1&#226;&#128;&#157;" fill="#333F4E" style="white-space: pre" xml:space="preserve" font-family="Bahnschrift" font-size="33" letter-spacing="0em"><tspan x="1200" y="42.7002">&#x41f;&#x421; &#x201c;&#x411;&#x43e;&#x442;&#x430;&#x43d;&#x438;&#x447;&#x435;&#x441;&#x43a;&#x430;&#x44f;-1&#x201d;</tspan></text>
<text id="&#208;&#159;&#208;&#161; &#226;&#128;&#156;&#208;&#145;&#208;&#190;&#209;&#130;&#208;&#176;&#208;&#189;&#208;&#184;&#209;&#135;&#208;&#181;&#209;&#129;&#208;&#186;&#208;&#176;&#209;&#143;-2&#226;&#128;&#157;" fill="#333F4E" style="white-space: pre" xml:space="preserve" font-family="Bahnschrift" font-size="33" letter-spacing="0em"><tspan x="1200" y="398.7">&#x41f;&#x421; &#x201c;&#x411;&#x43e;&#x442;&#x430;&#x43d;&#x438;&#x447;&#x435;&#x441;&#x43a;&#x430;&#x44f;-2&#x201d;</tspan></text>
<text id="35&#208;&#186;&#208;&#146;" fill="#303D4D" style="white-space: pre" xml:space="preserve" font-family="Bahnschrift" font-size="33" letter-spacing="0em"><tspan x="1551" y="42.7002">35&#x43a;&#x412;</tspan></text>
<text id="35&#208;&#186;&#208;&#146;_2" fill="#303D4D" style="white-space: pre" xml:space="preserve" font-family="Bahnschrift" font-size="33" letter-spacing="0em"><tspan x="1551" y="398.7">35&#x43a;&#x412;</tspan></text>
<rect id="Rectangle 34625236" x="424" y="61" width="17" height="916" rx="8.5" fill="#141E31"/>
</g>
<defs>
<filter id="filter0_f_532_9632" x="114" y="712" width="57" height="26" filterUnits="userSpaceOnUse" color-interpolation-filters="sRGB">
<feFlood flood-opacity="0" result="BackgroundImageFix"/>
<feBlend mode="normal" in="SourceGraphic" in2="BackgroundImageFix" result="shape"/>
<feGaussianBlur stdDeviation="2" result="effect1_foregroundBlur_532_9632"/>
</filter>
<filter id="filter1_f_532_9632" x="302" y="712" width="57" height="26" filterUnits="userSpaceOnUse" color-interpolation-filters="sRGB">
<feFlood flood-opacity="0" result="BackgroundImageFix"/>
<feBlend mode="normal" in="SourceGraphic" in2="BackgroundImageFix" result="shape"/>
<feGaussianBlur stdDeviation="2" result="effect1_foregroundBlur_532_9632"/>
</filter>
<linearGradient id="paint0_linear_532_9632" x1="44" y1="152.3" x2="394.92" y2="152.3" gradientUnits="userSpaceOnUse">
<stop stop-color="#0F172B"/>
<stop offset="1" stop-color="#28324A"/>
</linearGradient>
</defs>
</svg>
