<svg width="1651" height="987" viewBox="0 0 1651 987" fill="none" xmlns="http://www.w3.org/2000/svg">
<g id="Frame 2131333627">
<rect id="Rectangle 34625235" width="1651" height="987" fill="#0F172B"/>
<g id="Frame 2131333451">
<rect id="Rectangle 34625222" x="26" y="292" width="380" height="107" rx="13" fill="#141E31"/>
<rect id="Rectangle 34625224" x="26" y="292" width="380" height="107" rx="13" fill="#141E31"/>
<g id="Group 1948755515">
<path id="Vector" fill-rule="evenodd" clip-rule="evenodd" d="M44 311.84C44 313.85 44.23 315.46 45.05 317.1C45.4 317.79 45.62 318.19 46.06 318.83C46.99 320.18 48.22 321.26 49.62 322.1C51.28 323.09 53.2 323.62 55.41 323.62C56.2 323.62 56.35 322.23 55.45 322.12L54.21 322.03C52.42 321.79 50.9 321.23 49.48 320.17C49.35 320.07 49.23 319.99 49.11 319.88C47.45 318.48 46.35 316.79 45.81 314.65C45.07 311.68 45.83 308.25 47.81 306.03C48.52 305.23 48.83 304.93 49.72 304.27C51.22 303.19 53.42 302.51 55.31 302.51C57.46 302.51 59.48 303.26 61.2 304.49C61.78 304.91 62.74 305.86 63.15 306.45C63.72 307.27 64.2 308.05 64.53 309.03C65.04 310.59 64.99 310.89 65.11 312.41C65.19 313.35 66.62 313.21 66.62 312.41C66.62 308.19 64.53 304.64 61 302.53C59.62 301.7 57.55 301 55.69 301H54.84C53.06 301 50.95 301.73 49.62 302.53C47.49 303.81 46.18 305.3 45.07 307.49C44.57 308.49 44 310.37 44 311.84Z" fill="#586872" fill-opacity="0.501961"/>
<path id="Vector_2" fill-rule="evenodd" clip-rule="evenodd" d="M52.3008 312.22C52.3008 312.59 52.4407 312.94 52.8307 313.05C53.0207 313.1 56.0507 313.07 56.3907 313.07L55.4708 315.25C55.2508 315.79 54.5607 317.19 54.5607 317.68C54.5607 318.27 55.5908 318.73 56.0208 317.87C56.1408 317.64 56.2508 317.34 56.3608 317.08C56.5908 316.55 56.7908 316.06 57.0208 315.53C57.1808 315.18 58.3307 312.56 58.3307 312.41C58.3307 311.34 57.3907 311.56 56.6307 311.56C55.8307 311.56 55.0308 311.56 54.2308 311.56L55.4008 308.78C55.6008 308.32 55.8008 307.86 55.9908 307.39C56.4208 306.32 55.0808 305.82 54.6508 306.66C54.3808 307.18 52.3008 312.1 52.3008 312.22Z" fill="#586872" fill-opacity="0.501961"/>
<path id="Vector_3" d="M60.269 320.63V319.29H63.4891C63.9491 319.29 64.3191 319.13 64.5991 318.81C64.8791 318.49 65.019 318.08 65.019 317.56C65.019 317.04 64.8791 316.62 64.5991 316.3C64.3191 315.98 63.9491 315.82 63.4891 315.82H60.269V314.48H63.439C64.049 314.48 64.5791 314.61 65.0291 314.87C65.4891 315.12 65.8391 315.48 66.0891 315.94C66.3391 316.4 66.4691 316.94 66.4691 317.56C66.4691 318.18 66.3391 318.71 66.0891 319.17C65.8391 319.64 65.4891 319.99 65.0291 320.25C64.5791 320.5 64.049 320.63 63.439 320.63H60.269ZM59.5391 324.52V314.48H60.949V324.52H59.5391Z" fill="#F4AC4F" fill-opacity="0.501961"/>
</g>
<rect id="Rectangle 34625223" x="34" y="301" width="4" height="89" rx="2" fill="#10182C"/>
<text id="&#208;&#160;&#208;&#181;&#208;&#176;&#208;&#186;&#209;&#130;&#208;&#184;&#208;&#178;&#208;&#189;&#208;&#176;&#209;&#143; &#208;&#188;&#208;&#190;&#209;&#137;&#208;&#189;&#208;&#190;&#209;&#129;&#209;&#130;&#209;&#140;" fill="#586872" style="white-space: pre" xml:space="preserve" font-family="Bahnschrift" font-size="18" letter-spacing="0em"><tspan x="74" y="317.291">&#x420;&#x435;&#x430;&#x43a;&#x442;&#x438;&#x432;&#x43d;&#x430;&#x44f; &#x43c;&#x43e;&#x449;&#x43d;&#x43e;&#x441;&#x442;&#x44c;</tspan></text>
<text id="113" fill="#818B98" style="white-space: pre" xml:space="preserve" font-family="Bahnschrift" font-size="50" letter-spacing="0em"><tspan x="335.234" y="383.697">113</tspan></text>
<text id="&#208;&#186;&#208;&#146;&#208;&#144;&#209;&#128;&#226;&#128;&#162;&#209;&#135;" fill="#2F3C4B" style="white-space: pre" xml:space="preserve" font-family="Bahnschrift" font-size="24" letter-spacing="0em"><tspan x="318.758" y="316.555">&#x43a;&#x412;&#x410;&#x440;&#x2022;&#x447;</tspan></text>
</g>
<g id="Frame 2131333452">
<rect id="Rectangle 34625222_2" x="432" y="292" width="380" height="107" rx="13" fill="#141E31"/>
<rect id="Rectangle 34625224_2" x="432" y="292" width="380" height="107" rx="13" fill="#141E31"/>
<g id="Group 1948755515_2">
<path id="Vector_4" fill-rule="evenodd" clip-rule="evenodd" d="M450 311.84C450 313.85 450.23 315.46 451.05 317.1C451.4 317.79 451.62 318.19 452.06 318.83C452.99 320.18 454.22 321.26 455.62 322.1C457.28 323.09 459.2 323.62 461.41 323.62C462.2 323.62 462.35 322.23 461.45 322.12L460.21 322.03C458.42 321.79 456.9 321.23 455.48 320.17C455.35 320.07 455.23 319.99 455.11 319.88C453.45 318.48 452.35 316.79 451.81 314.65C451.07 311.68 451.83 308.25 453.81 306.03C454.52 305.23 454.83 304.93 455.72 304.27C457.22 303.19 459.42 302.51 461.31 302.51C463.46 302.51 465.48 303.26 467.2 304.49C467.78 304.91 468.74 305.86 469.15 306.45C469.72 307.27 470.2 308.05 470.53 309.03C471.04 310.59 470.99 310.89 471.11 312.41C471.19 313.35 472.62 313.21 472.62 312.41C472.62 308.19 470.53 304.64 467 302.53C465.62 301.7 463.55 301 461.69 301H460.84C459.06 301 456.95 301.73 455.62 302.53C453.49 303.81 452.18 305.3 451.07 307.49C450.57 308.49 450 310.37 450 311.84Z" fill="#586872" fill-opacity="0.501961"/>
<path id="Vector_5" fill-rule="evenodd" clip-rule="evenodd" d="M458.301 312.22C458.301 312.59 458.441 312.94 458.831 313.05C459.021 313.1 462.051 313.07 462.391 313.07L461.471 315.25C461.251 315.79 460.561 317.19 460.561 317.68C460.561 318.27 461.591 318.73 462.021 317.87C462.141 317.64 462.251 317.34 462.361 317.08C462.591 316.55 462.791 316.06 463.021 315.53C463.181 315.18 464.331 312.56 464.331 312.41C464.331 311.34 463.391 311.56 462.631 311.56C461.831 311.56 461.031 311.56 460.231 311.56L461.401 308.78C461.601 308.32 461.801 307.86 461.991 307.39C462.421 306.32 461.081 305.82 460.651 306.66C460.381 307.18 458.301 312.1 458.301 312.22Z" fill="#586872" fill-opacity="0.501961"/>
<path id="Vector_6" d="M466.269 320.63V319.29H469.489C469.949 319.29 470.319 319.13 470.599 318.81C470.879 318.49 471.019 318.08 471.019 317.56C471.019 317.04 470.879 316.62 470.599 316.3C470.319 315.98 469.949 315.82 469.489 315.82H466.269V314.48H469.439C470.049 314.48 470.579 314.61 471.029 314.87C471.489 315.12 471.839 315.48 472.089 315.94C472.339 316.4 472.469 316.94 472.469 317.56C472.469 318.18 472.339 318.71 472.089 319.17C471.839 319.64 471.489 319.99 471.029 320.25C470.579 320.5 470.049 320.63 469.439 320.63H466.269ZM465.539 324.52V314.48H466.949V324.52H465.539Z" fill="#F4AC4F" fill-opacity="0.501961"/>
</g>
<rect id="Rectangle 34625223_2" x="440" y="301" width="4" height="89" rx="2" fill="#10182C"/>
<text id="&#208;&#160;&#208;&#181;&#208;&#176;&#208;&#186;&#209;&#130;&#208;&#184;&#208;&#178;&#208;&#189;&#208;&#176;&#209;&#143; &#208;&#188;&#208;&#190;&#209;&#137;&#208;&#189;&#208;&#190;&#209;&#129;&#209;&#130;&#209;&#140;_2" fill="#586872" style="white-space: pre" xml:space="preserve" font-family="Bahnschrift" font-size="18" letter-spacing="0em"><tspan x="480" y="317.291">&#x420;&#x435;&#x430;&#x43a;&#x442;&#x438;&#x432;&#x43d;&#x430;&#x44f; &#x43c;&#x43e;&#x449;&#x43d;&#x43e;&#x441;&#x442;&#x44c;</tspan></text>
<text id="0.00" fill="#2F3C4B" style="white-space: pre" xml:space="preserve" font-family="Bahnschrift" font-size="50" letter-spacing="0em"><tspan x="709.814" y="383.697">0.00</tspan></text>
<text id="&#208;&#186;&#208;&#146;&#208;&#144;&#209;&#128;&#226;&#128;&#162;&#209;&#135;_2" fill="#2F3C4B" style="white-space: pre" xml:space="preserve" font-family="Bahnschrift" font-size="24" letter-spacing="0em"><tspan x="724.758" y="316.555">&#x43a;&#x412;&#x410;&#x440;&#x2022;&#x447;</tspan></text>
</g>
<g id="Frame 2131333453">
<rect id="Rectangle 34625222_3" x="838" y="292" width="380" height="107" rx="13" fill="#141E31"/>
<rect id="Rectangle 34625224_3" x="838" y="292" width="380" height="107" rx="13" fill="#141E31"/>
<g id="Group 1948755515_3">
<path id="Vector_7" fill-rule="evenodd" clip-rule="evenodd" d="M856 311.84C856 313.85 856.23 315.46 857.05 317.1C857.4 317.79 857.62 318.19 858.06 318.83C858.99 320.18 860.22 321.26 861.62 322.1C863.28 323.09 865.2 323.62 867.41 323.62C868.2 323.62 868.35 322.23 867.45 322.12L866.21 322.03C864.42 321.79 862.9 321.23 861.48 320.17C861.35 320.07 861.23 319.99 861.11 319.88C859.45 318.48 858.35 316.79 857.81 314.65C857.07 311.68 857.83 308.25 859.81 306.03C860.52 305.23 860.83 304.93 861.72 304.27C863.22 303.19 865.42 302.51 867.31 302.51C869.46 302.51 871.48 303.26 873.2 304.49C873.78 304.91 874.74 305.86 875.15 306.45C875.72 307.27 876.2 308.05 876.53 309.03C877.04 310.59 876.99 310.89 877.11 312.41C877.19 313.35 878.62 313.21 878.62 312.41C878.62 308.19 876.53 304.64 873 302.53C871.62 301.7 869.55 301 867.69 301H866.84C865.06 301 862.95 301.73 861.62 302.53C859.49 303.81 858.18 305.3 857.07 307.49C856.57 308.49 856 310.37 856 311.84Z" fill="#586872" fill-opacity="0.501961"/>
<path id="Vector_8" fill-rule="evenodd" clip-rule="evenodd" d="M864.301 312.22C864.301 312.59 864.441 312.94 864.831 313.05C865.021 313.1 868.051 313.07 868.391 313.07L867.471 315.25C867.251 315.79 866.561 317.19 866.561 317.68C866.561 318.27 867.591 318.73 868.021 317.87C868.141 317.64 868.251 317.34 868.361 317.08C868.591 316.55 868.791 316.06 869.021 315.53C869.181 315.18 870.331 312.56 870.331 312.41C870.331 311.34 869.391 311.56 868.631 311.56C867.831 311.56 867.031 311.56 866.231 311.56L867.401 308.78C867.601 308.32 867.801 307.86 867.991 307.39C868.421 306.32 867.081 305.82 866.651 306.66C866.381 307.18 864.301 312.1 864.301 312.22Z" fill="#586872" fill-opacity="0.501961"/>
<path id="Vector_9" d="M872.269 320.63V319.29H875.489C875.949 319.29 876.319 319.13 876.599 318.81C876.879 318.49 877.019 318.08 877.019 317.56C877.019 317.04 876.879 316.62 876.599 316.3C876.319 315.98 875.949 315.82 875.489 315.82H872.269V314.48H875.439C876.049 314.48 876.579 314.61 877.029 314.87C877.489 315.12 877.839 315.48 878.089 315.94C878.339 316.4 878.469 316.94 878.469 317.56C878.469 318.18 878.339 318.71 878.089 319.17C877.839 319.64 877.489 319.99 877.029 320.25C876.579 320.5 876.049 320.63 875.439 320.63H872.269ZM871.539 324.52V314.48H872.949V324.52H871.539Z" fill="#F4AC4F" fill-opacity="0.501961"/>
</g>
<rect id="Rectangle 34625223_3" x="846" y="301" width="4" height="89" rx="2" fill="#10182C"/>
<text id="&#208;&#160;&#208;&#181;&#208;&#176;&#208;&#186;&#209;&#130;&#208;&#184;&#208;&#178;&#208;&#189;&#208;&#176;&#209;&#143; &#208;&#188;&#208;&#190;&#209;&#137;&#208;&#189;&#208;&#190;&#209;&#129;&#209;&#130;&#209;&#140;_3" fill="#586872" style="white-space: pre" xml:space="preserve" font-family="Bahnschrift" font-size="18" letter-spacing="0em"><tspan x="886" y="317.291">&#x420;&#x435;&#x430;&#x43a;&#x442;&#x438;&#x432;&#x43d;&#x430;&#x44f; &#x43c;&#x43e;&#x449;&#x43d;&#x43e;&#x441;&#x442;&#x44c;</tspan></text>
<text id="0.00_2" fill="#2F3C4B" style="white-space: pre" xml:space="preserve" font-family="Bahnschrift" font-size="50" letter-spacing="0em"><tspan x="1115.81" y="383.697">0.00</tspan></text>
<text id="&#208;&#186;&#208;&#146;&#208;&#144;&#209;&#128;&#226;&#128;&#162;&#209;&#135;_3" fill="#2F3C4B" style="white-space: pre" xml:space="preserve" font-family="Bahnschrift" font-size="24" letter-spacing="0em"><tspan x="1130.76" y="316.555">&#x43a;&#x412;&#x410;&#x440;&#x2022;&#x447;</tspan></text>
</g>
<g id="Frame 2131333454">
<rect id="Rectangle 34625222_4" x="1244" y="292" width="380" height="107" rx="13" fill="#141E31"/>
<rect id="Rectangle 34625224_4" x="1244" y="292" width="380" height="107" rx="13" fill="#141E31"/>
<g id="Group 1948755515_4">
<path id="Vector_10" fill-rule="evenodd" clip-rule="evenodd" d="M1262 311.84C1262 313.85 1262.23 315.46 1263.05 317.1C1263.4 317.79 1263.62 318.19 1264.06 318.83C1264.99 320.18 1266.22 321.26 1267.62 322.1C1269.28 323.09 1271.2 323.62 1273.41 323.62C1274.2 323.62 1274.35 322.23 1273.45 322.12L1272.21 322.03C1270.42 321.79 1268.9 321.23 1267.48 320.17C1267.35 320.07 1267.23 319.99 1267.11 319.88C1265.45 318.48 1264.35 316.79 1263.81 314.65C1263.07 311.68 1263.83 308.25 1265.81 306.03C1266.52 305.23 1266.83 304.93 1267.72 304.27C1269.22 303.19 1271.42 302.51 1273.31 302.51C1275.46 302.51 1277.48 303.26 1279.2 304.49C1279.78 304.91 1280.74 305.86 1281.15 306.45C1281.72 307.27 1282.2 308.05 1282.53 309.03C1283.04 310.59 1282.99 310.89 1283.11 312.41C1283.19 313.35 1284.62 313.21 1284.62 312.41C1284.62 308.19 1282.53 304.64 1279 302.53C1277.62 301.7 1275.55 301 1273.69 301H1272.84C1271.06 301 1268.95 301.73 1267.62 302.53C1265.49 303.81 1264.18 305.3 1263.07 307.49C1262.57 308.49 1262 310.37 1262 311.84Z" fill="#586872" fill-opacity="0.501961"/>
<path id="Vector_11" fill-rule="evenodd" clip-rule="evenodd" d="M1270.3 312.22C1270.3 312.59 1270.44 312.94 1270.83 313.05C1271.02 313.1 1274.05 313.07 1274.39 313.07L1273.47 315.25C1273.25 315.79 1272.56 317.19 1272.56 317.68C1272.56 318.27 1273.59 318.73 1274.02 317.87C1274.14 317.64 1274.25 317.34 1274.36 317.08C1274.59 316.55 1274.79 316.06 1275.02 315.53C1275.18 315.18 1276.33 312.56 1276.33 312.41C1276.33 311.34 1275.39 311.56 1274.63 311.56C1273.83 311.56 1273.03 311.56 1272.23 311.56L1273.4 308.78C1273.6 308.32 1273.8 307.86 1273.99 307.39C1274.42 306.32 1273.08 305.82 1272.65 306.66C1272.38 307.18 1270.3 312.1 1270.3 312.22Z" fill="#586872" fill-opacity="0.501961"/>
<path id="Vector_12" d="M1278.27 320.63V319.29H1281.49C1281.95 319.29 1282.32 319.13 1282.6 318.81C1282.88 318.49 1283.02 318.08 1283.02 317.56C1283.02 317.04 1282.88 316.62 1282.6 316.3C1282.32 315.98 1281.95 315.82 1281.49 315.82H1278.27V314.48H1281.44C1282.05 314.48 1282.58 314.61 1283.03 314.87C1283.49 315.12 1283.84 315.48 1284.09 315.94C1284.34 316.4 1284.47 316.94 1284.47 317.56C1284.47 318.18 1284.34 318.71 1284.09 319.17C1283.84 319.64 1283.49 319.99 1283.03 320.25C1282.58 320.5 1282.05 320.63 1281.44 320.63H1278.27ZM1277.54 324.52V314.48H1278.95V324.52H1277.54Z" fill="#F4AC4F" fill-opacity="0.501961"/>
</g>
<rect id="Rectangle 34625223_4" x="1252" y="301" width="4" height="89" rx="2" fill="#10182C"/>
<text id="&#208;&#160;&#208;&#181;&#208;&#176;&#208;&#186;&#209;&#130;&#208;&#184;&#208;&#178;&#208;&#189;&#208;&#176;&#209;&#143; &#208;&#188;&#208;&#190;&#209;&#137;&#208;&#189;&#208;&#190;&#209;&#129;&#209;&#130;&#209;&#140;_4" fill="#586872" style="white-space: pre" xml:space="preserve" font-family="Bahnschrift" font-size="18" letter-spacing="0em"><tspan x="1292" y="317.291">&#x420;&#x435;&#x430;&#x43a;&#x442;&#x438;&#x432;&#x43d;&#x430;&#x44f; &#x43c;&#x43e;&#x449;&#x43d;&#x43e;&#x441;&#x442;&#x44c;</tspan></text>
<text id="0.00_3" fill="#2F3C4B" style="white-space: pre" xml:space="preserve" font-family="Bahnschrift" font-size="50" letter-spacing="0em"><tspan x="1521.81" y="383.697">0.00</tspan></text>
<text id="&#208;&#186;&#208;&#146;&#208;&#144;&#209;&#128;&#226;&#128;&#162;&#209;&#135;_4" fill="#2F3C4B" style="white-space: pre" xml:space="preserve" font-family="Bahnschrift" font-size="24" letter-spacing="0em"><tspan x="1536.76" y="316.555">&#x43a;&#x412;&#x410;&#x440;&#x2022;&#x447;</tspan></text>
</g>
<g id="Frame 2131333455">
<rect id="Rectangle 34625222_5" x="26" y="413" width="380" height="107" rx="13" fill="#141E31"/>
<rect id="Rectangle 34625224_5" x="26" y="413" width="380" height="107" rx="13" fill="#141E31"/>
<rect id="Rectangle 34625223_5" x="34" y="422" width="4" height="89" rx="2" fill="#10182C"/>
<text id="&#208;&#163;&#209;&#128;&#208;&#190;&#208;&#178;&#208;&#181;&#208;&#189;&#209;&#140; &#208;&#178;&#208;&#181;&#209;&#128;&#209;&#133;&#208;&#189;&#208;&#181;&#208;&#179;&#208;&#190; &#208;&#177;&#209;&#138;&#208;&#181;&#209;&#132;&#208;&#176;" fill="#586872" style="white-space: pre" xml:space="preserve" font-family="Bahnschrift" font-size="18" letter-spacing="0em"><tspan x="74" y="438.291">&#x423;&#x440;&#x43e;&#x432;&#x435;&#x43d;&#x44c; &#x432;&#x435;&#x440;&#x445;&#x43d;&#x435;&#x433;&#x43e; &#x431;&#x44a;&#x435;&#x444;&#x430;</tspan></text>
<text id="114" fill="#818B98" style="white-space: pre" xml:space="preserve" font-family="Bahnschrift" font-size="50" letter-spacing="0em"><tspan x="333.232" y="504.697">114</tspan></text>
<text id="&#208;&#188;" fill="#2F3C4B" style="white-space: pre" xml:space="preserve" font-family="Bahnschrift" font-size="24" letter-spacing="0em"><tspan x="379.812" y="437.555">&#x43c;</tspan></text>
<g id="_2772566396896">
<path id="Vector_13" d="M59.5491 434.66H59.1191C59.1191 435.71 58.6891 436.66 57.9991 437.36C57.3091 438.05 56.3591 438.47 55.2991 438.47C54.2491 438.47 53.2991 438.05 52.6091 437.36C51.9191 436.66 51.4891 435.71 51.4891 434.66C51.4891 434.02 51.7291 433.27 52.1091 432.51C52.6791 431.37 53.5491 430.23 54.2891 429.38C54.6491 428.95 54.9791 428.6 55.2191 428.35C55.3391 428.23 55.4391 428.13 55.4991 428.07C55.5291 428.04 55.5591 428.01 55.5791 427.99L55.5991 427.98V427.97L55.2991 427.66L55.0091 427.97L55.0191 427.98C55.1291 428.09 56.1791 429.11 57.1791 430.44C57.6791 431.11 58.1791 431.85 58.5391 432.59C58.8991 433.32 59.1191 434.04 59.1191 434.66H59.5491H59.9891C59.9791 433.82 59.6891 432.96 59.2791 432.13C58.6491 430.88 57.7391 429.7 56.9791 428.81C56.2191 427.93 55.6091 427.35 55.5991 427.35C55.4391 427.19 55.1691 427.19 55.0091 427.35C54.9991 427.36 53.9191 428.38 52.8391 429.79C52.2991 430.49 51.7491 431.29 51.3291 432.12C50.9191 432.96 50.6291 433.81 50.6191 434.66C50.6191 437.24 52.7191 439.34 55.2991 439.34C57.8891 439.34 59.9891 437.24 59.9891 434.66H59.5491Z" fill="#586872" fill-opacity="0.501961"/>
<path id="Vector_14" d="M60.1992 440.15L63.1192 437.26M63.1192 437.26V444.57M63.1192 437.26L66.0392 440.15" stroke="#05C095" stroke-opacity="0.501961" stroke-width="1.32" stroke-miterlimit="22.9256" stroke-linecap="round" stroke-linejoin="round"/>
<path id="Vector_15" fill-rule="evenodd" clip-rule="evenodd" d="M44 432.83C44 434.84 44.23 436.46 45.05 438.09C45.39 438.78 45.61 439.19 46.05 439.82C46.98 441.17 48.22 442.25 49.62 443.09C51.28 444.08 53.19 444.61 55.4 444.61C56.19 444.61 56.34 443.22 55.44 443.11L54.21 443.02C52.41 442.78 50.89 442.22 49.48 441.16C49.34 441.06 49.22 440.98 49.1 440.87C47.45 439.47 46.34 437.78 45.81 435.64C45.06 432.67 45.82 429.24 47.8 427.02C48.51 426.22 48.82 425.92 49.72 425.27C51.21 424.18 53.41 423.5 55.3 423.5C57.45 423.5 59.48 424.25 61.19 425.48C61.78 425.9 62.74 426.85 63.15 427.44C63.71 428.26 64.2 429.04 64.52 430.02C65.04 431.59 64.98 431.88 65.1 433.4C65.18 434.34 66.61 434.2 66.61 433.4C66.61 429.18 64.52 425.64 60.99 423.52C59.62 422.69 57.55 422 55.68 422H54.83C53.05 422 50.94 422.73 49.62 423.52C47.48 424.8 46.17 426.29 45.06 428.48C44.56 429.48 44 431.36 44 432.83Z" fill="#586872" fill-opacity="0.501961"/>
<path id="Vector_16" fill-rule="evenodd" clip-rule="evenodd" d="M52.2793 434.66C52.2793 435.71 52.6593 436.66 53.2793 437.35C53.8993 438.05 54.7493 438.47 55.6993 438.47C56.6393 438.47 57.4993 438.05 58.1193 437.35C58.7393 436.66 59.1193 435.71 59.1193 434.66C59.1193 434.04 58.9193 433.32 58.5993 432.58C58.2693 431.85 57.8293 431.11 57.3793 430.44C56.7293 429.48 56.0593 428.68 55.6993 428.27C55.6793 428.3 55.6493 428.32 55.6293 428.35C55.4093 428.6 55.1093 428.95 54.7893 429.38C54.1293 430.23 53.3393 431.37 52.8293 432.51C52.4893 433.27 52.2793 434.02 52.2793 434.66Z" fill="#586872" fill-opacity="0.501961"/>
</g>
</g>
<g id="Frame 2131333456">
<rect id="Rectangle 34625222_6" x="432" y="413" width="380" height="107" rx="13" fill="#141E31"/>
<rect id="Rectangle 34625224_6" x="432" y="413" width="380" height="107" rx="13" fill="#141E31"/>
<rect id="Rectangle 34625223_6" x="440" y="422" width="4" height="89" rx="2" fill="#10182C"/>
<text id="&#208;&#163;&#209;&#128;&#208;&#190;&#208;&#178;&#208;&#181;&#208;&#189;&#209;&#140; &#208;&#178;&#208;&#181;&#209;&#128;&#209;&#133;&#208;&#189;&#208;&#181;&#208;&#179;&#208;&#190; &#208;&#177;&#209;&#138;&#208;&#181;&#209;&#132;&#208;&#176;_2" fill="#586872" style="white-space: pre" xml:space="preserve" font-family="Bahnschrift" font-size="18" letter-spacing="0em"><tspan x="480" y="438.291">&#x423;&#x440;&#x43e;&#x432;&#x435;&#x43d;&#x44c; &#x432;&#x435;&#x440;&#x445;&#x43d;&#x435;&#x433;&#x43e; &#x431;&#x44a;&#x435;&#x444;&#x430;</tspan></text>
<text id="0.00_4" fill="#2F3C4B" style="white-space: pre" xml:space="preserve" font-family="Bahnschrift" font-size="50" letter-spacing="0em"><tspan x="709.814" y="504.697">0.00</tspan></text>
<text id="&#208;&#188;_2" fill="#2F3C4B" style="white-space: pre" xml:space="preserve" font-family="Bahnschrift" font-size="24" letter-spacing="0em"><tspan x="785.812" y="437.555">&#x43c;</tspan></text>
<g id="_2772566396896_2">
<path id="Vector_17" d="M465.549 434.66H465.119C465.119 435.71 464.689 436.66 463.999 437.36C463.309 438.05 462.359 438.47 461.299 438.47C460.249 438.47 459.299 438.05 458.609 437.36C457.919 436.66 457.489 435.71 457.489 434.66C457.489 434.02 457.729 433.27 458.109 432.51C458.679 431.37 459.549 430.23 460.289 429.38C460.649 428.95 460.979 428.6 461.219 428.35C461.339 428.23 461.439 428.13 461.499 428.07C461.529 428.04 461.559 428.01 461.579 427.99L461.599 427.98V427.97L461.299 427.66L461.009 427.97L461.019 427.98C461.129 428.09 462.179 429.11 463.179 430.44C463.679 431.11 464.179 431.85 464.539 432.59C464.899 433.32 465.119 434.04 465.119 434.66H465.549H465.989C465.979 433.82 465.689 432.96 465.279 432.13C464.649 430.88 463.739 429.7 462.979 428.81C462.219 427.93 461.609 427.35 461.599 427.35C461.439 427.19 461.169 427.19 461.009 427.35C460.999 427.36 459.919 428.38 458.839 429.79C458.299 430.49 457.749 431.29 457.329 432.12C456.919 432.96 456.629 433.81 456.619 434.66C456.619 437.24 458.719 439.34 461.299 439.34C463.889 439.34 465.989 437.24 465.989 434.66H465.549Z" fill="#586872" fill-opacity="0.501961"/>
<path id="Vector_18" d="M466.199 440.15L469.119 437.26M469.119 437.26V444.57M469.119 437.26L472.039 440.15" stroke="#05C095" stroke-opacity="0.501961" stroke-width="1.32" stroke-miterlimit="22.9256" stroke-linecap="round" stroke-linejoin="round"/>
<path id="Vector_19" fill-rule="evenodd" clip-rule="evenodd" d="M450 432.83C450 434.84 450.23 436.46 451.05 438.09C451.39 438.78 451.61 439.19 452.05 439.82C452.98 441.17 454.22 442.25 455.62 443.09C457.28 444.08 459.19 444.61 461.4 444.61C462.19 444.61 462.34 443.22 461.44 443.11L460.21 443.02C458.41 442.78 456.89 442.22 455.48 441.16C455.34 441.06 455.22 440.98 455.1 440.87C453.45 439.47 452.34 437.78 451.81 435.64C451.06 432.67 451.82 429.24 453.8 427.02C454.51 426.22 454.82 425.92 455.72 425.27C457.21 424.18 459.41 423.5 461.3 423.5C463.45 423.5 465.48 424.25 467.19 425.48C467.78 425.9 468.74 426.85 469.15 427.44C469.71 428.26 470.2 429.04 470.52 430.02C471.04 431.59 470.98 431.88 471.1 433.4C471.18 434.34 472.61 434.2 472.61 433.4C472.61 429.18 470.52 425.64 466.99 423.52C465.62 422.69 463.55 422 461.68 422H460.83C459.05 422 456.94 422.73 455.62 423.52C453.48 424.8 452.17 426.29 451.06 428.48C450.56 429.48 450 431.36 450 432.83Z" fill="#586872" fill-opacity="0.501961"/>
<path id="Vector_20" fill-rule="evenodd" clip-rule="evenodd" d="M458.279 434.66C458.279 435.71 458.659 436.66 459.279 437.35C459.899 438.05 460.749 438.47 461.699 438.47C462.639 438.47 463.499 438.05 464.119 437.35C464.739 436.66 465.119 435.71 465.119 434.66C465.119 434.04 464.919 433.32 464.599 432.58C464.269 431.85 463.829 431.11 463.379 430.44C462.729 429.48 462.059 428.68 461.699 428.27C461.679 428.3 461.649 428.32 461.629 428.35C461.409 428.6 461.109 428.95 460.789 429.38C460.129 430.23 459.339 431.37 458.829 432.51C458.489 433.27 458.279 434.02 458.279 434.66Z" fill="#586872" fill-opacity="0.501961"/>
</g>
</g>
<g id="Frame 2131333457">
<rect id="Rectangle 34625222_7" x="838" y="413" width="380" height="107" rx="13" fill="#141E31"/>
<rect id="Rectangle 34625224_7" x="838" y="413" width="380" height="107" rx="13" fill="#141E31"/>
<rect id="Rectangle 34625223_7" x="846" y="422" width="4" height="89" rx="2" fill="#10182C"/>
<text id="&#208;&#163;&#209;&#128;&#208;&#190;&#208;&#178;&#208;&#181;&#208;&#189;&#209;&#140; &#208;&#178;&#208;&#181;&#209;&#128;&#209;&#133;&#208;&#189;&#208;&#181;&#208;&#179;&#208;&#190; &#208;&#177;&#209;&#138;&#208;&#181;&#209;&#132;&#208;&#176;_3" fill="#586872" style="white-space: pre" xml:space="preserve" font-family="Bahnschrift" font-size="18" letter-spacing="0em"><tspan x="886" y="438.291">&#x423;&#x440;&#x43e;&#x432;&#x435;&#x43d;&#x44c; &#x432;&#x435;&#x440;&#x445;&#x43d;&#x435;&#x433;&#x43e; &#x431;&#x44a;&#x435;&#x444;&#x430;</tspan></text>
<text id="0.00_5" fill="#2F3C4B" style="white-space: pre" xml:space="preserve" font-family="Bahnschrift" font-size="50" letter-spacing="0em"><tspan x="1115.81" y="504.697">0.00</tspan></text>
<text id="&#208;&#188;_3" fill="#2F3C4B" style="white-space: pre" xml:space="preserve" font-family="Bahnschrift" font-size="24" letter-spacing="0em"><tspan x="1191.81" y="437.555">&#x43c;</tspan></text>
<g id="_2772566396896_3">
<path id="Vector_21" d="M871.549 434.66H871.119C871.119 435.71 870.689 436.66 869.999 437.36C869.309 438.05 868.359 438.47 867.299 438.47C866.249 438.47 865.299 438.05 864.609 437.36C863.919 436.66 863.489 435.71 863.489 434.66C863.489 434.02 863.729 433.27 864.109 432.51C864.679 431.37 865.549 430.23 866.289 429.38C866.649 428.95 866.979 428.6 867.219 428.35C867.339 428.23 867.439 428.13 867.499 428.07C867.529 428.04 867.559 428.01 867.579 427.99L867.599 427.98V427.97L867.299 427.66L867.009 427.97L867.019 427.98C867.129 428.09 868.179 429.11 869.179 430.44C869.679 431.11 870.179 431.85 870.539 432.59C870.899 433.32 871.119 434.04 871.119 434.66H871.549H871.989C871.979 433.82 871.689 432.96 871.279 432.13C870.649 430.88 869.739 429.7 868.979 428.81C868.219 427.93 867.609 427.35 867.599 427.35C867.439 427.19 867.169 427.19 867.009 427.35C866.999 427.36 865.919 428.38 864.839 429.79C864.299 430.49 863.749 431.29 863.329 432.12C862.919 432.96 862.629 433.81 862.619 434.66C862.619 437.24 864.719 439.34 867.299 439.34C869.889 439.34 871.989 437.24 871.989 434.66H871.549Z" fill="#586872" fill-opacity="0.501961"/>
<path id="Vector_22" d="M872.199 440.15L875.119 437.26M875.119 437.26V444.57M875.119 437.26L878.039 440.15" stroke="#05C095" stroke-opacity="0.501961" stroke-width="1.32" stroke-miterlimit="22.9256" stroke-linecap="round" stroke-linejoin="round"/>
<path id="Vector_23" fill-rule="evenodd" clip-rule="evenodd" d="M856 432.83C856 434.84 856.23 436.46 857.05 438.09C857.39 438.78 857.61 439.19 858.05 439.82C858.98 441.17 860.22 442.25 861.62 443.09C863.28 444.08 865.19 444.61 867.4 444.61C868.19 444.61 868.34 443.22 867.44 443.11L866.21 443.02C864.41 442.78 862.89 442.22 861.48 441.16C861.34 441.06 861.22 440.98 861.1 440.87C859.45 439.47 858.34 437.78 857.81 435.64C857.06 432.67 857.82 429.24 859.8 427.02C860.51 426.22 860.82 425.92 861.72 425.27C863.21 424.18 865.41 423.5 867.3 423.5C869.45 423.5 871.48 424.25 873.19 425.48C873.78 425.9 874.74 426.85 875.15 427.44C875.71 428.26 876.2 429.04 876.52 430.02C877.04 431.59 876.98 431.88 877.1 433.4C877.18 434.34 878.61 434.2 878.61 433.4C878.61 429.18 876.52 425.64 872.99 423.52C871.62 422.69 869.55 422 867.68 422H866.83C865.05 422 862.94 422.73 861.62 423.52C859.48 424.8 858.17 426.29 857.06 428.48C856.56 429.48 856 431.36 856 432.83Z" fill="#586872" fill-opacity="0.501961"/>
<path id="Vector_24" fill-rule="evenodd" clip-rule="evenodd" d="M864.279 434.66C864.279 435.71 864.659 436.66 865.279 437.35C865.899 438.05 866.749 438.47 867.699 438.47C868.639 438.47 869.499 438.05 870.119 437.35C870.739 436.66 871.119 435.71 871.119 434.66C871.119 434.04 870.919 433.32 870.599 432.58C870.269 431.85 869.829 431.11 869.379 430.44C868.729 429.48 868.059 428.68 867.699 428.27C867.679 428.3 867.649 428.32 867.629 428.35C867.409 428.6 867.109 428.95 866.789 429.38C866.129 430.23 865.339 431.37 864.829 432.51C864.489 433.27 864.279 434.02 864.279 434.66Z" fill="#586872" fill-opacity="0.501961"/>
</g>
</g>
<g id="Frame 2131333458">
<rect id="Rectangle 34625222_8" x="1244" y="413" width="380" height="107" rx="13" fill="#141E31"/>
<rect id="Rectangle 34625224_8" x="1244" y="413" width="380" height="107" rx="13" fill="#141E31"/>
<rect id="Rectangle 34625223_8" x="1252" y="422" width="4" height="89" rx="2" fill="#10182C"/>
<text id="&#208;&#163;&#209;&#128;&#208;&#190;&#208;&#178;&#208;&#181;&#208;&#189;&#209;&#140; &#208;&#178;&#208;&#181;&#209;&#128;&#209;&#133;&#208;&#189;&#208;&#181;&#208;&#179;&#208;&#190; &#208;&#177;&#209;&#138;&#208;&#181;&#209;&#132;&#208;&#176;_4" fill="#586872" style="white-space: pre" xml:space="preserve" font-family="Bahnschrift" font-size="18" letter-spacing="0em"><tspan x="1292" y="438.291">&#x423;&#x440;&#x43e;&#x432;&#x435;&#x43d;&#x44c; &#x432;&#x435;&#x440;&#x445;&#x43d;&#x435;&#x433;&#x43e; &#x431;&#x44a;&#x435;&#x444;&#x430;</tspan></text>
<text id="0.00_6" fill="#2F3C4B" style="white-space: pre" xml:space="preserve" font-family="Bahnschrift" font-size="50" letter-spacing="0em"><tspan x="1521.81" y="504.697">0.00</tspan></text>
<text id="&#208;&#188;_4" fill="#2F3C4B" style="white-space: pre" xml:space="preserve" font-family="Bahnschrift" font-size="24" letter-spacing="0em"><tspan x="1597.81" y="437.555">&#x43c;</tspan></text>
<g id="_2772566396896_4">
<path id="Vector_25" d="M1277.55 434.66H1277.12C1277.12 435.71 1276.69 436.66 1276 437.36C1275.31 438.05 1274.36 438.47 1273.3 438.47C1272.25 438.47 1271.3 438.05 1270.61 437.36C1269.92 436.66 1269.49 435.71 1269.49 434.66C1269.49 434.02 1269.73 433.27 1270.11 432.51C1270.68 431.37 1271.55 430.23 1272.29 429.38C1272.65 428.95 1272.98 428.6 1273.22 428.35C1273.34 428.23 1273.44 428.13 1273.5 428.07C1273.53 428.04 1273.56 428.01 1273.58 427.99L1273.6 427.98V427.97L1273.3 427.66L1273.01 427.97L1273.02 427.98C1273.13 428.09 1274.18 429.11 1275.18 430.44C1275.68 431.11 1276.18 431.85 1276.54 432.59C1276.9 433.32 1277.12 434.04 1277.12 434.66H1277.55H1277.99C1277.98 433.82 1277.69 432.96 1277.28 432.13C1276.65 430.88 1275.74 429.7 1274.98 428.81C1274.22 427.93 1273.61 427.35 1273.6 427.35C1273.44 427.19 1273.17 427.19 1273.01 427.35C1273 427.36 1271.92 428.38 1270.84 429.79C1270.3 430.49 1269.75 431.29 1269.33 432.12C1268.92 432.96 1268.63 433.81 1268.62 434.66C1268.62 437.24 1270.72 439.34 1273.3 439.34C1275.89 439.34 1277.99 437.24 1277.99 434.66H1277.55Z" fill="#586872" fill-opacity="0.501961"/>
<path id="Vector_26" d="M1278.2 440.15L1281.12 437.26M1281.12 437.26V444.57M1281.12 437.26L1284.04 440.15" stroke="#05C095" stroke-opacity="0.501961" stroke-width="1.32" stroke-miterlimit="22.9256" stroke-linecap="round" stroke-linejoin="round"/>
<path id="Vector_27" fill-rule="evenodd" clip-rule="evenodd" d="M1262 432.83C1262 434.84 1262.23 436.46 1263.05 438.09C1263.39 438.78 1263.61 439.19 1264.05 439.82C1264.98 441.17 1266.22 442.25 1267.62 443.09C1269.28 444.08 1271.19 444.61 1273.4 444.61C1274.19 444.61 1274.34 443.22 1273.44 443.11L1272.21 443.02C1270.41 442.78 1268.89 442.22 1267.48 441.16C1267.34 441.06 1267.22 440.98 1267.1 440.87C1265.45 439.47 1264.34 437.78 1263.81 435.64C1263.06 432.67 1263.82 429.24 1265.8 427.02C1266.51 426.22 1266.82 425.92 1267.72 425.27C1269.21 424.18 1271.41 423.5 1273.3 423.5C1275.45 423.5 1277.48 424.25 1279.19 425.48C1279.78 425.9 1280.74 426.85 1281.15 427.44C1281.71 428.26 1282.2 429.04 1282.52 430.02C1283.04 431.59 1282.98 431.88 1283.1 433.4C1283.18 434.34 1284.61 434.2 1284.61 433.4C1284.61 429.18 1282.52 425.64 1278.99 423.52C1277.62 422.69 1275.55 422 1273.68 422H1272.83C1271.05 422 1268.94 422.73 1267.62 423.52C1265.48 424.8 1264.17 426.29 1263.06 428.48C1262.56 429.48 1262 431.36 1262 432.83Z" fill="#586872" fill-opacity="0.501961"/>
<path id="Vector_28" fill-rule="evenodd" clip-rule="evenodd" d="M1270.28 434.66C1270.28 435.71 1270.66 436.66 1271.28 437.35C1271.9 438.05 1272.75 438.47 1273.7 438.47C1274.64 438.47 1275.5 438.05 1276.12 437.35C1276.74 436.66 1277.12 435.71 1277.12 434.66C1277.12 434.04 1276.92 433.32 1276.6 432.58C1276.27 431.85 1275.83 431.11 1275.38 430.44C1274.73 429.48 1274.06 428.68 1273.7 428.27C1273.68 428.3 1273.65 428.32 1273.63 428.35C1273.41 428.6 1273.11 428.95 1272.79 429.38C1272.13 430.23 1271.34 431.37 1270.83 432.51C1270.49 433.27 1270.28 434.02 1270.28 434.66Z" fill="#586872" fill-opacity="0.501961"/>
</g>
</g>
<g id="Frame 2131333459">
<rect id="Rectangle 34625222_9" x="26" y="531" width="380" height="107" rx="13" fill="#141E31"/>
<rect id="Rectangle 34625223_9" x="34" y="540" width="4" height="89" rx="2" fill="#10182C"/>
<text id="&#208;&#163;&#209;&#128;&#208;&#190;&#208;&#178;&#208;&#181;&#208;&#189;&#209;&#140; &#208;&#189;&#208;&#184;&#208;&#182;&#208;&#189;&#208;&#181;&#208;&#179;&#208;&#190; &#208;&#177;&#209;&#138;&#208;&#181;&#209;&#132;&#208;&#176;" fill="#586872" style="white-space: pre" xml:space="preserve" font-family="Bahnschrift" font-size="18" letter-spacing="0em"><tspan x="74" y="556.291">&#x423;&#x440;&#x43e;&#x432;&#x435;&#x43d;&#x44c; &#x43d;&#x438;&#x436;&#x43d;&#x435;&#x433;&#x43e; &#x431;&#x44a;&#x435;&#x444;&#x430;</tspan></text>
<text id="115" fill="#818B98" style="white-space: pre" xml:space="preserve" font-family="Bahnschrift" font-size="50" letter-spacing="0em"><tspan x="334.453" y="622.697">115</tspan></text>
<text id="&#208;&#188;_5" fill="#2F3C4B" style="white-space: pre" xml:space="preserve" font-family="Bahnschrift" font-size="24" letter-spacing="0em"><tspan x="379.812" y="555.555">&#x43c;</tspan></text>
<g id="_2774778994208">
<path id="Vector_29" d="M59.5491 552.66H59.1191C59.1191 553.71 58.6891 554.66 57.9991 555.36C57.3091 556.05 56.3591 556.47 55.2991 556.47C54.2491 556.47 53.2991 556.05 52.6091 555.36C51.9191 554.66 51.4891 553.71 51.4891 552.66C51.4891 552.02 51.7291 551.27 52.1091 550.51C52.6791 549.37 53.5491 548.23 54.2891 547.38C54.6491 546.95 54.9791 546.6 55.2191 546.35C55.3391 546.23 55.4391 546.13 55.4991 546.07C55.5291 546.04 55.5591 546.01 55.5791 545.99L55.5991 545.98V545.97L55.2991 545.66L55.0091 545.97L55.0191 545.98C55.1291 546.09 56.1791 547.11 57.1791 548.44C57.6791 549.11 58.1791 549.85 58.5391 550.59C58.8991 551.32 59.1191 552.04 59.1191 552.66H59.5491H59.9891C59.9791 551.82 59.6891 550.96 59.2791 550.13C58.6491 548.88 57.7391 547.7 56.9791 546.81C56.2191 545.93 55.6091 545.35 55.5991 545.35C55.4391 545.19 55.1691 545.19 55.0091 545.35C54.9991 545.36 53.9191 546.38 52.8391 547.79C52.2991 548.49 51.7491 549.29 51.3291 550.12C50.9191 550.96 50.6291 551.82 50.6191 552.66C50.6191 555.24 52.7191 557.34 55.2991 557.34C57.8891 557.34 59.9891 555.24 59.9891 552.66H59.5491Z" fill="#586872" fill-opacity="0.501961"/>
<path id="Vector_30" d="M60.1992 559.69L63.1192 562.57M63.1192 562.57V555.26M63.1192 562.57L66.0392 559.69" stroke="#05C095" stroke-opacity="0.501961" stroke-width="1.32" stroke-miterlimit="22.9256" stroke-linecap="round" stroke-linejoin="round"/>
<path id="Vector_31" fill-rule="evenodd" clip-rule="evenodd" d="M44 550.83C44 552.84 44.23 554.46 45.05 556.09C45.39 556.78 45.61 557.19 46.05 557.82C46.98 559.17 48.22 560.25 49.62 561.09C51.28 562.08 53.19 562.61 55.4 562.61C56.19 562.61 56.34 561.22 55.44 561.11L54.21 561.02C52.41 560.78 50.89 560.22 49.48 559.16C49.34 559.06 49.22 558.98 49.1 558.87C47.45 557.47 46.34 555.78 45.81 553.64C45.06 550.67 45.82 547.24 47.8 545.02C48.51 544.22 48.82 543.92 49.72 543.27C51.21 542.18 53.41 541.5 55.3 541.5C57.45 541.5 59.48 542.25 61.19 543.48C61.78 543.9 62.74 544.85 63.15 545.44C63.71 546.26 64.2 547.04 64.52 548.02C65.04 549.59 64.98 549.88 65.1 551.4C65.18 552.34 66.61 552.2 66.61 551.4C66.61 547.18 64.52 543.64 60.99 541.52C59.62 540.69 57.55 540 55.68 540H54.83C53.05 540 50.94 540.73 49.62 541.52C47.48 542.8 46.17 544.29 45.06 546.48C44.56 547.48 44 549.36 44 550.83Z" fill="#586872" fill-opacity="0.501961"/>
<path id="Vector_32" fill-rule="evenodd" clip-rule="evenodd" d="M52.2793 552.66C52.2793 553.71 52.6593 554.66 53.2793 555.36C53.8993 556.05 54.7493 556.47 55.6993 556.47C56.6393 556.47 57.4993 556.05 58.1193 555.36C58.7393 554.66 59.1193 553.71 59.1193 552.66C59.1193 552.05 58.9193 551.32 58.5993 550.59C58.2693 549.85 57.8293 549.11 57.3793 548.44C56.7293 547.48 56.0593 546.68 55.6993 546.27C55.6793 546.3 55.6493 546.32 55.6293 546.35C55.4093 546.6 55.1093 546.95 54.7893 547.38C54.1293 548.23 53.3393 549.37 52.8293 550.51C52.4893 551.27 52.2793 552.02 52.2793 552.66Z" fill="#586872" fill-opacity="0.501961"/>
</g>
</g>
<g id="Frame 2131333460">
<rect id="Rectangle 34625222_10" x="432" y="531" width="380" height="107" rx="13" fill="#141E31"/>
<rect id="Rectangle 34625223_10" x="440" y="540" width="4" height="89" rx="2" fill="#10182C"/>
<text id="&#208;&#163;&#209;&#128;&#208;&#190;&#208;&#178;&#208;&#181;&#208;&#189;&#209;&#140; &#208;&#189;&#208;&#184;&#208;&#182;&#208;&#189;&#208;&#181;&#208;&#179;&#208;&#190; &#208;&#177;&#209;&#138;&#208;&#181;&#209;&#132;&#208;&#176;_2" fill="#586872" style="white-space: pre" xml:space="preserve" font-family="Bahnschrift" font-size="18" letter-spacing="0em"><tspan x="480" y="556.291">&#x423;&#x440;&#x43e;&#x432;&#x435;&#x43d;&#x44c; &#x43d;&#x438;&#x436;&#x43d;&#x435;&#x433;&#x43e; &#x431;&#x44a;&#x435;&#x444;&#x430;</tspan></text>
<text id="0.00_7" fill="#2F3C4B" style="white-space: pre" xml:space="preserve" font-family="Bahnschrift" font-size="50" letter-spacing="0em"><tspan x="709.814" y="622.697">0.00</tspan></text>
<text id="&#208;&#188;_6" fill="#2F3C4B" style="white-space: pre" xml:space="preserve" font-family="Bahnschrift" font-size="24" letter-spacing="0em"><tspan x="785.812" y="555.555">&#x43c;</tspan></text>
<g id="_2774778994208_2">
<path id="Vector_33" d="M465.549 552.66H465.119C465.119 553.71 464.689 554.66 463.999 555.36C463.309 556.05 462.359 556.47 461.299 556.47C460.249 556.47 459.299 556.05 458.609 555.36C457.919 554.66 457.489 553.71 457.489 552.66C457.489 552.02 457.729 551.27 458.109 550.51C458.679 549.37 459.549 548.23 460.289 547.38C460.649 546.95 460.979 546.6 461.219 546.35C461.339 546.23 461.439 546.13 461.499 546.07C461.529 546.04 461.559 546.01 461.579 545.99L461.599 545.98V545.97L461.299 545.66L461.009 545.97L461.019 545.98C461.129 546.09 462.179 547.11 463.179 548.44C463.679 549.11 464.179 549.85 464.539 550.59C464.899 551.32 465.119 552.04 465.119 552.66H465.549H465.989C465.979 551.82 465.689 550.96 465.279 550.13C464.649 548.88 463.739 547.7 462.979 546.81C462.219 545.93 461.609 545.35 461.599 545.35C461.439 545.19 461.169 545.19 461.009 545.35C460.999 545.36 459.919 546.38 458.839 547.79C458.299 548.49 457.749 549.29 457.329 550.12C456.919 550.96 456.629 551.82 456.619 552.66C456.619 555.24 458.719 557.34 461.299 557.34C463.889 557.34 465.989 555.24 465.989 552.66H465.549Z" fill="#586872" fill-opacity="0.501961"/>
<path id="Vector_34" d="M466.199 559.69L469.119 562.57M469.119 562.57V555.26M469.119 562.57L472.039 559.69" stroke="#05C095" stroke-opacity="0.501961" stroke-width="1.32" stroke-miterlimit="22.9256" stroke-linecap="round" stroke-linejoin="round"/>
<path id="Vector_35" fill-rule="evenodd" clip-rule="evenodd" d="M450 550.83C450 552.84 450.23 554.46 451.05 556.09C451.39 556.78 451.61 557.19 452.05 557.82C452.98 559.17 454.22 560.25 455.62 561.09C457.28 562.08 459.19 562.61 461.4 562.61C462.19 562.61 462.34 561.22 461.44 561.11L460.21 561.02C458.41 560.78 456.89 560.22 455.48 559.16C455.34 559.06 455.22 558.98 455.1 558.87C453.45 557.47 452.34 555.78 451.81 553.64C451.06 550.67 451.82 547.24 453.8 545.02C454.51 544.22 454.82 543.92 455.72 543.27C457.21 542.18 459.41 541.5 461.3 541.5C463.45 541.5 465.48 542.25 467.19 543.48C467.78 543.9 468.74 544.85 469.15 545.44C469.71 546.26 470.2 547.04 470.52 548.02C471.04 549.59 470.98 549.88 471.1 551.4C471.18 552.34 472.61 552.2 472.61 551.4C472.61 547.18 470.52 543.64 466.99 541.52C465.62 540.69 463.55 540 461.68 540H460.83C459.05 540 456.94 540.73 455.62 541.52C453.48 542.8 452.17 544.29 451.06 546.48C450.56 547.48 450 549.36 450 550.83Z" fill="#586872" fill-opacity="0.501961"/>
<path id="Vector_36" fill-rule="evenodd" clip-rule="evenodd" d="M458.279 552.66C458.279 553.71 458.659 554.66 459.279 555.36C459.899 556.05 460.749 556.47 461.699 556.47C462.639 556.47 463.499 556.05 464.119 555.36C464.739 554.66 465.119 553.71 465.119 552.66C465.119 552.05 464.919 551.32 464.599 550.59C464.269 549.85 463.829 549.11 463.379 548.44C462.729 547.48 462.059 546.68 461.699 546.27C461.679 546.3 461.649 546.32 461.629 546.35C461.409 546.6 461.109 546.95 460.789 547.38C460.129 548.23 459.339 549.37 458.829 550.51C458.489 551.27 458.279 552.02 458.279 552.66Z" fill="#586872" fill-opacity="0.501961"/>
</g>
</g>
<g id="Frame 2131333461">
<rect id="Rectangle 34625222_11" x="838" y="531" width="380" height="107" rx="13" fill="#141E31"/>
<rect id="Rectangle 34625223_11" x="846" y="540" width="4" height="89" rx="2" fill="#10182C"/>
<text id="&#208;&#163;&#209;&#128;&#208;&#190;&#208;&#178;&#208;&#181;&#208;&#189;&#209;&#140; &#208;&#189;&#208;&#184;&#208;&#182;&#208;&#189;&#208;&#181;&#208;&#179;&#208;&#190; &#208;&#177;&#209;&#138;&#208;&#181;&#209;&#132;&#208;&#176;_3" fill="#586872" style="white-space: pre" xml:space="preserve" font-family="Bahnschrift" font-size="18" letter-spacing="0em"><tspan x="886" y="556.291">&#x423;&#x440;&#x43e;&#x432;&#x435;&#x43d;&#x44c; &#x43d;&#x438;&#x436;&#x43d;&#x435;&#x433;&#x43e; &#x431;&#x44a;&#x435;&#x444;&#x430;</tspan></text>
<text id="0.00_8" fill="#2F3C4B" style="white-space: pre" xml:space="preserve" font-family="Bahnschrift" font-size="50" letter-spacing="0em"><tspan x="1115.81" y="622.697">0.00</tspan></text>
<text id="&#208;&#188;_7" fill="#2F3C4B" style="white-space: pre" xml:space="preserve" font-family="Bahnschrift" font-size="24" letter-spacing="0em"><tspan x="1191.81" y="555.555">&#x43c;</tspan></text>
<g id="_2774778994208_3">
<path id="Vector_37" d="M871.549 552.66H871.119C871.119 553.71 870.689 554.66 869.999 555.36C869.309 556.05 868.359 556.47 867.299 556.47C866.249 556.47 865.299 556.05 864.609 555.36C863.919 554.66 863.489 553.71 863.489 552.66C863.489 552.02 863.729 551.27 864.109 550.51C864.679 549.37 865.549 548.23 866.289 547.38C866.649 546.95 866.979 546.6 867.219 546.35C867.339 546.23 867.439 546.13 867.499 546.07C867.529 546.04 867.559 546.01 867.579 545.99L867.599 545.98V545.97L867.299 545.66L867.009 545.97L867.019 545.98C867.129 546.09 868.179 547.11 869.179 548.44C869.679 549.11 870.179 549.85 870.539 550.59C870.899 551.32 871.119 552.04 871.119 552.66H871.549H871.989C871.979 551.82 871.689 550.96 871.279 550.13C870.649 548.88 869.739 547.7 868.979 546.81C868.219 545.93 867.609 545.35 867.599 545.35C867.439 545.19 867.169 545.19 867.009 545.35C866.999 545.36 865.919 546.38 864.839 547.79C864.299 548.49 863.749 549.29 863.329 550.12C862.919 550.96 862.629 551.82 862.619 552.66C862.619 555.24 864.719 557.34 867.299 557.34C869.889 557.34 871.989 555.24 871.989 552.66H871.549Z" fill="#586872" fill-opacity="0.501961"/>
<path id="Vector_38" d="M872.199 559.69L875.119 562.57M875.119 562.57V555.26M875.119 562.57L878.039 559.69" stroke="#05C095" stroke-opacity="0.501961" stroke-width="1.32" stroke-miterlimit="22.9256" stroke-linecap="round" stroke-linejoin="round"/>
<path id="Vector_39" fill-rule="evenodd" clip-rule="evenodd" d="M856 550.83C856 552.84 856.23 554.46 857.05 556.09C857.39 556.78 857.61 557.19 858.05 557.82C858.98 559.17 860.22 560.25 861.62 561.09C863.28 562.08 865.19 562.61 867.4 562.61C868.19 562.61 868.34 561.22 867.44 561.11L866.21 561.02C864.41 560.78 862.89 560.22 861.48 559.16C861.34 559.06 861.22 558.98 861.1 558.87C859.45 557.47 858.34 555.78 857.81 553.64C857.06 550.67 857.82 547.24 859.8 545.02C860.51 544.22 860.82 543.92 861.72 543.27C863.21 542.18 865.41 541.5 867.3 541.5C869.45 541.5 871.48 542.25 873.19 543.48C873.78 543.9 874.74 544.85 875.15 545.44C875.71 546.26 876.2 547.04 876.52 548.02C877.04 549.59 876.98 549.88 877.1 551.4C877.18 552.34 878.61 552.2 878.61 551.4C878.61 547.18 876.52 543.64 872.99 541.52C871.62 540.69 869.55 540 867.68 540H866.83C865.05 540 862.94 540.73 861.62 541.52C859.48 542.8 858.17 544.29 857.06 546.48C856.56 547.48 856 549.36 856 550.83Z" fill="#586872" fill-opacity="0.501961"/>
<path id="Vector_40" fill-rule="evenodd" clip-rule="evenodd" d="M864.279 552.66C864.279 553.71 864.659 554.66 865.279 555.36C865.899 556.05 866.749 556.47 867.699 556.47C868.639 556.47 869.499 556.05 870.119 555.36C870.739 554.66 871.119 553.71 871.119 552.66C871.119 552.05 870.919 551.32 870.599 550.59C870.269 549.85 869.829 549.11 869.379 548.44C868.729 547.48 868.059 546.68 867.699 546.27C867.679 546.3 867.649 546.32 867.629 546.35C867.409 546.6 867.109 546.95 866.789 547.38C866.129 548.23 865.339 549.37 864.829 550.51C864.489 551.27 864.279 552.02 864.279 552.66Z" fill="#586872" fill-opacity="0.501961"/>
</g>
</g>
<g id="Frame 2131333462">
<rect id="Rectangle 34625222_12" x="1244" y="531" width="380" height="107" rx="13" fill="#141E31"/>
<rect id="Rectangle 34625223_12" x="1252" y="540" width="4" height="89" rx="2" fill="#10182C"/>
<text id="&#208;&#163;&#209;&#128;&#208;&#190;&#208;&#178;&#208;&#181;&#208;&#189;&#209;&#140; &#208;&#189;&#208;&#184;&#208;&#182;&#208;&#189;&#208;&#181;&#208;&#179;&#208;&#190; &#208;&#177;&#209;&#138;&#208;&#181;&#209;&#132;&#208;&#176;_4" fill="#586872" style="white-space: pre" xml:space="preserve" font-family="Bahnschrift" font-size="18" letter-spacing="0em"><tspan x="1292" y="556.291">&#x423;&#x440;&#x43e;&#x432;&#x435;&#x43d;&#x44c; &#x43d;&#x438;&#x436;&#x43d;&#x435;&#x433;&#x43e; &#x431;&#x44a;&#x435;&#x444;&#x430;</tspan></text>
<text id="0.00_9" fill="#2F3C4B" style="white-space: pre" xml:space="preserve" font-family="Bahnschrift" font-size="50" letter-spacing="0em"><tspan x="1521.81" y="622.697">0.00</tspan></text>
<text id="&#208;&#188;_8" fill="#2F3C4B" style="white-space: pre" xml:space="preserve" font-family="Bahnschrift" font-size="24" letter-spacing="0em"><tspan x="1597.81" y="555.555">&#x43c;</tspan></text>
<g id="_2774778994208_4">
<path id="Vector_41" d="M1277.55 552.66H1277.12C1277.12 553.71 1276.69 554.66 1276 555.36C1275.31 556.05 1274.36 556.47 1273.3 556.47C1272.25 556.47 1271.3 556.05 1270.61 555.36C1269.92 554.66 1269.49 553.71 1269.49 552.66C1269.49 552.02 1269.73 551.27 1270.11 550.51C1270.68 549.37 1271.55 548.23 1272.29 547.38C1272.65 546.95 1272.98 546.6 1273.22 546.35C1273.34 546.23 1273.44 546.13 1273.5 546.07C1273.53 546.04 1273.56 546.01 1273.58 545.99L1273.6 545.98V545.97L1273.3 545.66L1273.01 545.97L1273.02 545.98C1273.13 546.09 1274.18 547.11 1275.18 548.44C1275.68 549.11 1276.18 549.85 1276.54 550.59C1276.9 551.32 1277.12 552.04 1277.12 552.66H1277.55H1277.99C1277.98 551.82 1277.69 550.96 1277.28 550.13C1276.65 548.88 1275.74 547.7 1274.98 546.81C1274.22 545.93 1273.61 545.35 1273.6 545.35C1273.44 545.19 1273.17 545.19 1273.01 545.35C1273 545.36 1271.92 546.38 1270.84 547.79C1270.3 548.49 1269.75 549.29 1269.33 550.12C1268.92 550.96 1268.63 551.82 1268.62 552.66C1268.62 555.24 1270.72 557.34 1273.3 557.34C1275.89 557.34 1277.99 555.24 1277.99 552.66H1277.55Z" fill="#586872" fill-opacity="0.501961"/>
<path id="Vector_42" d="M1278.2 559.69L1281.12 562.57M1281.12 562.57V555.26M1281.12 562.57L1284.04 559.69" stroke="#05C095" stroke-opacity="0.501961" stroke-width="1.32" stroke-miterlimit="22.9256" stroke-linecap="round" stroke-linejoin="round"/>
<path id="Vector_43" fill-rule="evenodd" clip-rule="evenodd" d="M1262 550.83C1262 552.84 1262.23 554.46 1263.05 556.09C1263.39 556.78 1263.61 557.19 1264.05 557.82C1264.98 559.17 1266.22 560.25 1267.62 561.09C1269.28 562.08 1271.19 562.61 1273.4 562.61C1274.19 562.61 1274.34 561.22 1273.44 561.11L1272.21 561.02C1270.41 560.78 1268.89 560.22 1267.48 559.16C1267.34 559.06 1267.22 558.98 1267.1 558.87C1265.45 557.47 1264.34 555.78 1263.81 553.64C1263.06 550.67 1263.82 547.24 1265.8 545.02C1266.51 544.22 1266.82 543.92 1267.72 543.27C1269.21 542.18 1271.41 541.5 1273.3 541.5C1275.45 541.5 1277.48 542.25 1279.19 543.48C1279.78 543.9 1280.74 544.85 1281.15 545.44C1281.71 546.26 1282.2 547.04 1282.52 548.02C1283.04 549.59 1282.98 549.88 1283.1 551.4C1283.18 552.34 1284.61 552.2 1284.61 551.4C1284.61 547.18 1282.52 543.64 1278.99 541.52C1277.62 540.69 1275.55 540 1273.68 540H1272.83C1271.05 540 1268.94 540.73 1267.62 541.52C1265.48 542.8 1264.17 544.29 1263.06 546.48C1262.56 547.48 1262 549.36 1262 550.83Z" fill="#586872" fill-opacity="0.501961"/>
<path id="Vector_44" fill-rule="evenodd" clip-rule="evenodd" d="M1270.28 552.66C1270.28 553.71 1270.66 554.66 1271.28 555.36C1271.9 556.05 1272.75 556.47 1273.7 556.47C1274.64 556.47 1275.5 556.05 1276.12 555.36C1276.74 554.66 1277.12 553.71 1277.12 552.66C1277.12 552.05 1276.92 551.32 1276.6 550.59C1276.27 549.85 1275.83 549.11 1275.38 548.44C1274.73 547.48 1274.06 546.68 1273.7 546.27C1273.68 546.3 1273.65 546.32 1273.63 546.35C1273.41 546.6 1273.11 546.95 1272.79 547.38C1272.13 548.23 1271.34 549.37 1270.83 550.51C1270.49 551.27 1270.28 552.02 1270.28 552.66Z" fill="#586872" fill-opacity="0.501961"/>
</g>
</g>
<g id="Frame 2131333463">
<rect id="Rectangle 34625222_13" x="26" y="649" width="380" height="204" rx="13" fill="#141E31"/>
<rect id="Rectangle 34625223_13" x="34" y="666" width="4" height="178" rx="2" fill="#10182C"/>
<text id="&#208;&#161;&#208;&#190;&#209;&#129;&#209;&#130;&#208;&#190;&#209;&#143;&#208;&#189;&#208;&#184;&#208;&#181; &#209;&#128;&#208;&#176;&#208;&#177;&#208;&#190;&#209;&#130;&#209;&#139; &#208;&#179;&#208;&#181;&#208;&#189;&#208;&#181;&#209;&#128;&#208;&#176;&#209;&#130;&#208;&#190;&#209;&#128;&#208;&#176;" fill="#586872" style="white-space: pre" xml:space="preserve" font-family="Bahnschrift" font-size="18" letter-spacing="0em"><tspan x="74" y="674.291">&#x421;&#x43e;&#x441;&#x442;&#x43e;&#x44f;&#x43d;&#x438;&#x435; &#x440;&#x430;&#x431;&#x43e;&#x442;&#x44b; &#x433;&#x435;&#x43d;&#x435;&#x440;&#x430;&#x442;&#x43e;&#x440;&#x430;</tspan></text>
<g id="Group 1948755516">
<text id="!" fill="#586872" style="white-space: pre" xml:space="preserve" font-family="Urbanist" font-size="18" letter-spacing="0em"><tspan x="54.3828" y="675.3">!</tspan></text>
<circle id="Ellipse 447" cx="56" cy="669" r="10.5" stroke="#364351"/>
</g>
<g id="Group 1948755517">
<rect id="Rectangle 34625226" x="54" y="703" width="124" height="34" rx="17" fill="#4D6165"/>
<rect id="Rectangle 34625227" x="115" y="709" width="55" height="22" rx="11" fill="#75908A"/>
<g id="Rectangle 34625228" filter="url(#filter0_f_532_9631)">
<rect x="118" y="711" width="49" height="18" rx="9" fill="#23E864"/>
</g>
<path id="Arrow 1" d="M144.854 720.354C145.049 720.158 145.049 719.842 144.854 719.646L141.672 716.464C141.476 716.269 141.16 716.269 140.964 716.464C140.769 716.66 140.769 716.976 140.964 717.172L143.793 720L140.964 722.828C140.769 723.024 140.769 723.34 140.964 723.536C141.16 723.731 141.476 723.731 141.672 723.536L144.854 720.354ZM144 720V720.5H144.5V720V719.5H144V720Z" fill="#355D46"/>
</g>
<g id="Group 1948755519">
<rect id="Rectangle 34625226_2" x="242" y="703" width="124" height="34" rx="17" fill="#4D6165"/>
<rect id="Rectangle 34625227_2" x="303" y="709" width="55" height="22" rx="11" fill="#75908A"/>
<g id="Rectangle 34625228_2" filter="url(#filter1_f_532_9631)">
<rect x="306" y="711" width="49" height="18" rx="9" fill="#23E864"/>
</g>
<path id="Arrow 1_2" d="M332.854 720.354C333.049 720.158 333.049 719.842 332.854 719.646L329.672 716.464C329.476 716.269 329.16 716.269 328.964 716.464C328.769 716.66 328.769 716.976 328.964 717.172L331.793 720L328.964 722.828C328.769 723.024 328.769 723.34 328.964 723.536C329.16 723.731 329.476 723.731 329.672 723.536L332.854 720.354ZM332 720V720.5H332.5V720V719.5H332V720Z" fill="#355D46"/>
</g>
<text id="G-1" fill="#1B2536" style="white-space: pre" xml:space="preserve" font-family="Bahnschrift" font-size="28" letter-spacing="0em"><tspan x="68.5586" y="728.23">G-1</tspan></text>
<text id="G-2" fill="#1B2536" style="white-space: pre" xml:space="preserve" font-family="Bahnschrift" font-size="28" letter-spacing="0em"><tspan x="251.008" y="728.23">G-2</tspan></text>
</g>
<g id="Frame 2131333464">
<rect id="Rectangle 34625222_14" x="432" y="649" width="380" height="204" rx="13" fill="#141E31"/>
<rect id="Rectangle 34625223_14" x="440" y="666" width="4" height="178" rx="2" fill="#10182C"/>
<text id="&#208;&#161;&#208;&#190;&#209;&#129;&#209;&#130;&#208;&#190;&#209;&#143;&#208;&#189;&#208;&#184;&#208;&#181; &#209;&#128;&#208;&#176;&#208;&#177;&#208;&#190;&#209;&#130;&#209;&#139; &#208;&#179;&#208;&#181;&#208;&#189;&#208;&#181;&#209;&#128;&#208;&#176;&#209;&#130;&#208;&#190;&#209;&#128;&#208;&#176;_2" fill="#586872" style="white-space: pre" xml:space="preserve" font-family="Bahnschrift" font-size="18" letter-spacing="0em"><tspan x="480" y="674.291">&#x421;&#x43e;&#x441;&#x442;&#x43e;&#x44f;&#x43d;&#x438;&#x435; &#x440;&#x430;&#x431;&#x43e;&#x442;&#x44b; &#x433;&#x435;&#x43d;&#x435;&#x440;&#x430;&#x442;&#x43e;&#x440;&#x430;</tspan></text>
<g id="Group 1948755516_2">
<text id="!_2" fill="#586872" style="white-space: pre" xml:space="preserve" font-family="Urbanist" font-size="18" letter-spacing="0em"><tspan x="460.383" y="675.3">!</tspan></text>
<circle id="Ellipse 447_2" cx="462" cy="669" r="10.5" stroke="#364351"/>
</g>
<g id="Group 1948755517_2">
<rect id="Rectangle 34625226_3" x="460" y="703" width="124" height="34" rx="17" fill="#4D6165"/>
<rect id="Rectangle 34625227_3" x="521" y="709" width="55" height="22" rx="11" fill="#D898B4"/>
<g id="Rectangle 34625228_3" filter="url(#filter2_f_532_9631)">
<rect x="524" y="711" width="49" height="18" rx="9" fill="#FF4962"/>
</g>
<path id="Arrow 1_3" d="M550.854 720.354C551.049 720.158 551.049 719.842 550.854 719.646L547.672 716.464C547.476 716.269 547.16 716.269 546.964 716.464C546.769 716.66 546.769 716.976 546.964 717.172L549.793 720L546.964 722.828C546.769 723.024 546.769 723.34 546.964 723.536C547.16 723.731 547.476 723.731 547.672 723.536L550.854 720.354ZM550 720V720.5H550.5V720V719.5H550V720Z" fill="#355D46"/>
</g>
<g id="Group 1948755520">
<rect id="Rectangle 34625226_4" x="460" y="781" width="124" height="34" rx="17" fill="#4D6165"/>
<rect id="Rectangle 34625227_4" x="521" y="787" width="55" height="22" rx="11" fill="#D898B4"/>
<g id="Rectangle 34625228_4" filter="url(#filter3_f_532_9631)">
<rect x="524" y="789" width="49" height="18" rx="9" fill="#FF4962"/>
</g>
<path id="Arrow 1_4" d="M550.854 798.354C551.049 798.158 551.049 797.842 550.854 797.646L547.672 794.464C547.476 794.269 547.16 794.269 546.964 794.464C546.769 794.66 546.769 794.976 546.964 795.172L549.793 798L546.964 800.828C546.769 801.024 546.769 801.34 546.964 801.536C547.16 801.731 547.476 801.731 547.672 801.536L550.854 798.354ZM550 798V798.5H550.5V798V797.5H550V798Z" fill="#355D46"/>
</g>
<g id="Group 1948755519_2">
<rect id="Rectangle 34625226_5" x="648" y="703" width="124" height="34" rx="17" fill="#4D6165"/>
<rect id="Rectangle 34625227_5" x="709" y="709" width="55" height="22" rx="11" fill="#D898B4"/>
<g id="Rectangle 34625228_5" filter="url(#filter4_f_532_9631)">
<rect x="712" y="711" width="49" height="18" rx="9" fill="#FF4962"/>
</g>
<path id="Arrow 1_5" d="M738.854 720.354C739.049 720.158 739.049 719.842 738.854 719.646L735.672 716.464C735.476 716.269 735.16 716.269 734.964 716.464C734.769 716.66 734.769 716.976 734.964 717.172L737.793 720L734.964 722.828C734.769 723.024 734.769 723.34 734.964 723.536C735.16 723.731 735.476 723.731 735.672 723.536L738.854 720.354ZM738 720V720.5H738.5V720V719.5H738V720Z" fill="#355D46"/>
</g>
<text id="G-1_2" fill="#1B2536" style="white-space: pre" xml:space="preserve" font-family="Bahnschrift" font-size="28" letter-spacing="0em"><tspan x="474.559" y="728.23">G-1</tspan></text>
<text id="G-3" fill="#1B2536" style="white-space: pre" xml:space="preserve" font-family="Bahnschrift" font-size="28" letter-spacing="0em"><tspan x="468.652" y="806.23">G-3</tspan></text>
<text id="G-2_2" fill="#1B2536" style="white-space: pre" xml:space="preserve" font-family="Bahnschrift" font-size="28" letter-spacing="0em"><tspan x="657.008" y="728.23">G-2</tspan></text>
</g>
<g id="Frame 2131333465">
<rect id="Rectangle 34625222_15" x="838" y="649" width="380" height="204" rx="13" fill="#141E31"/>
<rect id="Rectangle 34625223_15" x="846" y="666" width="4" height="178" rx="2" fill="#10182C"/>
<text id="&#208;&#161;&#208;&#190;&#209;&#129;&#209;&#130;&#208;&#190;&#209;&#143;&#208;&#189;&#208;&#184;&#208;&#181; &#209;&#128;&#208;&#176;&#208;&#177;&#208;&#190;&#209;&#130;&#209;&#139; &#208;&#179;&#208;&#181;&#208;&#189;&#208;&#181;&#209;&#128;&#208;&#176;&#209;&#130;&#208;&#190;&#209;&#128;&#208;&#176;_3" fill="#586872" style="white-space: pre" xml:space="preserve" font-family="Bahnschrift" font-size="18" letter-spacing="0em"><tspan x="886" y="674.291">&#x421;&#x43e;&#x441;&#x442;&#x43e;&#x44f;&#x43d;&#x438;&#x435; &#x440;&#x430;&#x431;&#x43e;&#x442;&#x44b; &#x433;&#x435;&#x43d;&#x435;&#x440;&#x430;&#x442;&#x43e;&#x440;&#x430;</tspan></text>
<g id="Group 1948755516_3">
<text id="!_3" fill="#586872" style="white-space: pre" xml:space="preserve" font-family="Urbanist" font-size="18" letter-spacing="0em"><tspan x="866.383" y="675.3">!</tspan></text>
<circle id="Ellipse 447_3" cx="868" cy="669" r="10.5" stroke="#364351"/>
</g>
<g id="Group 1948755517_3">
<rect id="Rectangle 34625226_6" x="866" y="703" width="124" height="34" rx="17" fill="#4D6165"/>
<rect id="Rectangle 34625227_6" x="927" y="709" width="55" height="22" rx="11" fill="#D898B4"/>
<g id="Rectangle 34625228_6" filter="url(#filter5_f_532_9631)">
<rect x="930" y="711" width="49" height="18" rx="9" fill="#FF4962"/>
</g>
<path id="Arrow 1_6" d="M956.854 720.354C957.049 720.158 957.049 719.842 956.854 719.646L953.672 716.464C953.476 716.269 953.16 716.269 952.964 716.464C952.769 716.66 952.769 716.976 952.964 717.172L955.793 720L952.964 722.828C952.769 723.024 952.769 723.34 952.964 723.536C953.16 723.731 953.476 723.731 953.672 723.536L956.854 720.354ZM956 720V720.5H956.5V720V719.5H956V720Z" fill="#355D46"/>
</g>
<g id="Group 1948755519_3">
<rect id="Rectangle 34625226_7" x="1054" y="703" width="124" height="34" rx="17" fill="#4D6165"/>
<rect id="Rectangle 34625227_7" x="1115" y="709" width="55" height="22" rx="11" fill="#D898B4"/>
<g id="Rectangle 34625228_7" filter="url(#filter6_f_532_9631)">
<rect x="1118" y="711" width="49" height="18" rx="9" fill="#FF4962"/>
</g>
<path id="Arrow 1_7" d="M1144.85 720.354C1145.05 720.158 1145.05 719.842 1144.85 719.646L1141.67 716.464C1141.48 716.269 1141.16 716.269 1140.96 716.464C1140.77 716.66 1140.77 716.976 1140.96 717.172L1143.79 720L1140.96 722.828C1140.77 723.024 1140.77 723.34 1140.96 723.536C1141.16 723.731 1141.48 723.731 1141.67 723.536L1144.85 720.354ZM1144 720V720.5H1144.5V720V719.5H1144V720Z" fill="#355D46"/>
</g>
<text id="G-1_3" fill="#1B2536" style="white-space: pre" xml:space="preserve" font-family="Bahnschrift" font-size="28" letter-spacing="0em"><tspan x="880.559" y="728.23">G-1</tspan></text>
<text id="G-2_3" fill="#1B2536" style="white-space: pre" xml:space="preserve" font-family="Bahnschrift" font-size="28" letter-spacing="0em"><tspan x="1063.01" y="728.23">G-2</tspan></text>
</g>
<g id="Frame 2131333466">
<rect id="Rectangle 34625222_16" x="1244" y="649" width="380" height="204" rx="13" fill="#141E31"/>
<rect id="Rectangle 34625223_16" x="1252" y="666" width="4" height="178" rx="2" fill="#10182C"/>
<text id="&#208;&#161;&#208;&#190;&#209;&#129;&#209;&#130;&#208;&#190;&#209;&#143;&#208;&#189;&#208;&#184;&#208;&#181; &#209;&#128;&#208;&#176;&#208;&#177;&#208;&#190;&#209;&#130;&#209;&#139; &#208;&#179;&#208;&#181;&#208;&#189;&#208;&#181;&#209;&#128;&#208;&#176;&#209;&#130;&#208;&#190;&#209;&#128;&#208;&#176;_4" fill="#586872" style="white-space: pre" xml:space="preserve" font-family="Bahnschrift" font-size="18" letter-spacing="0em"><tspan x="1292" y="674.291">&#x421;&#x43e;&#x441;&#x442;&#x43e;&#x44f;&#x43d;&#x438;&#x435; &#x440;&#x430;&#x431;&#x43e;&#x442;&#x44b; &#x433;&#x435;&#x43d;&#x435;&#x440;&#x430;&#x442;&#x43e;&#x440;&#x430;</tspan></text>
<g id="Group 1948755516_4">
<text id="!_4" fill="#586872" style="white-space: pre" xml:space="preserve" font-family="Urbanist" font-size="18" letter-spacing="0em"><tspan x="1272.38" y="675.3">!</tspan></text>
<circle id="Ellipse 447_4" cx="1274" cy="669" r="10.5" stroke="#364351"/>
</g>
<g id="Group 1948755517_4">
<rect id="Rectangle 34625226_8" x="1272" y="703" width="124" height="34" rx="17" fill="#4D6165"/>
<rect id="Rectangle 34625227_8" x="1333" y="709" width="55" height="22" rx="11" fill="#D898B4"/>
<g id="Rectangle 34625228_8" filter="url(#filter7_f_532_9631)">
<rect x="1336" y="711" width="49" height="18" rx="9" fill="#FF4962"/>
</g>
<path id="Arrow 1_8" d="M1362.85 720.354C1363.05 720.158 1363.05 719.842 1362.85 719.646L1359.67 716.464C1359.48 716.269 1359.16 716.269 1358.96 716.464C1358.77 716.66 1358.77 716.976 1358.96 717.172L1361.79 720L1358.96 722.828C1358.77 723.024 1358.77 723.34 1358.96 723.536C1359.16 723.731 1359.48 723.731 1359.67 723.536L1362.85 720.354ZM1362 720V720.5H1362.5V720V719.5H1362V720Z" fill="#355D46"/>
</g>
<g id="Group 1948755519_4">
<rect id="Rectangle 34625226_9" x="1460" y="703" width="124" height="34" rx="17" fill="#4D6165"/>
<rect id="Rectangle 34625227_9" x="1521" y="709" width="55" height="22" rx="11" fill="#D898B4"/>
<g id="Rectangle 34625228_9" filter="url(#filter8_f_532_9631)">
<rect x="1524" y="711" width="49" height="18" rx="9" fill="#FF4962"/>
</g>
<path id="Arrow 1_9" d="M1550.85 720.354C1551.05 720.158 1551.05 719.842 1550.85 719.646L1547.67 716.464C1547.48 716.269 1547.16 716.269 1546.96 716.464C1546.77 716.66 1546.77 716.976 1546.96 717.172L1549.79 720L1546.96 722.828C1546.77 723.024 1546.77 723.34 1546.96 723.536C1547.16 723.731 1547.48 723.731 1547.67 723.536L1550.85 720.354ZM1550 720V720.5H1550.5V720V719.5H1550V720Z" fill="#355D46"/>
</g>
<text id="G-1_4" fill="#1B2536" style="white-space: pre" xml:space="preserve" font-family="Bahnschrift" font-size="28" letter-spacing="0em"><tspan x="1286.56" y="728.23">G-1</tspan></text>
<text id="G-2_4" fill="#1B2536" style="white-space: pre" xml:space="preserve" font-family="Bahnschrift" font-size="28" letter-spacing="0em"><tspan x="1469.01" y="728.23">G-2</tspan></text>
</g>
<g id="Frame 2131333467">
<rect id="Rectangle 34625222_17" x="26" y="864" width="380" height="107" rx="13" fill="#141E31"/>
<rect id="Rectangle 34625224_9" x="26" y="864" width="380" height="107" rx="13" fill="#141E31"/>
<rect id="Rectangle 34625223_17" x="34" y="873" width="4" height="89" rx="2" fill="#10182C"/>
<text id="+" fill="#232E3F" style="white-space: pre" xml:space="preserve" font-family="Urbanist" font-size="50" letter-spacing="0em"><tspan x="201.498" y="935.5">+</tspan></text>
</g>
<g id="Frame 2131333468">
<rect id="Rectangle 34625222_18" x="432" y="864" width="380" height="107" rx="13" fill="#141E31"/>
<rect id="Rectangle 34625224_10" x="432" y="864" width="380" height="107" rx="13" fill="#141E31"/>
<rect id="Rectangle 34625223_18" x="440" y="873" width="4" height="89" rx="2" fill="#10182C"/>
<text id="+_2" fill="#232E3F" style="white-space: pre" xml:space="preserve" font-family="Urbanist" font-size="50" letter-spacing="0em"><tspan x="607.498" y="935.5">+</tspan></text>
</g>
<g id="Frame 2131333469">
<rect id="Rectangle 34625222_19" x="838" y="864" width="380" height="107" rx="13" fill="#141E31"/>
<rect id="Rectangle 34625224_11" x="838" y="864" width="380" height="107" rx="13" fill="#141E31"/>
<rect id="Rectangle 34625223_19" x="846" y="873" width="4" height="89" rx="2" fill="#10182C"/>
<text id="+_3" fill="#232E3F" style="white-space: pre" xml:space="preserve" font-family="Urbanist" font-size="50" letter-spacing="0em"><tspan x="1013.5" y="935.5">+</tspan></text>
</g>
<g id="Frame 2131333470">
<rect id="Rectangle 34625222_20" x="1244" y="864" width="380" height="107" rx="13" fill="#141E31"/>
<rect id="Rectangle 34625224_12" x="1244" y="864" width="380" height="107" rx="13" fill="#141E31"/>
<rect id="Rectangle 34625223_20" x="1252" y="873" width="4" height="89" rx="2" fill="#10182C"/>
<text id="+_4" fill="#232E3F" style="white-space: pre" xml:space="preserve" font-family="Urbanist" font-size="50" letter-spacing="0em"><tspan x="1419.5" y="935.5">+</tspan></text>
</g>
<g id="Frame 2131333471">
<rect id="Rectangle 34625222_21" x="26" y="174" width="380" height="107" rx="13" fill="#141E31"/>
<rect id="Rectangle 34625224_13" x="26" y="174" width="380" height="107" rx="13" fill="#141E31"/>
<rect id="Rectangle 34625223_21" x="34" y="183" width="4" height="89" rx="2" fill="#10182C"/>
<text id="&#208;&#144;&#208;&#186;&#209;&#130;&#208;&#184;&#208;&#178;&#208;&#189;&#208;&#176;&#209;&#143; &#208;&#188;&#208;&#190;&#209;&#137;&#208;&#189;&#208;&#190;&#209;&#129;&#209;&#130;&#209;&#140;" fill="#586872" style="white-space: pre" xml:space="preserve" font-family="Bahnschrift" font-size="18" letter-spacing="0em"><tspan x="74" y="199.291">&#x410;&#x43a;&#x442;&#x438;&#x432;&#x43d;&#x430;&#x44f; &#x43c;&#x43e;&#x449;&#x43d;&#x43e;&#x441;&#x442;&#x44c;</tspan></text>
<text id="112" fill="#818B98" style="white-space: pre" xml:space="preserve" font-family="Bahnschrift" font-size="50" letter-spacing="0em"><tspan x="335.869" y="265.697">112</tspan></text>
<text id="&#208;&#186;&#208;&#146;&#209;&#130;&#226;&#128;&#162;&#209;&#135;" fill="#2F3C4B" style="white-space: pre" xml:space="preserve" font-family="Bahnschrift" font-size="24" letter-spacing="0em"><tspan x="334.977" y="198.555">&#x43a;&#x412;&#x442;&#x2022;&#x447;</tspan></text>
<g id="_2772615867184">
<path id="Vector_45" d="M58.3906 206.51L62.1006 196.48H63.3107L67.0206 206.51H65.5007L62.7006 198.41L59.9207 206.51H58.3906ZM60.1006 204.31V202.97H65.4006V204.31H60.1006Z" fill="#314CFF" fill-opacity="0.4"/>
<path id="Vector_46" fill-rule="evenodd" clip-rule="evenodd" d="M44 193.83C44 195.84 44.23 197.46 45.05 199.1C45.4 199.79 45.61 200.19 46.05 200.83C46.99 202.17 48.22 203.25 49.62 204.09C51.28 205.09 53.2 205.61 55.4 205.61C56.19 205.61 56.34 204.23 55.44 204.11L54.21 204.03C52.42 203.78 50.89 203.22 49.48 202.16C49.35 202.06 49.23 201.98 49.1 201.88C47.45 200.47 46.35 198.78 45.81 196.64C45.07 193.68 45.83 190.24 47.8 188.03C48.52 187.23 48.82 186.92 49.72 186.27C51.21 185.18 53.41 184.5 55.31 184.5C57.46 184.5 59.48 185.25 61.2 186.48C61.78 186.9 62.74 187.85 63.15 188.44C63.71 189.26 64.2 190.05 64.52 191.03C65.04 192.59 64.99 192.88 65.11 194.4C65.18 195.35 66.62 195.2 66.62 194.4C66.62 190.18 64.52 186.64 60.99 184.52C59.62 183.7 57.55 183 55.68 183H54.84C53.06 183 50.94 183.73 49.62 184.52C47.48 185.8 46.1699 187.29 45.0699 189.48C44.5699 190.48 44 192.36 44 193.83Z" fill="#586872" fill-opacity="0.501961"/>
<path id="Vector_47" fill-rule="evenodd" clip-rule="evenodd" d="M52.2891 194.21C52.2891 194.58 52.429 194.94 52.829 195.04C53.019 195.09 56.049 195.06 56.389 195.06L55.4691 197.25C55.2391 197.79 54.5491 199.18 54.5491 199.68C54.5491 200.26 55.579 200.73 56.019 199.87C56.129 199.63 56.2491 199.34 56.3591 199.08C56.5891 198.54 56.779 198.06 57.019 197.53C57.169 197.18 58.319 194.55 58.319 194.4C58.319 193.34 57.3791 193.55 56.6291 193.55C55.8291 193.55 55.0191 193.55 54.2191 193.55L55.399 190.77C55.599 190.31 55.7991 189.86 55.9891 189.38C56.4091 188.31 55.069 187.81 54.649 188.65C54.379 189.17 52.2891 194.09 52.2891 194.21Z" fill="#586872" fill-opacity="0.501961"/>
</g>
</g>
<g id="Frame 2131333472">
<rect id="Rectangle 34625222_22" x="432" y="174" width="380" height="107" rx="13" fill="#141E31"/>
<rect id="Rectangle 34625224_14" x="432" y="174" width="380" height="107" rx="13" fill="#141E31"/>
<rect id="Rectangle 34625223_22" x="440" y="183" width="4" height="89" rx="2" fill="#10182C"/>
<text id="&#208;&#144;&#208;&#186;&#209;&#130;&#208;&#184;&#208;&#178;&#208;&#189;&#208;&#176;&#209;&#143; &#208;&#188;&#208;&#190;&#209;&#137;&#208;&#189;&#208;&#190;&#209;&#129;&#209;&#130;&#209;&#140;_2" fill="#586872" style="white-space: pre" xml:space="preserve" font-family="Bahnschrift" font-size="18" letter-spacing="0em"><tspan x="480" y="199.291">&#x410;&#x43a;&#x442;&#x438;&#x432;&#x43d;&#x430;&#x44f; &#x43c;&#x43e;&#x449;&#x43d;&#x43e;&#x441;&#x442;&#x44c;</tspan></text>
<text id="0.00_10" fill="#2F3C4B" style="white-space: pre" xml:space="preserve" font-family="Bahnschrift" font-size="50" letter-spacing="0em"><tspan x="709.814" y="265.697">0.00</tspan></text>
<text id="&#208;&#186;&#208;&#146;&#209;&#130;&#226;&#128;&#162;&#209;&#135;_2" fill="#2F3C4B" style="white-space: pre" xml:space="preserve" font-family="Bahnschrift" font-size="24" letter-spacing="0em"><tspan x="740.977" y="198.555">&#x43a;&#x412;&#x442;&#x2022;&#x447;</tspan></text>
<g id="_2772615867184_2">
<path id="Vector_48" d="M464.391 206.51L468.101 196.48H469.311L473.021 206.51H471.501L468.701 198.41L465.921 206.51H464.391ZM466.101 204.31V202.97H471.401V204.31H466.101Z" fill="#314CFF" fill-opacity="0.4"/>
<path id="Vector_49" fill-rule="evenodd" clip-rule="evenodd" d="M450 193.83C450 195.84 450.23 197.46 451.05 199.1C451.4 199.79 451.61 200.19 452.05 200.83C452.99 202.17 454.22 203.25 455.62 204.09C457.28 205.09 459.2 205.61 461.4 205.61C462.19 205.61 462.34 204.23 461.44 204.11L460.21 204.03C458.42 203.78 456.89 203.22 455.48 202.16C455.35 202.06 455.23 201.98 455.1 201.88C453.45 200.47 452.35 198.78 451.81 196.64C451.07 193.68 451.83 190.24 453.8 188.03C454.52 187.23 454.82 186.92 455.72 186.27C457.21 185.18 459.41 184.5 461.31 184.5C463.46 184.5 465.48 185.25 467.2 186.48C467.78 186.9 468.74 187.85 469.15 188.44C469.71 189.26 470.2 190.05 470.52 191.03C471.04 192.59 470.99 192.88 471.11 194.4C471.18 195.35 472.62 195.2 472.62 194.4C472.62 190.18 470.52 186.64 466.99 184.52C465.62 183.7 463.55 183 461.68 183H460.84C459.06 183 456.94 183.73 455.62 184.52C453.48 185.8 452.17 187.29 451.07 189.48C450.57 190.48 450 192.36 450 193.83Z" fill="#586872" fill-opacity="0.501961"/>
<path id="Vector_50" fill-rule="evenodd" clip-rule="evenodd" d="M458.289 194.21C458.289 194.58 458.429 194.94 458.829 195.04C459.019 195.09 462.049 195.06 462.389 195.06L461.469 197.25C461.239 197.79 460.549 199.18 460.549 199.68C460.549 200.26 461.579 200.73 462.019 199.87C462.129 199.63 462.249 199.34 462.359 199.08C462.589 198.54 462.779 198.06 463.019 197.53C463.169 197.18 464.319 194.55 464.319 194.4C464.319 193.34 463.379 193.55 462.629 193.55C461.829 193.55 461.019 193.55 460.219 193.55L461.399 190.77C461.599 190.31 461.799 189.86 461.989 189.38C462.409 188.31 461.069 187.81 460.649 188.65C460.379 189.17 458.289 194.09 458.289 194.21Z" fill="#586872" fill-opacity="0.501961"/>
</g>
</g>
<g id="Frame 2131333473">
<rect id="Rectangle 34625222_23" x="838" y="174" width="380" height="107" rx="13" fill="#141E31"/>
<rect id="Rectangle 34625224_15" x="838" y="174" width="380" height="107" rx="13" fill="#141E31"/>
<rect id="Rectangle 34625223_23" x="846" y="183" width="4" height="89" rx="2" fill="#10182C"/>
<text id="&#208;&#144;&#208;&#186;&#209;&#130;&#208;&#184;&#208;&#178;&#208;&#189;&#208;&#176;&#209;&#143; &#208;&#188;&#208;&#190;&#209;&#137;&#208;&#189;&#208;&#190;&#209;&#129;&#209;&#130;&#209;&#140;_3" fill="#586872" style="white-space: pre" xml:space="preserve" font-family="Bahnschrift" font-size="18" letter-spacing="0em"><tspan x="886" y="199.291">&#x410;&#x43a;&#x442;&#x438;&#x432;&#x43d;&#x430;&#x44f; &#x43c;&#x43e;&#x449;&#x43d;&#x43e;&#x441;&#x442;&#x44c;</tspan></text>
<text id="0.00_11" fill="#2F3C4B" style="white-space: pre" xml:space="preserve" font-family="Bahnschrift" font-size="50" letter-spacing="0em"><tspan x="1115.81" y="265.697">0.00</tspan></text>
<text id="&#208;&#186;&#208;&#146;&#209;&#130;&#226;&#128;&#162;&#209;&#135;_3" fill="#2F3C4B" style="white-space: pre" xml:space="preserve" font-family="Bahnschrift" font-size="24" letter-spacing="0em"><tspan x="1146.98" y="198.555">&#x43a;&#x412;&#x442;&#x2022;&#x447;</tspan></text>
<g id="_2772615867184_3">
<path id="Vector_51" d="M870.391 206.51L874.101 196.48H875.311L879.021 206.51H877.501L874.701 198.41L871.921 206.51H870.391ZM872.101 204.31V202.97H877.401V204.31H872.101Z" fill="#314CFF" fill-opacity="0.4"/>
<path id="Vector_52" fill-rule="evenodd" clip-rule="evenodd" d="M856 193.83C856 195.84 856.23 197.46 857.05 199.1C857.4 199.79 857.61 200.19 858.05 200.83C858.99 202.17 860.22 203.25 861.62 204.09C863.28 205.09 865.2 205.61 867.4 205.61C868.19 205.61 868.34 204.23 867.44 204.11L866.21 204.03C864.42 203.78 862.89 203.22 861.48 202.16C861.35 202.06 861.23 201.98 861.1 201.88C859.45 200.47 858.35 198.78 857.81 196.64C857.07 193.68 857.83 190.24 859.8 188.03C860.52 187.23 860.82 186.92 861.72 186.27C863.21 185.18 865.41 184.5 867.31 184.5C869.46 184.5 871.48 185.25 873.2 186.48C873.78 186.9 874.74 187.85 875.15 188.44C875.71 189.26 876.2 190.05 876.52 191.03C877.04 192.59 876.99 192.88 877.11 194.4C877.18 195.35 878.62 195.2 878.62 194.4C878.62 190.18 876.52 186.64 872.99 184.52C871.62 183.7 869.55 183 867.68 183H866.84C865.06 183 862.94 183.73 861.62 184.52C859.48 185.8 858.17 187.29 857.07 189.48C856.57 190.48 856 192.36 856 193.83Z" fill="#586872" fill-opacity="0.501961"/>
<path id="Vector_53" fill-rule="evenodd" clip-rule="evenodd" d="M864.289 194.21C864.289 194.58 864.429 194.94 864.829 195.04C865.019 195.09 868.049 195.06 868.389 195.06L867.469 197.25C867.239 197.79 866.549 199.18 866.549 199.68C866.549 200.26 867.579 200.73 868.019 199.87C868.129 199.63 868.249 199.34 868.359 199.08C868.589 198.54 868.779 198.06 869.019 197.53C869.169 197.18 870.319 194.55 870.319 194.4C870.319 193.34 869.379 193.55 868.629 193.55C867.829 193.55 867.019 193.55 866.219 193.55L867.399 190.77C867.599 190.31 867.799 189.86 867.989 189.38C868.409 188.31 867.069 187.81 866.649 188.65C866.379 189.17 864.289 194.09 864.289 194.21Z" fill="#586872" fill-opacity="0.501961"/>
</g>
</g>
<g id="Frame 2131333474">
<rect id="Rectangle 34625222_24" x="1244" y="174" width="380" height="107" rx="13" fill="#141E31"/>
<rect id="Rectangle 34625224_16" x="1244" y="174" width="380" height="107" rx="13" fill="#141E31"/>
<rect id="Rectangle 34625223_24" x="1252" y="183" width="4" height="89" rx="2" fill="#10182C"/>
<text id="&#208;&#144;&#208;&#186;&#209;&#130;&#208;&#184;&#208;&#178;&#208;&#189;&#208;&#176;&#209;&#143; &#208;&#188;&#208;&#190;&#209;&#137;&#208;&#189;&#208;&#190;&#209;&#129;&#209;&#130;&#209;&#140;_4" fill="#586872" style="white-space: pre" xml:space="preserve" font-family="Bahnschrift" font-size="18" letter-spacing="0em"><tspan x="1292" y="199.291">&#x410;&#x43a;&#x442;&#x438;&#x432;&#x43d;&#x430;&#x44f; &#x43c;&#x43e;&#x449;&#x43d;&#x43e;&#x441;&#x442;&#x44c;</tspan></text>
<text id="0.00_12" fill="#2F3C4B" style="white-space: pre" xml:space="preserve" font-family="Bahnschrift" font-size="50" letter-spacing="0em"><tspan x="1521.81" y="265.697">0.00</tspan></text>
<text id="&#208;&#186;&#208;&#146;&#209;&#130;&#226;&#128;&#162;&#209;&#135;_4" fill="#2F3C4B" style="white-space: pre" xml:space="preserve" font-family="Bahnschrift" font-size="24" letter-spacing="0em"><tspan x="1552.98" y="198.555">&#x43a;&#x412;&#x442;&#x2022;&#x447;</tspan></text>
<g id="_2772615867184_4">
<path id="Vector_54" d="M1276.39 206.51L1280.1 196.48H1281.31L1285.02 206.51H1283.5L1280.7 198.41L1277.92 206.51H1276.39ZM1278.1 204.31V202.97H1283.4V204.31H1278.1Z" fill="#314CFF" fill-opacity="0.4"/>
<path id="Vector_55" fill-rule="evenodd" clip-rule="evenodd" d="M1262 193.83C1262 195.84 1262.23 197.46 1263.05 199.1C1263.4 199.79 1263.61 200.19 1264.05 200.83C1264.99 202.17 1266.22 203.25 1267.62 204.09C1269.28 205.09 1271.2 205.61 1273.4 205.61C1274.19 205.61 1274.34 204.23 1273.44 204.11L1272.21 204.03C1270.42 203.78 1268.89 203.22 1267.48 202.16C1267.35 202.06 1267.23 201.98 1267.1 201.88C1265.45 200.47 1264.35 198.78 1263.81 196.64C1263.07 193.68 1263.83 190.24 1265.8 188.03C1266.52 187.23 1266.82 186.92 1267.72 186.27C1269.21 185.18 1271.41 184.5 1273.31 184.5C1275.46 184.5 1277.48 185.25 1279.2 186.48C1279.78 186.9 1280.74 187.85 1281.15 188.44C1281.71 189.26 1282.2 190.05 1282.52 191.03C1283.04 192.59 1282.99 192.88 1283.11 194.4C1283.18 195.35 1284.62 195.2 1284.62 194.4C1284.62 190.18 1282.52 186.64 1278.99 184.52C1277.62 183.7 1275.55 183 1273.68 183H1272.84C1271.06 183 1268.94 183.73 1267.62 184.52C1265.48 185.8 1264.17 187.29 1263.07 189.48C1262.57 190.48 1262 192.36 1262 193.83Z" fill="#586872" fill-opacity="0.501961"/>
<path id="Vector_56" fill-rule="evenodd" clip-rule="evenodd" d="M1270.29 194.21C1270.29 194.58 1270.43 194.94 1270.83 195.04C1271.02 195.09 1274.05 195.06 1274.39 195.06L1273.47 197.25C1273.24 197.79 1272.55 199.18 1272.55 199.68C1272.55 200.26 1273.58 200.73 1274.02 199.87C1274.13 199.63 1274.25 199.34 1274.36 199.08C1274.59 198.54 1274.78 198.06 1275.02 197.53C1275.17 197.18 1276.32 194.55 1276.32 194.4C1276.32 193.34 1275.38 193.55 1274.63 193.55C1273.83 193.55 1273.02 193.55 1272.22 193.55L1273.4 190.77C1273.6 190.31 1273.8 189.86 1273.99 189.38C1274.41 188.31 1273.07 187.81 1272.65 188.65C1272.38 189.17 1270.29 194.09 1270.29 194.21Z" fill="#586872" fill-opacity="0.501961"/>
</g>
</g>
<g id="Frame 2131333475">
<rect id="Rectangle 34625222_25" x="26" y="56" width="380" height="107" rx="13" fill="#141E31"/>
<rect id="Rectangle 34625224_17" x="26" y="56" width="380" height="107" rx="13" fill="#141E31"/>
<rect id="Rectangle 34625223_25" x="34" y="65" width="4" height="89" rx="2" fill="#10182C"/>
<text id="&#208;&#146;&#209;&#139;&#209;&#128;&#208;&#176;&#208;&#177;&#208;&#190;&#209;&#130;&#208;&#186;&#208;&#176;" fill="#586872" style="white-space: pre" xml:space="preserve" font-family="Bahnschrift" font-size="18" letter-spacing="0em"><tspan x="74" y="81.291">&#x412;&#x44b;&#x440;&#x430;&#x431;&#x43e;&#x442;&#x43a;&#x430;</tspan></text>
<text id="111" fill="#818B98" style="white-space: pre" xml:space="preserve" font-family="Bahnschrift" font-size="50" letter-spacing="0em"><tspan x="345.049" y="132.697">111</tspan></text>
<text id="&#208;&#186;&#208;&#146;&#209;&#130;" fill="#2F3C4B" style="white-space: pre" xml:space="preserve" font-family="Bahnschrift" font-size="24" letter-spacing="0em"><tspan x="355.133" y="80.5547">&#x43a;&#x412;&#x442;</tspan></text>
<g id="_2772566376688">
<path id="Vector_57" d="M66.3598 87.67L62.6098 84.73L63.3398 83.8L67.0898 86.74L66.3598 87.67ZM62.6299 87.61C61.9199 87.61 61.2899 87.46 60.7599 87.15C60.2299 86.85 59.8198 86.42 59.5298 85.86C59.2298 85.3 59.0898 84.65 59.0898 83.91V81.07C59.0898 80.32 59.2298 79.67 59.5298 79.12C59.8198 78.57 60.2299 78.14 60.7599 77.83C61.2899 77.52 61.9199 77.37 62.6299 77.37C63.3399 77.37 63.9598 77.52 64.4898 77.83C65.0198 78.14 65.4298 78.57 65.7298 79.12C66.0198 79.67 66.1599 80.32 66.1599 81.07V83.91C66.1599 84.65 66.0198 85.3 65.7298 85.86C65.4298 86.42 65.0198 86.85 64.4898 87.15C63.9598 87.46 63.3399 87.61 62.6299 87.61ZM62.6299 86.22C63.2599 86.22 63.7598 86.02 64.1498 85.6C64.5298 85.19 64.7198 84.64 64.7198 83.96V81.02C64.7198 80.34 64.5298 79.79 64.1498 79.38C63.7598 78.97 63.2599 78.76 62.6299 78.76C61.9999 78.76 61.4898 78.97 61.1098 79.38C60.7298 79.79 60.5298 80.34 60.5298 81.02V83.96C60.5298 84.64 60.7298 85.19 61.1098 85.6C61.4898 86.02 61.9999 86.22 62.6299 86.22Z" fill="#586872" fill-opacity="0.501961"/>
<path id="Vector_58" fill-rule="evenodd" clip-rule="evenodd" d="M44 74.83C44 76.84 44.23 78.46 45.05 80.1C45.4 80.79 45.61 81.19 46.06 81.83C46.99 83.17 48.22 84.25 49.62 85.09C51.28 86.08 53.2 86.61 55.4 86.61C56.2 86.61 56.34 85.23 55.45 85.11L54.21 85.02C52.42 84.78 50.89 84.22 49.48 83.16C49.35 83.06 49.23 82.98 49.1 82.88C47.45 81.47 46.35 79.78 45.81 77.64C45.07 74.67 45.83 71.24 47.81 69.03C48.52 68.22 48.83 67.92 49.72 67.27C51.21 66.18 53.41 65.5 55.31 65.5C57.46 65.5 59.48 66.25 61.2 67.48C61.78 67.9 62.74 68.85 63.15 69.44C63.72 70.26 64.2 71.04 64.53 72.02C65.04 73.59 64.99 73.88 65.11 75.4C65.18 76.34 66.62 76.2 66.62 75.4C66.62 71.18 64.53 67.64 61 65.52C59.62 64.69 57.55 64 55.69 64H54.84C53.06 64 50.94 64.73 49.62 65.52C47.49 66.8 46.18 68.29 45.07 70.48C44.57 71.48 44 73.36 44 74.83Z" fill="#586872" fill-opacity="0.501961"/>
<path id="Vector_59" fill-rule="evenodd" clip-rule="evenodd" d="M52.2891 75.21C52.2891 75.58 52.439 75.94 52.829 76.04C53.019 76.09 56.049 76.06 56.389 76.06L55.4691 78.25C55.2391 78.79 54.5591 80.18 54.5591 80.68C54.5591 81.26 55.589 81.73 56.019 80.87C56.139 80.63 56.249 80.34 56.359 80.08C56.589 79.54 56.779 79.06 57.019 78.52C57.179 78.18 58.3191 75.55 58.3191 75.4C58.3191 74.34 57.3791 74.55 56.6291 74.55C55.8291 74.55 55.029 74.55 54.229 74.55L55.399 71.77C55.599 71.31 55.799 70.86 55.989 70.38C56.419 69.31 55.069 68.81 54.649 69.65C54.379 70.17 52.2891 75.09 52.2891 75.21Z" fill="#586872" fill-opacity="0.501961"/>
</g>
<path id="Vector_60" fill-rule="evenodd" clip-rule="evenodd" d="M394.92 149.6V145H44V149.6H394.92Z" fill="url(#paint0_linear_532_9631)"/>
</g>
<g id="Frame 2131333476">
<rect id="Rectangle 34625222_26" x="432" y="56" width="380" height="107" rx="13" fill="#141E31"/>
<rect id="Rectangle 34625224_18" x="432" y="56" width="380" height="107" rx="13" fill="#141E31"/>
<rect id="Rectangle 34625223_26" x="440" y="65" width="4" height="89" rx="2" fill="#10182C"/>
<text id="&#208;&#146;&#209;&#139;&#209;&#128;&#208;&#176;&#208;&#177;&#208;&#190;&#209;&#130;&#208;&#186;&#208;&#176;_2" fill="#586872" style="white-space: pre" xml:space="preserve" font-family="Bahnschrift" font-size="18" letter-spacing="0em"><tspan x="480" y="81.291">&#x412;&#x44b;&#x440;&#x430;&#x431;&#x43e;&#x442;&#x43a;&#x430;</tspan></text>
<text id="0.00_13" fill="#2F3C4B" style="white-space: pre" xml:space="preserve" font-family="Bahnschrift" font-size="50" letter-spacing="0em"><tspan x="710.814" y="132.697">0.00</tspan></text>
<text id="&#208;&#186;&#208;&#146;&#209;&#130;_2" fill="#2F3C4B" style="white-space: pre" xml:space="preserve" font-family="Bahnschrift" font-size="24" letter-spacing="0em"><tspan x="761.133" y="80.5547">&#x43a;&#x412;&#x442;</tspan></text>
<g id="_2772566376688_2">
<path id="Vector_61" d="M472.36 87.67L468.61 84.73L469.34 83.8L473.09 86.74L472.36 87.67ZM468.63 87.61C467.92 87.61 467.29 87.46 466.76 87.15C466.23 86.85 465.82 86.42 465.53 85.86C465.23 85.3 465.09 84.65 465.09 83.91V81.07C465.09 80.32 465.23 79.67 465.53 79.12C465.82 78.57 466.23 78.14 466.76 77.83C467.29 77.52 467.92 77.37 468.63 77.37C469.34 77.37 469.96 77.52 470.49 77.83C471.02 78.14 471.43 78.57 471.73 79.12C472.02 79.67 472.16 80.32 472.16 81.07V83.91C472.16 84.65 472.02 85.3 471.73 85.86C471.43 86.42 471.02 86.85 470.49 87.15C469.96 87.46 469.34 87.61 468.63 87.61ZM468.63 86.22C469.26 86.22 469.76 86.02 470.15 85.6C470.53 85.19 470.72 84.64 470.72 83.96V81.02C470.72 80.34 470.53 79.79 470.15 79.38C469.76 78.97 469.26 78.76 468.63 78.76C468 78.76 467.49 78.97 467.11 79.38C466.73 79.79 466.53 80.34 466.53 81.02V83.96C466.53 84.64 466.73 85.19 467.11 85.6C467.49 86.02 468 86.22 468.63 86.22Z" fill="#586872" fill-opacity="0.501961"/>
<path id="Vector_62" fill-rule="evenodd" clip-rule="evenodd" d="M450 74.83C450 76.84 450.23 78.46 451.05 80.1C451.4 80.79 451.61 81.19 452.06 81.83C452.99 83.17 454.22 84.25 455.62 85.09C457.28 86.08 459.2 86.61 461.4 86.61C462.2 86.61 462.34 85.23 461.45 85.11L460.21 85.02C458.42 84.78 456.89 84.22 455.48 83.16C455.35 83.06 455.23 82.98 455.1 82.88C453.45 81.47 452.35 79.78 451.81 77.64C451.07 74.67 451.83 71.24 453.81 69.03C454.52 68.22 454.83 67.92 455.72 67.27C457.21 66.18 459.41 65.5 461.31 65.5C463.46 65.5 465.48 66.25 467.2 67.48C467.78 67.9 468.74 68.85 469.15 69.44C469.72 70.26 470.2 71.04 470.53 72.02C471.04 73.59 470.99 73.88 471.11 75.4C471.18 76.34 472.62 76.2 472.62 75.4C472.62 71.18 470.53 67.64 467 65.52C465.62 64.69 463.55 64 461.69 64H460.84C459.06 64 456.94 64.73 455.62 65.52C453.49 66.8 452.18 68.29 451.07 70.48C450.57 71.48 450 73.36 450 74.83Z" fill="#586872" fill-opacity="0.501961"/>
<path id="Vector_63" fill-rule="evenodd" clip-rule="evenodd" d="M458.289 75.21C458.289 75.58 458.439 75.94 458.829 76.04C459.019 76.09 462.049 76.06 462.389 76.06L461.469 78.25C461.239 78.79 460.559 80.18 460.559 80.68C460.559 81.26 461.589 81.73 462.019 80.87C462.139 80.63 462.249 80.34 462.359 80.08C462.589 79.54 462.779 79.06 463.019 78.52C463.179 78.18 464.319 75.55 464.319 75.4C464.319 74.34 463.379 74.55 462.629 74.55C461.829 74.55 461.029 74.55 460.229 74.55L461.399 71.77C461.599 71.31 461.799 70.86 461.989 70.38C462.419 69.31 461.069 68.81 460.649 69.65C460.379 70.17 458.289 75.09 458.289 75.21Z" fill="#586872" fill-opacity="0.501961"/>
</g>
<path id="Vector_64" fill-rule="evenodd" clip-rule="evenodd" d="M800.92 149.6V145H450V149.6H800.92Z" fill="url(#paint1_linear_532_9631)"/>
</g>
<g id="Frame 2131333477">
<rect id="Rectangle 34625222_27" x="838" y="56" width="380" height="107" rx="13" fill="#141E31"/>
<rect id="Rectangle 34625224_19" x="838" y="56" width="380" height="107" rx="13" fill="#141E31"/>
<rect id="Rectangle 34625223_27" x="846" y="65" width="4" height="89" rx="2" fill="#10182C"/>
<text id="&#208;&#146;&#209;&#139;&#209;&#128;&#208;&#176;&#208;&#177;&#208;&#190;&#209;&#130;&#208;&#186;&#208;&#176;_3" fill="#586872" style="white-space: pre" xml:space="preserve" font-family="Bahnschrift" font-size="18" letter-spacing="0em"><tspan x="886" y="81.291">&#x412;&#x44b;&#x440;&#x430;&#x431;&#x43e;&#x442;&#x43a;&#x430;</tspan></text>
<text id="0.00_14" fill="#2F3C4B" style="white-space: pre" xml:space="preserve" font-family="Bahnschrift" font-size="50" letter-spacing="0em"><tspan x="1116.81" y="132.697">0.00</tspan></text>
<text id="&#208;&#186;&#208;&#146;&#209;&#130;_3" fill="#2F3C4B" style="white-space: pre" xml:space="preserve" font-family="Bahnschrift" font-size="24" letter-spacing="0em"><tspan x="1167.13" y="80.5547">&#x43a;&#x412;&#x442;</tspan></text>
<g id="_2772566376688_3">
<path id="Vector_65" d="M878.36 87.67L874.61 84.73L875.34 83.8L879.09 86.74L878.36 87.67ZM874.63 87.61C873.92 87.61 873.29 87.46 872.76 87.15C872.23 86.85 871.82 86.42 871.53 85.86C871.23 85.3 871.09 84.65 871.09 83.91V81.07C871.09 80.32 871.23 79.67 871.53 79.12C871.82 78.57 872.23 78.14 872.76 77.83C873.29 77.52 873.92 77.37 874.63 77.37C875.34 77.37 875.96 77.52 876.49 77.83C877.02 78.14 877.43 78.57 877.73 79.12C878.02 79.67 878.16 80.32 878.16 81.07V83.91C878.16 84.65 878.02 85.3 877.73 85.86C877.43 86.42 877.02 86.85 876.49 87.15C875.96 87.46 875.34 87.61 874.63 87.61ZM874.63 86.22C875.26 86.22 875.76 86.02 876.15 85.6C876.53 85.19 876.72 84.64 876.72 83.96V81.02C876.72 80.34 876.53 79.79 876.15 79.38C875.76 78.97 875.26 78.76 874.63 78.76C874 78.76 873.49 78.97 873.11 79.38C872.73 79.79 872.53 80.34 872.53 81.02V83.96C872.53 84.64 872.73 85.19 873.11 85.6C873.49 86.02 874 86.22 874.63 86.22Z" fill="#586872" fill-opacity="0.501961"/>
<path id="Vector_66" fill-rule="evenodd" clip-rule="evenodd" d="M856 74.83C856 76.84 856.23 78.46 857.05 80.1C857.4 80.79 857.61 81.19 858.06 81.83C858.99 83.17 860.22 84.25 861.62 85.09C863.28 86.08 865.2 86.61 867.4 86.61C868.2 86.61 868.34 85.23 867.45 85.11L866.21 85.02C864.42 84.78 862.89 84.22 861.48 83.16C861.35 83.06 861.23 82.98 861.1 82.88C859.45 81.47 858.35 79.78 857.81 77.64C857.07 74.67 857.83 71.24 859.81 69.03C860.52 68.22 860.83 67.92 861.72 67.27C863.21 66.18 865.41 65.5 867.31 65.5C869.46 65.5 871.48 66.25 873.2 67.48C873.78 67.9 874.74 68.85 875.15 69.44C875.72 70.26 876.2 71.04 876.53 72.02C877.04 73.59 876.99 73.88 877.11 75.4C877.18 76.34 878.62 76.2 878.62 75.4C878.62 71.18 876.53 67.64 873 65.52C871.62 64.69 869.55 64 867.69 64H866.84C865.06 64 862.94 64.73 861.62 65.52C859.49 66.8 858.18 68.29 857.07 70.48C856.57 71.48 856 73.36 856 74.83Z" fill="#586872" fill-opacity="0.501961"/>
<path id="Vector_67" fill-rule="evenodd" clip-rule="evenodd" d="M864.289 75.21C864.289 75.58 864.439 75.94 864.829 76.04C865.019 76.09 868.049 76.06 868.389 76.06L867.469 78.25C867.239 78.79 866.559 80.18 866.559 80.68C866.559 81.26 867.589 81.73 868.019 80.87C868.139 80.63 868.249 80.34 868.359 80.08C868.589 79.54 868.779 79.06 869.019 78.52C869.179 78.18 870.319 75.55 870.319 75.4C870.319 74.34 869.379 74.55 868.629 74.55C867.829 74.55 867.029 74.55 866.229 74.55L867.399 71.77C867.599 71.31 867.799 70.86 867.989 70.38C868.419 69.31 867.069 68.81 866.649 69.65C866.379 70.17 864.289 75.09 864.289 75.21Z" fill="#586872" fill-opacity="0.501961"/>
</g>
<path id="Vector_68" fill-rule="evenodd" clip-rule="evenodd" d="M1206.92 149.6V145H856V149.6H1206.92Z" fill="url(#paint2_linear_532_9631)"/>
</g>
<g id="Frame 2131333478">
<rect id="Rectangle 34625222_28" x="1244" y="56" width="380" height="107" rx="13" fill="#141E31"/>
<rect id="Rectangle 34625224_20" x="1244" y="56" width="380" height="107" rx="13" fill="#141E31"/>
<rect id="Rectangle 34625223_28" x="1252" y="65" width="4" height="89" rx="2" fill="#10182C"/>
<text id="&#208;&#146;&#209;&#139;&#209;&#128;&#208;&#176;&#208;&#177;&#208;&#190;&#209;&#130;&#208;&#186;&#208;&#176;_4" fill="#586872" style="white-space: pre" xml:space="preserve" font-family="Bahnschrift" font-size="18" letter-spacing="0em"><tspan x="1292" y="81.291">&#x412;&#x44b;&#x440;&#x430;&#x431;&#x43e;&#x442;&#x43a;&#x430;</tspan></text>
<text id="0.00_15" fill="#2F3C4B" style="white-space: pre" xml:space="preserve" font-family="Bahnschrift" font-size="50" letter-spacing="0em"><tspan x="1522.81" y="132.697">0.00</tspan></text>
<text id="&#208;&#186;&#208;&#146;&#209;&#130;_4" fill="#2F3C4B" style="white-space: pre" xml:space="preserve" font-family="Bahnschrift" font-size="24" letter-spacing="0em"><tspan x="1573.13" y="80.5547">&#x43a;&#x412;&#x442;</tspan></text>
<g id="_2772566376688_4">
<path id="Vector_69" d="M1284.36 87.67L1280.61 84.73L1281.34 83.8L1285.09 86.74L1284.36 87.67ZM1280.63 87.61C1279.92 87.61 1279.29 87.46 1278.76 87.15C1278.23 86.85 1277.82 86.42 1277.53 85.86C1277.23 85.3 1277.09 84.65 1277.09 83.91V81.07C1277.09 80.32 1277.23 79.67 1277.53 79.12C1277.82 78.57 1278.23 78.14 1278.76 77.83C1279.29 77.52 1279.92 77.37 1280.63 77.37C1281.34 77.37 1281.96 77.52 1282.49 77.83C1283.02 78.14 1283.43 78.57 1283.73 79.12C1284.02 79.67 1284.16 80.32 1284.16 81.07V83.91C1284.16 84.65 1284.02 85.3 1283.73 85.86C1283.43 86.42 1283.02 86.85 1282.49 87.15C1281.96 87.46 1281.34 87.61 1280.63 87.61ZM1280.63 86.22C1281.26 86.22 1281.76 86.02 1282.15 85.6C1282.53 85.19 1282.72 84.64 1282.72 83.96V81.02C1282.72 80.34 1282.53 79.79 1282.15 79.38C1281.76 78.97 1281.26 78.76 1280.63 78.76C1280 78.76 1279.49 78.97 1279.11 79.38C1278.73 79.79 1278.53 80.34 1278.53 81.02V83.96C1278.53 84.64 1278.73 85.19 1279.11 85.6C1279.49 86.02 1280 86.22 1280.63 86.22Z" fill="#586872" fill-opacity="0.501961"/>
<path id="Vector_70" fill-rule="evenodd" clip-rule="evenodd" d="M1262 74.83C1262 76.84 1262.23 78.46 1263.05 80.1C1263.4 80.79 1263.61 81.19 1264.06 81.83C1264.99 83.17 1266.22 84.25 1267.62 85.09C1269.28 86.08 1271.2 86.61 1273.4 86.61C1274.2 86.61 1274.34 85.23 1273.45 85.11L1272.21 85.02C1270.42 84.78 1268.89 84.22 1267.48 83.16C1267.35 83.06 1267.23 82.98 1267.1 82.88C1265.45 81.47 1264.35 79.78 1263.81 77.64C1263.07 74.67 1263.83 71.24 1265.81 69.03C1266.52 68.22 1266.83 67.92 1267.72 67.27C1269.21 66.18 1271.41 65.5 1273.31 65.5C1275.46 65.5 1277.48 66.25 1279.2 67.48C1279.78 67.9 1280.74 68.85 1281.15 69.44C1281.72 70.26 1282.2 71.04 1282.53 72.02C1283.04 73.59 1282.99 73.88 1283.11 75.4C1283.18 76.34 1284.62 76.2 1284.62 75.4C1284.62 71.18 1282.53 67.64 1279 65.52C1277.62 64.69 1275.55 64 1273.69 64H1272.84C1271.06 64 1268.94 64.73 1267.62 65.52C1265.49 66.8 1264.18 68.29 1263.07 70.48C1262.57 71.48 1262 73.36 1262 74.83Z" fill="#586872" fill-opacity="0.501961"/>
<path id="Vector_71" fill-rule="evenodd" clip-rule="evenodd" d="M1270.29 75.21C1270.29 75.58 1270.44 75.94 1270.83 76.04C1271.02 76.09 1274.05 76.06 1274.39 76.06L1273.47 78.25C1273.24 78.79 1272.56 80.18 1272.56 80.68C1272.56 81.26 1273.59 81.73 1274.02 80.87C1274.14 80.63 1274.25 80.34 1274.36 80.08C1274.59 79.54 1274.78 79.06 1275.02 78.52C1275.18 78.18 1276.32 75.55 1276.32 75.4C1276.32 74.34 1275.38 74.55 1274.63 74.55C1273.83 74.55 1273.03 74.55 1272.23 74.55L1273.4 71.77C1273.6 71.31 1273.8 70.86 1273.99 70.38C1274.42 69.31 1273.07 68.81 1272.65 69.65C1272.38 70.17 1270.29 75.09 1270.29 75.21Z" fill="#586872" fill-opacity="0.501961"/>
</g>
<path id="Vector_72" fill-rule="evenodd" clip-rule="evenodd" d="M1612.92 149.6V145H1262V149.6H1612.92Z" fill="url(#paint3_linear_532_9631)"/>
</g>
<text id="&#208;&#145;&#208;&#190;&#208;&#183;&#209;&#129;&#209;&#131;" fill="#333F4E" style="white-space: pre" xml:space="preserve" font-family="Bahnschrift" font-size="32" font-weight="300" letter-spacing="0em"><tspan x="310" y="34.4062">&#x411;&#x43e;&#x437;&#x441;&#x443;</tspan></text>
<text id="&#208;&#168;&#208;&#176;&#208;&#185;&#209;&#133;&#208;&#190;&#208;&#189;&#209;&#130;&#208;&#190;&#209;&#133;&#209;&#131;&#209;&#128;" fill="#333F4E" style="white-space: pre" xml:space="preserve" font-family="Bahnschrift" font-size="32" font-weight="300" letter-spacing="0em"><tspan x="602.781" y="34.4062">&#x428;&#x430;&#x439;&#x445;&#x43e;&#x43d;&#x442;&#x43e;&#x445;&#x443;&#x440;</tspan></text>
<text id="&#208;&#145;&#209;&#131;&#209;&#128;&#208;&#180;&#208;&#182;&#208;&#176;&#209;&#128;" fill="#333F4E" style="white-space: pre" xml:space="preserve" font-family="Bahnschrift" font-size="32" font-weight="300" letter-spacing="0em"><tspan x="1076.03" y="34.4062">&#x411;&#x443;&#x440;&#x434;&#x436;&#x430;&#x440;</tspan></text>
<text id="&#208;&#144;&#208;&#186;&#209;&#130;&#208;&#181;&#208;&#191;&#208;&#176;" fill="#333F4E" style="white-space: pre" xml:space="preserve" font-family="Bahnschrift" font-size="32" font-weight="300" letter-spacing="0em"><tspan x="1507.25" y="34.4062">&#x410;&#x43a;&#x442;&#x435;&#x43f;&#x430;</tspan></text>
<text id="&#208;&#147;&#208;&#173;&#208;&#161;-1" fill="#586872" style="white-space: pre" xml:space="preserve" font-family="Bahnschrift" font-size="32" font-weight="300" letter-spacing="0em"><tspan x="36" y="34.4062">&#x413;&#x42d;&#x421;-1</tspan></text>
<text id="&#208;&#147;&#208;&#173;&#208;&#161;-21" fill="#586872" style="white-space: pre" xml:space="preserve" font-family="Bahnschrift" font-size="32" font-weight="300" letter-spacing="0em"><tspan x="442" y="34.4062">&#x413;&#x42d;&#x421;-21</tspan></text>
<text id="&#208;&#147;&#208;&#173;&#208;&#161;-4" fill="#586872" style="white-space: pre" xml:space="preserve" font-family="Bahnschrift" font-size="32" font-weight="300" letter-spacing="0em"><tspan x="848" y="34.4062">&#x413;&#x42d;&#x421;-4</tspan></text>
<text id="&#208;&#147;&#208;&#173;&#208;&#161;-9" fill="#586872" style="white-space: pre" xml:space="preserve" font-family="Bahnschrift" font-size="32" font-weight="300" letter-spacing="0em"><tspan x="1254" y="34.4062">&#x413;&#x42d;&#x421;-9</tspan></text>
</g>
<defs>
<filter id="filter0_f_532_9631" x="114" y="707" width="57" height="26" filterUnits="userSpaceOnUse" color-interpolation-filters="sRGB">
<feFlood flood-opacity="0" result="BackgroundImageFix"/>
<feBlend mode="normal" in="SourceGraphic" in2="BackgroundImageFix" result="shape"/>
<feGaussianBlur stdDeviation="2" result="effect1_foregroundBlur_532_9631"/>
</filter>
<filter id="filter1_f_532_9631" x="302" y="707" width="57" height="26" filterUnits="userSpaceOnUse" color-interpolation-filters="sRGB">
<feFlood flood-opacity="0" result="BackgroundImageFix"/>
<feBlend mode="normal" in="SourceGraphic" in2="BackgroundImageFix" result="shape"/>
<feGaussianBlur stdDeviation="2" result="effect1_foregroundBlur_532_9631"/>
</filter>
<filter id="filter2_f_532_9631" x="520" y="707" width="57" height="26" filterUnits="userSpaceOnUse" color-interpolation-filters="sRGB">
<feFlood flood-opacity="0" result="BackgroundImageFix"/>
<feBlend mode="normal" in="SourceGraphic" in2="BackgroundImageFix" result="shape"/>
<feGaussianBlur stdDeviation="2" result="effect1_foregroundBlur_532_9631"/>
</filter>
<filter id="filter3_f_532_9631" x="520" y="785" width="57" height="26" filterUnits="userSpaceOnUse" color-interpolation-filters="sRGB">
<feFlood flood-opacity="0" result="BackgroundImageFix"/>
<feBlend mode="normal" in="SourceGraphic" in2="BackgroundImageFix" result="shape"/>
<feGaussianBlur stdDeviation="2" result="effect1_foregroundBlur_532_9631"/>
</filter>
<filter id="filter4_f_532_9631" x="708" y="707" width="57" height="26" filterUnits="userSpaceOnUse" color-interpolation-filters="sRGB">
<feFlood flood-opacity="0" result="BackgroundImageFix"/>
<feBlend mode="normal" in="SourceGraphic" in2="BackgroundImageFix" result="shape"/>
<feGaussianBlur stdDeviation="2" result="effect1_foregroundBlur_532_9631"/>
</filter>
<filter id="filter5_f_532_9631" x="926" y="707" width="57" height="26" filterUnits="userSpaceOnUse" color-interpolation-filters="sRGB">
<feFlood flood-opacity="0" result="BackgroundImageFix"/>
<feBlend mode="normal" in="SourceGraphic" in2="BackgroundImageFix" result="shape"/>
<feGaussianBlur stdDeviation="2" result="effect1_foregroundBlur_532_9631"/>
</filter>
<filter id="filter6_f_532_9631" x="1114" y="707" width="57" height="26" filterUnits="userSpaceOnUse" color-interpolation-filters="sRGB">
<feFlood flood-opacity="0" result="BackgroundImageFix"/>
<feBlend mode="normal" in="SourceGraphic" in2="BackgroundImageFix" result="shape"/>
<feGaussianBlur stdDeviation="2" result="effect1_foregroundBlur_532_9631"/>
</filter>
<filter id="filter7_f_532_9631" x="1332" y="707" width="57" height="26" filterUnits="userSpaceOnUse" color-interpolation-filters="sRGB">
<feFlood flood-opacity="0" result="BackgroundImageFix"/>
<feBlend mode="normal" in="SourceGraphic" in2="BackgroundImageFix" result="shape"/>
<feGaussianBlur stdDeviation="2" result="effect1_foregroundBlur_532_9631"/>
</filter>
<filter id="filter8_f_532_9631" x="1520" y="707" width="57" height="26" filterUnits="userSpaceOnUse" color-interpolation-filters="sRGB">
<feFlood flood-opacity="0" result="BackgroundImageFix"/>
<feBlend mode="normal" in="SourceGraphic" in2="BackgroundImageFix" result="shape"/>
<feGaussianBlur stdDeviation="2" result="effect1_foregroundBlur_532_9631"/>
</filter>
<linearGradient id="paint0_linear_532_9631" x1="44" y1="147.3" x2="394.92" y2="147.3" gradientUnits="userSpaceOnUse">
<stop stop-color="#0F172B"/>
<stop offset="1" stop-color="#28324A"/>
</linearGradient>
<linearGradient id="paint1_linear_532_9631" x1="450" y1="147.3" x2="800.92" y2="147.3" gradientUnits="userSpaceOnUse">
<stop stop-color="#0F172B"/>
<stop offset="1" stop-color="#28324A"/>
</linearGradient>
<linearGradient id="paint2_linear_532_9631" x1="856" y1="147.3" x2="1206.92" y2="147.3" gradientUnits="userSpaceOnUse">
<stop stop-color="#0F172B"/>
<stop offset="1" stop-color="#28324A"/>
</linearGradient>
<linearGradient id="paint3_linear_532_9631" x1="1262" y1="147.3" x2="1612.92" y2="147.3" gradientUnits="userSpaceOnUse">
<stop stop-color="#0F172B"/>
<stop offset="1" stop-color="#28324A"/>
</linearGradient>
</defs>
</svg>
